<?xml version="1.0" encoding="utf-8"?>
<!-- Generator: Adobe Illustrator 16.0.0, SVG Export Plug-In . SVG Version: 6.00 Build 0)  -->
<!DOCTYPE svg PUBLIC "-//W3C//DTD SVG 1.1//EN" "http://www.w3.org/Graphics/SVG/1.1/DTD/svg11.dtd">
<svg version="1.1" id="Layer_1" xmlns="http://www.w3.org/2000/svg" xmlns:xlink="http://www.w3.org/1999/xlink" x="0px" y="0px"
	 width="275.813px" height="130.262px" viewBox="0 0 275.813 130.262" enable-background="new 0 0 275.813 130.262"
	 xml:space="preserve">
<g>
	<path fill="#6E6F72" d="M107,39.761h15.025v20.293h19.286V39.761h15.026v54.218h-15.026V73.376h-19.286v20.603H107V39.761z"/>
	<path fill="#6E6F72" d="M163.817,67.279v-0.154c0-15.568,12.548-28.193,29.277-28.193c16.729,0,29.122,12.47,29.122,28.038v0.155
		c0,15.567-12.547,28.192-29.277,28.192C176.21,95.317,163.817,82.847,163.817,67.279z M206.881,67.279v-0.154
		c0-7.823-5.653-14.639-13.941-14.639c-8.21,0-13.709,6.66-13.709,14.483v0.155c0,7.822,5.654,14.639,13.864,14.639
		C201.383,81.763,206.881,75.102,206.881,67.279z"/>
	<path fill="#6E6F72" d="M230.038,40.015h23.236c13.709,0,22.539,7.049,22.539,19.054v0.155c0,12.779-9.836,19.518-23.312,19.518
		h-7.437v15.491h-15.026V40.015z M252.191,66.969c5.344,0,8.598-2.788,8.598-7.048v-0.155c0-4.647-3.254-7.126-8.676-7.126h-7.048
		v14.329H252.191z"/>
	<rect x="107" y="39.761" fill="#F47A20" width="15" height="54"/>
</g>
<path fill="#6E6F72" d="M100.396,97.738c-8.666,9.181-20.938,14.921-34.561,14.921c-26.249,0-47.528-21.279-47.528-47.528
	s21.279-47.528,47.528-47.528c12.42,0,23.723,4.769,32.189,12.569L110.35,18.26C98.636,6.956,82.697,0,65.131,0
	C29.16,0,0,29.16,0,65.131c0,35.971,29.16,65.131,65.131,65.131c18.617,0,35.408-7.812,47.277-20.336L100.396,97.738z"/>
<path fill="#6E6F72" d="M96.043,57.261H79.115H73.7H52.257c2.826-4,7.782-7.342,13.429-7.342c4.295,0,8.188,1.723,11.05,4.488
	L88.2,43.449c-5.778-5.987-13.881-9.713-22.858-9.713c-17.545,0-31.77,14.095-31.77,31.64c0,2.769,0.356,5.885,1.021,7.885h17.133
	h5.603h22.315c-2.707,5-7.942,8.396-13.959,8.396c-4.596,0-8.73-1.886-11.636-5.001L42.702,87.755
	c5.763,5.856,13.774,9.507,22.64,9.507c17.545,0,31.769-14.249,31.769-31.794C97.112,62.638,96.737,60.261,96.043,57.261z"/>
</svg>
