<svg width="19" height="20" viewBox="0 0 19 20" fill="none" xmlns="http://www.w3.org/2000/svg">
<path d="M5.70382 12.5414H16.1728C17.3599 12.5414 18.3283 11.5706 18.3283 10.3805V5.96475C18.3283 5.96083 18.3283 5.953 18.3283 5.94909C18.3283 5.93735 18.3283 5.92952 18.3283 5.91777C18.3283 5.90994 18.3283 5.90211 18.3244 5.89428C18.3244 5.88646 18.3205 5.87471 18.3205 5.86688C18.3205 5.85905 18.3166 5.85122 18.3166 5.84339C18.3127 5.83556 18.3127 5.82773 18.3088 5.81599C18.3049 5.80816 18.3049 5.80033 18.301 5.7925C18.2971 5.78467 18.2971 5.77684 18.2932 5.76901C18.2893 5.76119 18.2854 5.75336 18.2815 5.74161C18.2776 5.73378 18.2737 5.72595 18.2698 5.72204C18.2659 5.71421 18.262 5.70638 18.2581 5.69855C18.2541 5.69072 18.2502 5.68681 18.2463 5.67898C18.2424 5.67115 18.2346 5.66332 18.2307 5.65549C18.2268 5.64766 18.2229 5.64374 18.2151 5.63592C18.2112 5.62809 18.2034 5.62417 18.1995 5.61634C18.1956 5.60851 18.1878 5.6046 18.1839 5.59677C18.18 5.58894 18.1721 5.58502 18.1682 5.58111C18.1604 5.57328 18.1565 5.56937 18.1487 5.56154C18.1409 5.55762 18.137 5.54979 18.1292 5.54588C18.1214 5.54196 18.1136 5.53413 18.1058 5.53022C18.0979 5.5263 18.094 5.52239 18.0862 5.51848C18.0784 5.51456 18.0706 5.51065 18.0628 5.50282C18.055 5.4989 18.0472 5.49499 18.0394 5.49107C18.0316 5.48716 18.0238 5.48324 18.0159 5.47933C18.0081 5.47541 18.0003 5.4715 17.9925 5.46758C17.9847 5.46367 17.9769 5.46367 17.9691 5.45975C17.9613 5.45584 17.9496 5.45193 17.9418 5.45193C17.9339 5.45193 17.9261 5.44801 17.9222 5.44801C17.9105 5.4441 17.9027 5.4441 17.891 5.4441C17.8871 5.4441 17.8832 5.44018 17.8754 5.44018L4.60654 3.6042V1.74864C4.60654 1.72906 4.60654 1.70949 4.60264 1.69383C4.60264 1.68992 4.60264 1.686 4.59873 1.67817C4.59873 1.66643 4.59483 1.65469 4.59483 1.64294C4.59092 1.6312 4.59092 1.62337 4.58702 1.61162C4.58702 1.6038 4.58311 1.59988 4.58311 1.59205C4.57921 1.58031 4.5753 1.56856 4.5714 1.55682C4.5714 1.5529 4.56749 1.54508 4.56749 1.54116C4.56359 1.52942 4.55968 1.52159 4.55187 1.50984C4.54797 1.50593 4.54797 1.4981 4.54407 1.49418C4.54016 1.48635 4.53626 1.47853 4.52845 1.4707C4.52454 1.46287 4.52064 1.45895 4.51673 1.45112C4.51283 1.44329 4.50892 1.43938 4.50502 1.43155C4.50111 1.42372 4.4933 1.41589 4.4894 1.40806C4.48549 1.40415 4.48159 1.40023 4.47768 1.39632C4.46987 1.38849 4.46206 1.38066 4.45425 1.37283C4.45035 1.36891 4.44644 1.365 4.44254 1.36109C4.43473 1.35326 4.42692 1.34543 4.4152 1.3376C4.4113 1.33368 4.40349 1.32977 4.39958 1.32585C4.39177 1.31802 4.38396 1.31411 4.37615 1.30628C4.36444 1.29845 4.35273 1.29062 4.34492 1.28671C4.34101 1.28279 4.33711 1.28279 4.3332 1.27888C4.31758 1.27105 4.29806 1.26322 4.28244 1.25539L1.40453 0.0418381C1.13509 -0.0716876 0.826606 0.0535822 0.713364 0.323695C0.600122 0.593808 0.725079 0.903068 0.994517 1.01659L3.54832 2.09704V4.49283V4.87255V7.78507V10.3883V13.6767C3.54832 14.7728 4.36834 15.681 5.42657 15.818C5.23523 16.139 5.12199 16.5148 5.12199 16.9141C5.12199 18.0924 6.07869 19.0476 7.25016 19.0476C8.42162 19.0476 9.37832 18.0885 9.37832 16.9141C9.37832 16.5226 9.27289 16.1507 9.08546 15.8376H13.826C13.6386 16.1547 13.5331 16.5226 13.5331 16.9141C13.5331 18.0924 14.4898 19.0476 15.6613 19.0476C16.8328 19.0476 17.7895 18.0885 17.7895 16.9141C17.7895 15.7397 16.8328 14.7806 15.6613 14.7806H5.70382C5.09466 14.7806 4.60264 14.2834 4.60264 13.6767V12.2439C4.92284 12.4318 5.30161 12.5414 5.70382 12.5414ZM8.32791 16.9102C8.32791 17.5052 7.8437 17.9867 7.25406 17.9867C6.66442 17.9867 6.18022 17.5013 6.18022 16.9102C6.18022 16.3191 6.66442 15.8337 7.25406 15.8337C7.8437 15.8337 8.32791 16.3152 8.32791 16.9102ZM16.739 16.9102C16.739 17.5052 16.2548 17.9867 15.6652 17.9867C15.0756 17.9867 14.5914 17.5013 14.5914 16.9102C14.5914 16.3191 15.0756 15.8337 15.6652 15.8337C16.2548 15.8337 16.739 16.3152 16.739 16.9102ZM16.1728 11.4844H5.70382C5.09466 11.4844 4.60264 10.9873 4.60264 10.3805V7.77725V4.86472V4.66899L17.274 6.41885V10.3766C17.274 10.9912 16.7781 11.4844 16.1728 11.4844Z" fill="#484848"/>
</svg>
