<svg width="23" height="23" viewBox="0 0 23 23" fill="none" xmlns="http://www.w3.org/2000/svg">
<path d="M22.5134 11.3254C22.5134 5.07054 17.4736 1.34189e-06 11.2567 1.34189e-06C5.0398 1.34189e-06 0 5.07054 0 11.3254C0 16.9782 4.11642 21.6636 9.49785 22.5132V14.5991H6.6397V11.3254H9.49785V8.83026C9.49785 5.99184 11.1784 4.42398 13.7497 4.42398C14.9813 4.42398 16.2695 4.64518 16.2695 4.64518V7.43228H14.85C13.4517 7.43228 13.0156 8.30529 13.0156 9.20092V11.3254H16.1376L15.6385 14.5991H13.0156V22.5132C18.397 21.6636 22.5134 16.9782 22.5134 11.3254Z" fill="white"/>
</svg>
