<svg width="21" height="21" viewBox="0 0 21 21" fill="none" xmlns="http://www.w3.org/2000/svg">
<rect width="21" height="21" fill="white"/>
<path d="M17.6269 4.48541C16.7367 3.53243 15.5582 3.01157 14.3004 3.01157C13.0426 3.01157 11.8605 3.53629 10.9703 4.48927L10.5054 4.98698L10.0333 4.48155C9.1431 3.52857 7.95739 3 6.69961 3C5.44542 3 4.26332 3.52472 3.37674 4.47384C2.48656 5.42681 1.99642 6.69231 2.00002 8.03882C2.00002 9.38534 2.49376 10.647 3.38395 11.6L10.1522 18.8457C10.2459 18.946 10.3721 19 10.4946 19C10.6171 19 10.7433 18.9498 10.837 18.8495L17.6197 11.6154C18.5098 10.6624 19 9.39691 19 8.0504C19.0036 6.70388 18.517 5.43839 17.6269 4.48541ZM16.9349 10.8785L10.4946 17.7461L4.0687 10.8669C3.36232 10.1107 2.97309 9.10755 2.97309 8.03882C2.97309 6.9701 3.35872 5.96696 4.0651 5.21461C4.76787 4.46226 5.70491 4.04558 6.69961 4.04558C7.69791 4.04558 8.63855 4.46226 9.34493 5.21847L10.1594 6.09043C10.3504 6.29491 10.6568 6.29491 10.8478 6.09043L11.6551 5.22619C12.3615 4.46998 13.3021 4.05329 14.2968 4.05329C15.2915 4.05329 16.2285 4.46998 16.9349 5.22233C17.6413 5.97854 18.0269 6.98167 18.0269 8.0504C18.0305 9.11912 17.6413 10.1223 16.9349 10.8785Z" fill="#484848"/>
</svg>
