<svg width="23" height="23" viewBox="0 0 23 23" fill="none" xmlns="http://www.w3.org/2000/svg">
<path d="M22.8376 11.2598C22.8376 17.4729 17.8006 22.5134 11.5777 22.5134C5.36559 22.5134 0.324219 17.4729 0.324219 11.2598C0.324219 5.04664 5.36559 -0.000244833 11.5777 -0.000244833C17.8006 -0.000244833 22.8376 5.04664 22.8376 11.2598Z" fill="white"/>
<path fill-rule="evenodd" clip-rule="evenodd" d="M16.3707 15.358C16.361 15.8979 16.221 16.0519 15.6825 16.0519C14.4212 16.0519 13.1578 16.0519 11.8949 16.0519C10.6433 16.0519 9.38246 16.0519 8.11908 16.0519C7.59033 16.0519 7.44064 15.8979 7.44064 15.358C7.44064 13.9682 7.44626 12.5484 7.42072 11.1387C7.42072 10.7387 7.53056 10.6488 7.89941 10.6647C8.42816 10.6987 8.43837 10.6788 8.3786 11.1947C8.17272 12.9884 9.41005 14.7221 11.172 15.068C12.9882 15.418 14.8043 14.3282 15.3029 12.5844C15.4526 12.0385 15.4966 11.4586 15.3832 10.9187C15.3433 10.7187 15.3929 10.6788 15.5727 10.6788C16.3707 10.6188 16.3707 10.6047 16.3707 11.4346C16.3707 12.7284 16.3707 14.0482 16.3707 15.358ZM11.9108 9.32895C13.1179 9.32895 14.1555 10.3728 14.1356 11.5786C14.1259 12.8144 13.098 13.8382 11.8709 13.8183C10.6535 13.7883 9.62563 12.7624 9.65577 11.5486C9.68541 10.3328 10.7031 9.32895 11.9108 9.32895ZM15.2232 7.09335C16.3707 7.09335 16.3707 7.09335 16.3707 8.24312C16.3707 9.36898 16.3707 9.36898 15.2432 9.36898C14.106 9.36898 14.106 9.36898 14.106 8.22914C14.106 7.09335 14.106 7.09335 15.2232 7.09335ZM16.1612 5.78955C13.3274 5.78955 10.4839 5.78955 7.6501 5.78955C6.63653 5.78955 6.1134 6.31944 6.1134 7.33928C6.1134 8.74505 6.1134 10.1548 6.1134 11.5786C6.1134 12.9884 6.1134 14.4242 6.1134 15.8479C6.1134 16.8278 6.65237 17.3677 7.60004 17.3677C10.464 17.3677 13.3075 17.3677 16.1612 17.3677C17.1492 17.3677 17.6918 16.8278 17.6918 15.8319C17.6918 12.9884 17.6918 10.1548 17.6918 7.30329C17.6918 6.31944 17.1492 5.78955 16.1612 5.78955Z" fill="#212121"/>
</svg>
