<svg width="20" height="20" viewBox="0 0 20 20" fill="none" xmlns="http://www.w3.org/2000/svg">
<g clip-path="url(#clip0)">
<path d="M9.92758 10.7766C9.94829 10.7766 9.969 10.7766 9.99384 10.7766C10.0021 10.7766 10.0104 10.7766 10.0187 10.7766C10.0311 10.7766 10.0477 10.7766 10.0601 10.7766C11.2736 10.7559 12.2552 10.3293 12.98 9.51336C14.5745 7.71588 14.3094 4.6345 14.2804 4.34044C14.1769 2.13295 13.1332 1.07683 12.2717 0.583972C11.6298 0.215366 10.8802 0.0165666 10.0435 0H10.0146C10.0104 0 10.0021 0 9.99799 0H9.97314C9.51341 0 8.61054 0.0745496 7.74493 0.567405C6.87519 1.06026 5.81493 2.11638 5.71138 4.34044C5.68239 4.6345 5.41733 7.71588 7.01186 9.51336C7.73251 10.3293 8.71408 10.7559 9.92758 10.7766ZM6.8172 4.44398C6.8172 4.43156 6.82135 4.41913 6.82135 4.41085C6.95802 1.44129 9.06612 1.12239 9.969 1.12239H9.98556C9.99385 1.12239 10.0063 1.12239 10.0187 1.12239C11.1369 1.14724 13.038 1.60282 13.1663 4.41085C13.1663 4.42328 13.1663 4.4357 13.1705 4.44398C13.1746 4.47298 13.4645 7.28929 12.1475 8.772C11.6257 9.36012 10.9299 9.65003 10.0146 9.65831C10.0063 9.65831 10.0021 9.65831 9.99384 9.65831C9.98556 9.65831 9.98142 9.65831 9.97314 9.65831C9.06198 9.65003 8.36204 9.36012 7.84433 8.772C6.53143 7.29758 6.81306 4.46883 6.8172 4.44398Z" fill="#484848"/>
<path d="M18.5048 15.8874C18.5048 15.8833 18.5048 15.8792 18.5048 15.875C18.5048 15.8419 18.5006 15.8088 18.5006 15.7715C18.4758 14.9514 18.4219 13.0338 16.6244 12.4209C16.612 12.4167 16.5955 12.4126 16.583 12.4085C14.7152 11.9322 13.162 10.8553 13.1455 10.8429C12.8928 10.6648 12.5449 10.727 12.3668 10.9796C12.1887 11.2322 12.2509 11.5801 12.5035 11.7582C12.5739 11.8079 14.2223 12.9552 16.2848 13.4853C17.2498 13.829 17.3575 14.8603 17.3865 15.8046C17.3865 15.8419 17.3865 15.875 17.3907 15.9082C17.3948 16.2809 17.3699 16.8566 17.3037 17.1879C16.6327 17.569 14.0028 18.886 10.002 18.886C6.0177 18.886 3.37119 17.5648 2.6961 17.1838C2.62983 16.8524 2.60084 16.2768 2.60913 15.904C2.60913 15.8709 2.61327 15.8377 2.61327 15.8005C2.64226 14.8562 2.74994 13.8249 3.71494 13.4811C5.77748 12.951 7.42586 11.7996 7.49627 11.7541C7.74891 11.576 7.81103 11.2281 7.63294 10.9754C7.45485 10.7228 7.10695 10.6607 6.85431 10.8388C6.83774 10.8512 5.29291 11.928 3.41675 12.4043C3.40018 12.4085 3.38776 12.4126 3.37533 12.4167C1.57786 13.0338 1.52402 14.9514 1.49917 15.7673C1.49917 15.8046 1.49917 15.8377 1.49502 15.8709C1.49502 15.875 1.49502 15.8792 1.49502 15.8833C1.49088 16.0987 1.48674 17.2045 1.70625 17.7595C1.74766 17.8671 1.82221 17.9583 1.92161 18.0204C2.04586 18.1032 5.0237 20.0001 10.0061 20.0001C14.9885 20.0001 17.9663 18.0991 18.0906 18.0204C18.1858 17.9583 18.2645 17.8671 18.306 17.7595C18.513 17.2086 18.5089 16.1028 18.5048 15.8874Z" fill="#484848"/>
</g>
<defs>
<clipPath id="clip0">
<rect width="20" height="20" fill="white"/>
</clipPath>
</defs>
</svg>
