<svg width="23" height="23" viewBox="0 0 23 23" fill="none" xmlns="http://www.w3.org/2000/svg">
<path d="M11.4188 0C5.21191 0 0.162109 5.0498 0.162109 11.2567C0.162109 17.4632 5.21191 22.5135 11.4188 22.5135C17.6253 22.5135 22.6756 17.4632 22.6756 11.2567C22.6756 5.0498 17.6262 0 11.4188 0ZM16.4405 8.68037C16.4455 8.79192 16.4482 8.90437 16.4482 9.01682C16.4482 12.4406 13.8429 16.3872 9.076 16.3872C7.61279 16.3872 6.2507 15.9597 5.10445 15.2242C5.30713 15.2482 5.51343 15.2605 5.72246 15.2605C6.93674 15.2605 8.05352 14.8461 8.94042 14.1514C7.80686 14.1305 6.84968 13.3815 6.52004 12.3518C6.67783 12.3817 6.84061 12.3985 7.00702 12.3985C7.24325 12.3985 7.47269 12.3676 7.68988 12.3082C6.50462 12.0706 5.61183 11.0237 5.61183 9.76769C5.61183 9.75681 5.61183 9.74547 5.61228 9.73504C5.96142 9.92865 6.36089 10.0456 6.78529 10.0588C6.09065 9.59493 5.63314 8.80144 5.63314 7.90275C5.63314 7.42756 5.76055 6.9823 5.98364 6.59961C7.26094 8.16755 9.17076 9.19864 11.3236 9.30746C11.2792 9.11748 11.257 8.92024 11.257 8.71665C11.257 7.28609 12.4168 6.12578 13.8474 6.12578C14.5928 6.12578 15.2653 6.44045 15.7386 6.94376C16.3294 6.82768 16.8826 6.61276 17.3846 6.31485C17.1896 6.92018 16.7801 7.42756 16.2437 7.74859C16.7684 7.68601 17.2689 7.54727 17.7319 7.34096C17.3864 7.85968 16.947 8.31627 16.4405 8.68037Z" fill="white"/>
</svg>
