<svg width="23" height="23" viewBox="0 0 23 23" fill="none" xmlns="http://www.w3.org/2000/svg">
<path d="M23 11.2568C22.9998 17.4738 17.9602 22.5137 11.743 22.5137C5.52612 22.5137 0.486328 17.4738 0.486328 11.2568C0.486328 5.03988 5.52612 -2.72709e-06 11.743 -2.72709e-06C17.9602 -2.72709e-06 23 5.03988 23 11.2568Z" fill="white"/>
<path d="M10.6917 12.493L13.3111 11.126L10.6912 9.74947L10.6917 12.493ZM11.741 15.9497C11.6072 15.9485 8.45353 15.9186 7.4498 15.8213C7.38491 15.81 7.33244 15.8041 7.27318 15.797C6.9346 15.7561 6.36797 15.6872 5.91077 15.2054C5.49281 14.7793 5.36059 13.9129 5.34702 13.8156C5.34126 13.7691 5.21912 12.7614 5.21912 11.7345V10.7748C5.21912 9.74849 5.34126 8.74052 5.34643 8.69812C5.36059 8.59642 5.49281 7.7301 5.91364 7.30123C6.40483 6.78316 6.95001 6.73022 7.24294 6.70155L7.31798 6.69395C9.07539 6.56554 11.714 6.56407 11.7405 6.56407C11.7726 6.56407 14.4112 6.56554 16.1574 6.69273L16.2431 6.70155C16.5362 6.73022 17.0815 6.78291 17.5753 7.30418C17.9932 7.7301 18.1258 8.59642 18.1395 8.69371C18.1454 8.74052 18.2674 9.74849 18.2674 10.7748V11.7345C18.2674 12.7614 18.1454 13.7688 18.1402 13.8112C18.1258 13.9129 17.9932 14.7793 17.5726 15.2081C17.0825 15.7257 16.5375 15.7791 16.2446 15.8081L16.1689 15.8161C14.4115 15.9443 11.7701 15.9497 11.7437 15.9497H11.741Z" fill="#212121"/>
<path d="M10.9365 12.0887L10.9363 10.155L12.7825 11.1253L10.9365 12.0887ZM10.4464 12.8975L13.839 11.1267L10.446 9.34375L10.4464 12.8975Z" fill="white"/>
</svg>
