<svg width="16" height="16" viewBox="0 0 16 16" fill="none" xmlns="http://www.w3.org/2000/svg">
<path d="M15.726 14.7951L11.9179 10.987C12.8619 9.83616 13.4308 8.36207 13.4308 6.75545C13.4308 3.07022 10.4406 0.0800171 6.75538 0.0800171C3.06693 0.0800171 0.0799561 3.07022 0.0799561 6.75545C0.0799561 10.4407 3.06693 13.4309 6.75538 13.4309C8.36201 13.4309 9.83287 12.8652 10.9837 11.9212L14.7918 15.7261C15.0504 15.9847 15.4674 15.9847 15.726 15.7261C15.9846 15.4707 15.9846 15.0504 15.726 14.7951ZM6.75538 12.1023C3.80397 12.1023 1.40534 9.70362 1.40534 6.75545C1.40534 3.80727 3.80397 1.4054 6.75538 1.4054C9.70356 1.4054 12.1054 3.80727 12.1054 6.75545C12.1054 9.70362 9.70356 12.1023 6.75538 12.1023Z" fill="white"/>
</svg>
