<svg width="81" height="21" viewBox="0 0 81 21" fill="none" xmlns="http://www.w3.org/2000/svg">
<g clip-path="url(#clip0)">
<path d="M9.72 0.000995636H3.4198C2.9886 0.000995636 2.62199 0.305805 2.55472 0.720009L0.00661589 16.4376C-0.0440638 16.7476 0.202878 17.0273 0.526177 17.0273H3.53399C3.96511 17.0273 4.33173 16.7227 4.399 16.3077L5.08622 12.0684C5.15259 11.6534 5.52011 11.3486 5.95033 11.3486H7.94479C12.0949 11.3486 14.4901 9.39478 15.1156 5.52295C15.3975 3.829 15.1276 2.49809 14.3123 1.56599C13.4168 0.542358 11.8286 0.000995636 9.72 0.000995636ZM10.4469 5.74166C10.1023 7.94109 8.37501 7.94109 6.70482 7.94109H5.75414L6.42108 3.83354C6.46074 3.58525 6.68178 3.40242 6.93976 3.40242H7.37545C8.51315 3.40242 9.58643 3.40242 10.141 4.03331C10.4717 4.4098 10.5731 4.96904 10.4469 5.74166Z" fill="#283B82"/>
<path d="M28.5524 5.67093H25.5355C25.2785 5.67093 25.0565 5.85377 25.0168 6.10205L24.8834 6.92302L24.6723 6.62543C24.0192 5.70315 22.5627 5.3949 21.109 5.3949C17.7751 5.3949 14.9276 7.85152 14.3731 11.2976C14.0848 13.0166 14.4947 14.6604 15.497 15.8067C16.4163 16.8606 17.7318 17.2998 19.2971 17.2998C21.9833 17.2998 23.4729 15.6194 23.4729 15.6194L23.3384 16.435C23.2877 16.7469 23.5346 17.0265 23.8562 17.0265H26.5736C27.0057 17.0265 27.3705 16.7218 27.4388 16.3069L29.0693 6.26065C29.121 5.95143 28.8749 5.67093 28.5524 5.67093ZM24.3471 11.3837C24.0561 13.0605 22.688 14.1863 20.9433 14.1863C20.0672 14.1863 19.367 13.9129 18.9174 13.3949C18.4716 12.8804 18.3021 12.1482 18.444 11.3325C18.7157 9.67001 20.1068 8.50763 21.8248 8.50763C22.6816 8.50763 23.378 8.78454 23.8368 9.30698C24.2966 9.83487 24.4788 10.5716 24.3471 11.3837Z" fill="#283B82"/>
<path d="M44.6203 5.67093H41.5886C41.2993 5.67093 41.0275 5.81075 40.8636 6.04472L36.6821 12.0371L34.9098 6.27862C34.7983 5.91828 34.4566 5.67093 34.0697 5.67093H31.0904C30.7283 5.67093 30.4769 6.01507 30.592 6.34669L33.9315 15.8811L30.7919 20.193C30.545 20.5326 30.7937 20.9998 31.2204 20.9998H34.2484C34.5358 20.9998 34.8048 20.8635 34.9678 20.634L45.0514 6.47314C45.2928 6.13428 45.0451 5.67093 44.6203 5.67093Z" fill="#283B82"/>
<path d="M54.658 0.000995636H48.3568C47.9267 0.000995636 47.5599 0.305805 47.4927 0.720009L44.9446 16.4376C44.894 16.7476 45.1408 17.0273 45.4624 17.0273H48.6959C48.9961 17.0273 49.2533 16.8141 49.3002 16.5237L50.0233 12.0684C50.0896 11.6534 50.4573 11.3486 50.8874 11.3486H52.881C57.0319 11.3486 59.4263 9.39478 60.0527 5.52295C60.3356 3.829 60.0638 2.49809 59.2485 1.56599C58.3539 0.542358 56.7667 0.000995636 54.658 0.000995636ZM55.3849 5.74166C55.0412 7.94109 53.3141 7.94109 51.6428 7.94109H50.6931L51.361 3.83354C51.4006 3.58525 51.6198 3.40242 51.8787 3.40242H52.3144C53.4513 3.40242 54.5253 3.40242 55.0799 4.03331C55.4107 4.4098 55.511 4.96904 55.3849 5.74166Z" fill="#469BDB"/>
<path d="M73.4897 5.67093H70.4745C70.2156 5.67093 69.9954 5.85377 69.9567 6.10205L69.8231 6.92302L69.6113 6.62543C68.9582 5.70315 67.5026 5.3949 66.049 5.3949C62.7149 5.3949 59.8686 7.85152 59.3138 11.2976C59.0265 13.0166 59.4346 14.6604 60.4369 15.8067C61.3582 16.8606 62.6717 17.2998 64.2368 17.2998C66.9231 17.2998 68.4127 15.6194 68.4127 15.6194L68.2782 16.435C68.2276 16.7469 68.4744 17.0265 68.7979 17.0265H71.5146C71.9447 17.0265 72.3114 16.7218 72.3787 16.3069L74.0102 6.26065C74.0598 5.95143 73.813 5.67093 73.4897 5.67093ZM69.2842 11.3837C68.9949 13.0605 67.6251 14.1863 65.8804 14.1863C65.0061 14.1863 64.3041 13.9129 63.8545 13.3949C63.4088 12.8804 63.241 12.1482 63.3811 11.3325C63.6546 9.67001 65.0439 8.50763 66.7621 8.50763C67.6187 8.50763 68.3151 8.78454 68.7739 9.30698C69.2354 9.83487 69.4178 10.5716 69.2842 11.3837Z" fill="#469BDB"/>
<path d="M77.0465 0.432219L74.4606 16.4376C74.41 16.7476 74.6568 17.0273 74.9784 17.0273H77.578C78.01 17.0273 78.3768 16.7227 78.4431 16.3077L80.9929 0.590981C81.0436 0.280748 80.7968 0.000249863 80.4753 0.000249863H77.5641C77.3071 0.000997543 77.0861 0.184071 77.0465 0.432219Z" fill="#469BDB"/>
</g>
<defs>
<clipPath id="clip0">
<rect width="81" height="21" fill="white" transform="translate(0 -0.000244141)"/>
</clipPath>
</defs>
</svg>
