<svg width="61" height="20" viewBox="0 0 61 20" fill="none" xmlns="http://www.w3.org/2000/svg">
<path d="M26.3348 19.3848H21.4117L24.491 0.345215H29.4137L26.3348 19.3848Z" fill="#00579F"/>
<path d="M44.1814 0.810591C43.2103 0.425352 41.6702 0 39.7658 0C34.9041 0 31.4806 2.59249 31.4596 6.29897C31.4192 9.03361 33.9107 10.5525 35.7742 11.4643C37.6789 12.396 38.3263 13.0042 38.3263 13.8347C38.3069 15.1102 36.7872 15.6982 35.3698 15.6982C33.4043 15.6982 32.3512 15.395 30.7507 14.6854L30.1025 14.3812L29.4136 18.6552C30.5682 19.1812 32.6955 19.648 34.9041 19.6685C40.0697 19.6685 43.4327 17.1161 43.4725 13.1662C43.4922 10.9988 42.1765 9.33808 39.3401 7.981C37.6183 7.10983 36.5638 6.52242 36.5638 5.63106C36.584 4.82074 37.4557 3.99077 39.3994 3.99077C40.9998 3.95012 42.1757 4.33482 43.0666 4.71979L43.5118 4.92196L44.1814 0.810591Z" fill="#00579F"/>
<path d="M50.7244 12.6398C51.1299 11.546 52.6899 7.31263 52.6899 7.31263C52.6695 7.35329 53.0945 6.19864 53.3376 5.48981L53.6817 7.13038C53.6817 7.13038 54.614 11.6878 54.8164 12.6398C54.047 12.6398 51.6968 12.6398 50.7244 12.6398ZM56.8013 0.345215H52.9933C51.819 0.345215 50.9269 0.689265 50.4202 1.92494L43.1077 19.3845H48.2733C48.2733 19.3845 49.1237 17.0346 49.3065 16.5285C49.8732 16.5285 54.8982 16.5285 55.6273 16.5285C55.7686 17.1969 56.2147 19.3845 56.2147 19.3845H60.7729L56.8013 0.345215Z" fill="#00579F"/>
<path d="M17.2999 0.345215L12.4787 13.3284L11.9518 10.6953C11.0605 7.65695 8.26499 4.3559 5.14539 2.71453L9.5615 19.3646H14.7675L22.5057 0.345215H17.2999Z" fill="#00579F"/>
<path d="M8.00172 0.347168H0.0810318L0 0.731869C6.17864 2.31186 10.2706 6.12037 11.9518 10.698L10.23 1.94762C9.9465 0.731599 9.07533 0.38728 8.00172 0.347168Z" fill="#FAA61A"/>
</svg>
