<svg width="34" height="26" viewBox="0 0 34 26" fill="none" xmlns="http://www.w3.org/2000/svg">
<path d="M32.7348 25.6473V25.7149H32.7972C32.811 25.7149 32.8228 25.7117 32.8314 25.7064C32.8392 25.7012 32.8438 25.692 32.8438 25.6808C32.8438 25.6696 32.8392 25.6611 32.8314 25.6558C32.8228 25.6499 32.811 25.6473 32.7972 25.6473H32.7348ZM32.7979 25.6C32.83 25.6 32.855 25.6072 32.8727 25.6217C32.8905 25.6361 32.899 25.6558 32.899 25.6808C32.899 25.7018 32.8924 25.7189 32.878 25.7327C32.8642 25.7458 32.8445 25.7544 32.8182 25.7576L32.901 25.8529H32.8366L32.7598 25.7583H32.7348V25.8529H32.681V25.6H32.7979ZM32.7814 25.9402C32.811 25.9402 32.8386 25.9343 32.8635 25.9232C32.8892 25.912 32.9115 25.8969 32.9305 25.8778C32.9496 25.8588 32.9647 25.8365 32.9759 25.8102C32.9864 25.7846 32.9923 25.757 32.9923 25.7274C32.9923 25.6979 32.9864 25.6703 32.9759 25.6447C32.9647 25.6191 32.9496 25.5961 32.9305 25.577C32.9115 25.558 32.8892 25.5429 32.8635 25.5317C32.8386 25.5212 32.811 25.5159 32.7814 25.5159C32.7519 25.5159 32.7236 25.5212 32.698 25.5317C32.6718 25.5429 32.6488 25.558 32.6297 25.577C32.6107 25.5961 32.5956 25.6191 32.5851 25.6447C32.5739 25.6703 32.5686 25.6979 32.5686 25.7274C32.5686 25.757 32.5739 25.7846 32.5851 25.8102C32.5956 25.8365 32.6107 25.8588 32.6297 25.8778C32.6488 25.8969 32.6718 25.912 32.698 25.9232C32.7236 25.9343 32.7519 25.9402 32.7814 25.9402ZM32.7814 25.4549C32.8202 25.4549 32.8557 25.4621 32.8898 25.4765C32.9233 25.4903 32.9522 25.51 32.9778 25.535C33.0028 25.5593 33.0225 25.5882 33.0369 25.6217C33.0514 25.6545 33.0586 25.69 33.0586 25.7274C33.0586 25.7649 33.0514 25.8003 33.0369 25.8332C33.0225 25.866 33.0028 25.8949 32.9778 25.9199C32.9522 25.9442 32.9233 25.9639 32.8898 25.9783C32.8557 25.9928 32.8202 26 32.7814 26C32.742 26 32.7059 25.9928 32.6718 25.9783C32.6376 25.9639 32.6081 25.9442 32.5831 25.9199C32.5581 25.8949 32.5384 25.866 32.524 25.8332C32.5095 25.8003 32.5023 25.7649 32.5023 25.7274C32.5023 25.69 32.5095 25.6545 32.524 25.6217C32.5384 25.5882 32.5581 25.5593 32.5831 25.535C32.6081 25.51 32.6376 25.4903 32.6718 25.4765C32.7059 25.4621 32.742 25.4549 32.7814 25.4549ZM7.19193 24.4808C7.19193 23.9987 7.50785 23.6027 8.02409 23.6027C8.51735 23.6027 8.85034 23.9817 8.85034 24.4808C8.85034 24.98 8.51735 25.359 8.02409 25.359C7.50785 25.359 7.19193 24.9629 7.19193 24.4808ZM9.41256 24.4808V23.1094H8.81619V23.4424C8.62703 23.1955 8.34001 23.0405 7.94987 23.0405C7.18076 23.0405 6.57782 23.6434 6.57782 24.4808C6.57782 25.3189 7.18076 25.9212 7.94987 25.9212C8.34001 25.9212 8.62703 25.7662 8.81619 25.5192V25.8522H9.41256V24.4808ZM29.5658 24.4808C29.5658 23.9987 29.8817 23.6027 30.3979 23.6027C30.8918 23.6027 31.2242 23.9817 31.2242 24.4808C31.2242 24.98 30.8918 25.359 30.3979 25.359C29.8817 25.359 29.5658 24.9629 29.5658 24.4808ZM31.7871 24.4808V22.008H31.19V23.4424C31.0009 23.1955 30.7138 23.0405 30.3237 23.0405C29.5546 23.0405 28.9517 23.6434 28.9517 24.4808C28.9517 25.3189 29.5546 25.9212 30.3237 25.9212C30.7138 25.9212 31.0009 25.7662 31.19 25.5192V25.8522H31.7871V24.4808ZM16.8153 23.5744C17.1996 23.5744 17.4465 23.8155 17.5096 24.2398H16.0863C16.15 23.8437 16.3904 23.5744 16.8153 23.5744ZM16.8272 23.0405C16.0232 23.0405 15.461 23.6257 15.461 24.4808C15.461 25.3531 16.0462 25.9212 16.8672 25.9212C17.2803 25.9212 17.6587 25.8181 17.9917 25.537L17.6994 25.0949C17.4695 25.2782 17.1766 25.382 16.9014 25.382C16.5171 25.382 16.1671 25.204 16.081 24.71H18.1178C18.1237 24.6358 18.1296 24.561 18.1296 24.4808C18.1237 23.6257 17.5956 23.0405 16.8272 23.0405ZM24.0283 24.4808C24.0283 23.9987 24.3442 23.6027 24.8605 23.6027C25.3537 23.6027 25.6867 23.9817 25.6867 24.4808C25.6867 24.98 25.3537 25.359 24.8605 25.359C24.3442 25.359 24.0283 24.9629 24.0283 24.4808ZM26.2489 24.4808V23.1094H25.6526V23.4424C25.4627 23.1955 25.1764 23.0405 24.7862 23.0405C24.0171 23.0405 23.4142 23.6434 23.4142 24.4808C23.4142 25.3189 24.0171 25.9212 24.7862 25.9212C25.1764 25.9212 25.4627 25.7662 25.6526 25.5192V25.8522H26.2489V24.4808ZM20.6602 24.4808C20.6602 25.313 21.2395 25.9212 22.1236 25.9212C22.5367 25.9212 22.8119 25.8292 23.1101 25.5941L22.8237 25.112C22.5998 25.2729 22.3646 25.359 22.1058 25.359C21.6297 25.3531 21.2796 25.0089 21.2796 24.4808C21.2796 23.9528 21.6297 23.6086 22.1058 23.6027C22.3646 23.6027 22.5998 23.6887 22.8237 23.8496L23.1101 23.3676C22.8119 23.1324 22.5367 23.0405 22.1236 23.0405C21.2395 23.0405 20.6602 23.6487 20.6602 24.4808ZM28.3494 23.0405C28.0052 23.0405 27.7812 23.2014 27.6262 23.4424V23.1094H27.0351V25.8522H27.6321V24.3147C27.6321 23.8608 27.8272 23.6086 28.2174 23.6086C28.3382 23.6086 28.4643 23.6257 28.5904 23.6776L28.7743 23.1153C28.6423 23.0635 28.4702 23.0405 28.3494 23.0405ZM12.3622 23.3275C12.0752 23.1383 11.6798 23.0405 11.2437 23.0405C10.5488 23.0405 10.1015 23.3735 10.1015 23.9186C10.1015 24.3659 10.4345 24.6417 11.048 24.7278L11.3298 24.7678C11.6568 24.8138 11.8112 24.8999 11.8112 25.0549C11.8112 25.267 11.5931 25.3879 11.1859 25.3879C10.7728 25.3879 10.4746 25.2558 10.2736 25.1008L9.99252 25.5652C10.3196 25.8062 10.7327 25.9212 11.18 25.9212C11.9721 25.9212 12.4312 25.5481 12.4312 25.026C12.4312 24.5439 12.07 24.2917 11.4729 24.2056L11.1918 24.1649C10.9337 24.1308 10.7268 24.0795 10.7268 23.8956C10.7268 23.6946 10.9219 23.5744 11.249 23.5744C11.599 23.5744 11.938 23.7065 12.1041 23.8096L12.3622 23.3275ZM20.0573 23.0405C19.7131 23.0405 19.4892 23.2014 19.3348 23.4424V23.1094H18.7437V25.8522H19.3401V24.3147C19.3401 23.8608 19.5351 23.6086 19.9253 23.6086C20.0461 23.6086 20.1722 23.6257 20.2983 23.6776L20.4822 23.1153C20.3502 23.0635 20.1781 23.0405 20.0573 23.0405ZM14.9678 23.1094H13.9924V22.2773H13.3895V23.1094H12.8332V23.6546H13.3895V24.9058C13.3895 25.5422 13.6364 25.9212 14.3418 25.9212C14.6006 25.9212 14.8988 25.8411 15.088 25.709L14.9159 25.198C14.7379 25.3012 14.5428 25.3531 14.3878 25.3531C14.0896 25.3531 13.9924 25.1692 13.9924 24.894V23.6546H14.9678V23.1094ZM6.05041 25.8522V24.1308C6.05041 23.4825 5.63729 23.0464 4.97129 23.0405C4.62122 23.0346 4.25998 23.1436 4.00712 23.5285C3.81796 23.2244 3.51977 23.0405 3.10073 23.0405C2.8078 23.0405 2.52144 23.1265 2.29747 23.4477V23.1094H1.70044V25.8522H2.30272V24.3317C2.30272 23.8556 2.56676 23.6027 2.97463 23.6027C3.37068 23.6027 3.571 23.8608 3.571 24.3258V25.8522H4.17394V24.3317C4.17394 23.8556 4.44914 23.6027 4.84519 23.6027C5.2524 23.6027 5.44747 23.8608 5.44747 24.3258V25.8522H6.05041Z" fill="white"/>
<path d="M33.1026 16.7305V16.3298H32.9981L32.8773 16.605L32.7571 16.3298H32.652V16.7305H32.7262V16.4283L32.8392 16.6891H32.916L33.029 16.4277V16.7305H33.1026ZM32.4398 16.7305V16.3981H32.5738V16.3305H32.2323V16.3981H32.3663V16.7305H32.4398Z" fill="#F79410"/>
<path d="M21.2277 18.4539H12.1891V2.20996H21.2277V18.4539Z" fill="#FF5F00"/>
<path d="M12.7682 10.3308C12.7682 7.03568 14.311 4.10045 16.7135 2.20887C14.9566 0.825657 12.7393 6.2808e-05 10.3295 6.2808e-05C4.62452 6.2808e-05 0 4.62524 0 10.3308C0 16.0364 4.62452 20.6616 10.3295 20.6616C12.7393 20.6616 14.9566 19.836 16.7135 18.4528C14.311 16.5612 12.7682 13.626 12.7682 10.3308Z" fill="#EB001B"/>
<path d="M33.4178 10.3308C33.4178 16.0364 28.7933 20.6616 23.0883 20.6616C20.6786 20.6616 18.4612 19.836 16.7036 18.4528C19.1068 16.5612 20.6497 13.626 20.6497 10.3308C20.6497 7.03568 19.1068 4.10045 16.7036 2.20887C18.4612 0.825657 20.6786 6.2808e-05 23.0883 6.2808e-05C28.7933 6.2808e-05 33.4178 4.62524 33.4178 10.3308Z" fill="#F79E1B"/>
</svg>
