<svg width="23" height="23" viewBox="0 0 23 23" fill="none" xmlns="http://www.w3.org/2000/svg">
<path d="M23 11.2571C22.9998 17.474 17.9602 22.5139 11.743 22.5139C5.52612 22.5139 0.486328 17.474 0.486328 11.2571C0.486328 5.04012 5.52612 0.000241414 11.743 0.000241414C17.9602 0.000241414 23 5.04012 23 11.2571Z" fill="#070707"/>
<path d="M10.6913 12.4934L13.3107 11.1264L10.6908 9.74987L10.6913 12.4934ZM11.7406 15.95C11.6068 15.9488 8.45315 15.9189 7.44943 15.8216C7.38453 15.8103 7.33206 15.8044 7.27281 15.7973C6.93422 15.7564 6.3676 15.6875 5.9104 15.2057C5.49244 14.7796 5.36023 13.9133 5.34665 13.816C5.34089 13.7694 5.21875 12.7617 5.21875 11.7349V10.7752C5.21875 9.74888 5.34089 8.74093 5.34606 8.69854C5.36023 8.59683 5.49244 7.73053 5.91327 7.30166C6.40446 6.7836 6.94964 6.73066 7.24257 6.70199L7.3176 6.69439C9.07501 6.56598 11.7136 6.56451 11.7401 6.56451C11.7722 6.56451 14.4108 6.56598 16.1569 6.69317L16.2427 6.70199C16.5358 6.73066 17.0811 6.78335 17.5749 7.30461C17.9927 7.73053 18.1253 8.59683 18.139 8.69413C18.1449 8.74093 18.267 9.74888 18.267 10.7752V11.7349C18.267 12.7617 18.1449 13.7692 18.1398 13.8116C18.1253 13.9133 17.9927 14.7796 17.5722 15.2084C17.0821 15.726 16.537 15.7794 16.2442 15.8084L16.1685 15.8165C14.4111 15.9446 11.7697 15.95 11.7433 15.95H11.7406Z" fill="white"/>
<path d="M10.9357 12.0889L10.9355 10.1552L12.7818 11.1254L10.9357 12.0889ZM10.4457 12.8976L13.8383 11.1269L10.4453 9.34393L10.4457 12.8976Z" fill="black"/>
</svg>
