<svg width="23" height="23" viewBox="0 0 23 23" fill="none" xmlns="http://www.w3.org/2000/svg">
<path d="M11.4188 0.000244141C5.21191 0.000244141 0.162109 5.05004 0.162109 11.257C0.162109 17.4635 5.21191 22.5137 11.4188 22.5137C17.6253 22.5137 22.6756 17.4635 22.6756 11.257C22.6756 5.05004 17.6262 0.000244141 11.4188 0.000244141ZM16.4405 8.68062C16.4455 8.79216 16.4482 8.90461 16.4482 9.01706C16.4482 12.4409 13.8429 16.3875 9.076 16.3875C7.61279 16.3875 6.2507 15.9599 5.10445 15.2245C5.30713 15.2485 5.51343 15.2607 5.72246 15.2607C6.93674 15.2607 8.05352 14.8463 8.94042 14.1516C7.80686 14.1308 6.84968 13.3817 6.52004 12.352C6.67783 12.3819 6.84061 12.3987 7.00702 12.3987C7.24325 12.3987 7.47269 12.3679 7.68988 12.3085C6.50462 12.0709 5.61183 11.0239 5.61183 9.76793C5.61183 9.75705 5.61183 9.74572 5.61228 9.73529C5.96142 9.9289 6.36089 10.0459 6.78529 10.059C6.09065 9.59518 5.63314 8.80168 5.63314 7.903C5.63314 7.4278 5.76055 6.98254 5.98364 6.59985C7.26094 8.1678 9.17076 9.19888 11.3236 9.30771C11.2792 9.11772 11.257 8.92048 11.257 8.71689C11.257 7.28634 12.4168 6.12602 13.8474 6.12602C14.5928 6.12602 15.2653 6.4407 15.7386 6.944C16.3294 6.82792 16.8826 6.613 17.3846 6.3151C17.1896 6.92042 16.7801 7.4278 16.2437 7.74883C16.7684 7.68626 17.2689 7.54751 17.7319 7.3412C17.3864 7.85992 16.947 8.31652 16.4405 8.68062Z" fill="black"/>
</svg>
