<svg width="23" height="23" viewBox="0 0 23 23" fill="none" xmlns="http://www.w3.org/2000/svg">
<path d="M22.8376 11.26C22.8376 17.4731 17.8006 22.5137 11.5777 22.5137C5.36559 22.5137 0.324219 17.4731 0.324219 11.26C0.324219 5.04689 5.36559 -6.92586e-07 11.5777 -6.92586e-07C17.8006 -6.92586e-07 22.8376 5.04689 22.8376 11.26Z" fill="black"/>
<path fill-rule="evenodd" clip-rule="evenodd" d="M16.3705 15.3582C16.3608 15.8981 16.2209 16.0521 15.6824 16.0521C14.4211 16.0521 13.1577 16.0521 11.8948 16.0521C10.6432 16.0521 9.38234 16.0521 8.11896 16.0521C7.59021 16.0521 7.44052 15.8981 7.44052 15.3582C7.44052 13.9684 7.44614 12.5486 7.42059 11.1389C7.42059 10.7389 7.53044 10.649 7.89929 10.6649C8.42804 10.6989 8.43825 10.679 8.37848 11.1949C8.1726 12.9886 9.40992 14.7223 11.1719 15.0682C12.9881 15.4182 14.8042 14.3284 15.3028 12.5846C15.4525 12.0387 15.4964 11.4588 15.383 10.9189C15.3432 10.7189 15.3927 10.679 15.5726 10.679C16.3705 10.619 16.3705 10.6049 16.3705 11.4348C16.3705 12.7286 16.3705 14.0484 16.3705 15.3582ZM11.9106 9.32913C13.1178 9.32913 14.1554 10.373 14.1355 11.5788C14.1258 12.8146 13.0979 13.8384 11.8708 13.8184C10.6534 13.7884 9.62551 12.7626 9.65565 11.5488C9.68528 10.333 10.7029 9.32913 11.9106 9.32913ZM15.2231 7.09353C16.3705 7.09353 16.3705 7.09354 16.3705 8.2433C16.3705 9.36916 16.3705 9.36916 15.243 9.36916C14.1059 9.36916 14.1059 9.36916 14.1059 8.22933C14.1059 7.09354 14.1059 7.09353 15.2231 7.09353ZM16.1611 5.78973C13.3273 5.78973 10.4838 5.78973 7.64998 5.78973C6.63641 5.78973 6.11328 6.31962 6.11328 7.33946C6.11328 8.74523 6.11328 10.155 6.11328 11.5788C6.11328 12.9886 6.11328 14.4243 6.11328 15.8481C6.11328 16.8279 6.65225 17.3679 7.59992 17.3679C10.4639 17.3679 13.3074 17.3679 16.1611 17.3679C17.1491 17.3679 17.6917 16.8279 17.6917 15.8321C17.6917 12.9886 17.6917 10.155 17.6917 7.30347C17.6917 6.31962 17.1491 5.78973 16.1611 5.78973Z" fill="#FEFEFE"/>
</svg>
