<svg width="134" height="52" viewBox="0 0 134 52" fill="none" xmlns="http://www.w3.org/2000/svg">
<g clip-path="url(#clip0)">
<path d="M13.655 34.151C18.6052 34.151 22.3584 33.1236 24.9145 31.0689C27.4706 29.0142 28.7487 25.9488 28.7487 21.8728V0.29834H4.37419V6.46247H19.1053V22.285C19.1053 25.9604 17.1292 27.7981 13.1768 27.7981C10.2632 27.7981 7.66841 26.5781 5.39258 24.1381L-0.00769043 29.2697C1.63506 30.9003 3.63418 32.1281 5.83237 32.8565C8.34668 33.7314 10.9925 34.1692 13.655 34.151V34.151Z" fill="#3A3A3C"/>
<path d="M50.6006 0.317627L31.9155 33.577H41.8559L45.5706 26.4497H65.0348L68.7493 33.577H78.9289L60.186 0.317627H50.6006ZM48.672 20.6053L55.3181 7.87253L61.9643 20.6053H48.672Z" fill="#3A3A3C"/>
<path d="M114.979 6.49331V0.317627H83.2992V33.5769H93.0004V21.4606H112.403V15.2849H93.0004V6.49331H114.979Z" fill="#3A3A3C"/>
<path d="M131.269 0.317627H121.568V33.577H131.269V0.317627Z" fill="#3A3A3C"/>
<path d="M77.7986 43.2855C77.6778 43.2786 77.557 43.2974 77.444 43.3405C77.3309 43.3837 77.2282 43.4503 77.1428 43.536C76.9774 43.7248 76.8857 43.9669 76.8844 44.2179H78.6202C78.6299 43.9694 78.5552 43.725 78.4081 43.5244C78.3313 43.441 78.2365 43.3762 78.1309 43.3349C78.0253 43.2935 77.9117 43.2766 77.7986 43.2855V43.2855Z" fill="#3A3A3C"/>
<path d="M28.5519 45.1307C28.4367 45.1676 28.3348 45.2372 28.2587 45.3311C28.1847 45.434 28.148 45.5589 28.1545 45.6855C28.1447 45.7679 28.1555 45.8514 28.1858 45.9287C28.216 46.006 28.265 46.0746 28.3282 46.1285C28.4835 46.2184 28.6621 46.26 28.8412 46.2479C28.9743 46.2467 29.1056 46.2178 29.2269 46.1632C29.3603 46.1048 29.4818 46.0225 29.5856 45.9205V44.9612L28.9955 45.0267C28.8441 45.0443 28.6953 45.0792 28.5519 45.1307V45.1307Z" fill="#3A3A3C"/>
<path d="M122.563 43.2855C122.442 43.2786 122.321 43.2974 122.208 43.3405C122.095 43.3837 121.993 43.4503 121.907 43.536C121.742 43.7248 121.65 43.9669 121.649 44.2179H123.385C123.394 43.9694 123.319 43.725 123.172 43.5244C123.096 43.441 123.001 43.3762 122.895 43.3349C122.79 43.2935 122.676 43.2766 122.563 43.2855Z" fill="#3A3A3C"/>
<path d="M2.19482 37.5952V52.0039H134V37.5952H2.19482ZM11.5681 42.1875H9.00299V43.3433H11.3598V44.4991H9.00299V47.1381H7.46005V41.0394H11.5489L11.5681 42.1875ZM16.1622 46.6141C15.6731 47.0319 15.0508 47.2615 14.4072 47.2615C13.7636 47.2615 13.1411 47.0319 12.652 46.6141C12.2471 46.1046 12.0267 45.4732 12.0267 44.8227C12.0267 44.1721 12.2471 43.5407 12.652 43.0312C13.1411 42.6134 13.7636 42.3838 14.4072 42.3838C15.0508 42.3838 15.6731 42.6134 16.1622 43.0312C16.5649 43.541 16.784 44.1714 16.784 44.8207C16.784 45.4701 16.5649 46.1005 16.1622 46.6103V46.6141ZM20.7255 43.8788H20.6059C20.5281 43.8556 20.4478 43.8414 20.3667 43.8364C20.2638 43.8364 20.1495 43.8364 20.0235 43.8364C19.8632 43.8377 19.7037 43.8597 19.5491 43.9019C19.3856 43.9443 19.2246 43.9957 19.0669 44.056V47.1381H17.6242V42.515H19.0592V43.1737C19.1235 43.1147 19.2147 43.0389 19.333 42.9465C19.433 42.8657 19.5386 42.7923 19.6493 42.7269C19.7636 42.6594 19.8852 42.605 20.0118 42.5651C20.1362 42.5233 20.2664 42.5012 20.3976 42.4995H20.5518H20.7063L20.7255 43.8788ZM25.8519 47.2036C25.8645 47.427 25.8298 47.6506 25.75 47.8597C25.6702 48.0688 25.5472 48.2587 25.3889 48.4171C25.0623 48.7147 24.6311 48.8712 24.1894 48.8524C23.951 48.8536 23.7128 48.842 23.4757 48.8178C23.3188 48.8028 23.1629 48.7784 23.009 48.7446V47.689H23.1209C23.2217 47.7213 23.3248 47.7457 23.4294 47.7622C23.5199 47.7779 23.6114 47.7869 23.7032 47.7891C23.8114 47.802 23.9212 47.7851 24.0204 47.7403C24.1197 47.6955 24.2048 47.6245 24.2666 47.5349C24.3854 47.273 24.4369 46.9857 24.4169 46.6989V43.5205H23.5876V42.515H25.8519V47.2036ZM25.8519 41.8639H24.309V40.7466H25.8519V41.8639ZM31.0015 47.1188H29.5819V46.6295L29.3158 46.8491C29.2196 46.9265 29.1147 46.9925 29.0033 47.0456C28.8797 47.1056 28.7505 47.1534 28.6176 47.1881C28.4506 47.2259 28.2796 47.2427 28.1085 47.2382C27.9203 47.2437 27.7331 47.2102 27.5585 47.1399C27.3839 47.0697 27.2256 46.9641 27.0939 46.8298C26.9634 46.6924 26.8622 46.5302 26.7959 46.3528C26.7296 46.1754 26.6997 45.9865 26.7081 45.7974C26.6945 45.5073 26.7656 45.2195 26.9127 44.9691C27.0586 44.7503 27.263 44.5768 27.5028 44.4682C27.7971 44.333 28.1108 44.2447 28.4324 44.2063C28.7925 44.1575 29.1782 44.1189 29.5896 44.0907V44.056C29.6001 43.9501 29.5789 43.8435 29.5288 43.7496C29.4787 43.6556 29.4019 43.5786 29.3081 43.5282C29.0414 43.4155 28.7524 43.3655 28.4633 43.3818C28.2621 43.3867 28.0624 43.4178 27.8693 43.4743C27.6425 43.5357 27.4206 43.6142 27.2057 43.7093H27.0824V42.5997C27.2238 42.5586 27.454 42.5098 27.7728 42.4533C28.0899 42.397 28.4112 42.3687 28.7332 42.3686C29.3363 42.3187 29.9404 42.4531 30.4653 42.7538C30.6488 42.8942 30.7945 43.0778 30.8894 43.2883C30.9843 43.4987 31.0255 43.7294 31.0092 43.9597L31.0015 47.1188ZM35.0517 47.1188L33.8058 45.1155L33.5858 45.416V47.1381H32.151V40.762H33.5858V44.3334L34.9475 42.5342H36.6408L35.0285 44.5183L36.7604 47.1342L35.0517 47.1188ZM40.1973 43.5166H38.8395V45.1463C38.8395 45.3081 38.8395 45.4468 38.8395 45.5701C38.8403 45.6812 38.8626 45.791 38.9051 45.8937C38.9449 45.9907 39.0172 46.071 39.1096 46.121C39.2416 46.1847 39.3874 46.2139 39.5338 46.2057C39.6357 46.2014 39.7369 46.1845 39.8347 46.1556C39.9239 46.1357 40.0106 46.106 40.0932 46.067H40.2165V47.0803C40.0528 47.1227 39.8866 47.1549 39.7189 47.1766C39.5052 47.202 39.29 47.2136 39.0748 47.2112C38.6192 47.2501 38.1651 47.1213 37.798 46.8491C37.6554 46.69 37.5476 46.5031 37.4812 46.3002C37.4148 46.0972 37.3913 45.8827 37.4122 45.6702V43.5205H36.8645V42.515H37.4122V41.2012H38.8395V42.515H40.2205L40.1973 43.5166ZM43.4875 44.996H40.7682V43.8402H43.4875V44.996ZM50.9169 46.6064C50.4278 47.0242 49.8052 47.2538 49.1617 47.2538C48.5181 47.2538 47.8957 47.0242 47.4067 46.6064C47.0018 46.0969 46.7813 45.4655 46.7813 44.8149C46.7813 44.1644 47.0018 43.533 47.4067 43.0235C47.8957 42.6057 48.5181 42.3761 49.1617 42.3761C49.8052 42.3761 50.4278 42.6057 50.9169 43.0235C51.3195 43.5333 51.5384 44.1637 51.5384 44.813C51.5384 45.4623 51.3195 46.0927 50.9169 46.6025V46.6064ZM56.5718 46.6064C56.5816 46.9771 56.5187 47.3462 56.3866 47.6928C56.2822 47.9654 56.1079 48.2059 55.8813 48.3901C55.6552 48.5729 55.3919 48.7044 55.1098 48.7754C54.7852 48.8531 54.4522 48.8906 54.1184 48.8871C53.8268 48.8888 53.5355 48.8695 53.2467 48.8293C53.0053 48.7957 52.7659 48.7494 52.5293 48.6907V47.5349H52.699L52.9497 47.6235L53.2428 47.7121C53.361 47.7429 53.4755 47.7673 53.5861 47.7853C53.9035 47.8361 54.228 47.8204 54.539 47.7391C54.6855 47.7053 54.8193 47.6304 54.9247 47.5233C55.0085 47.4255 55.0679 47.3094 55.0982 47.1843C55.1347 47.0238 55.1515 46.8595 55.1483 46.695V46.6103C54.9826 46.7553 54.7936 46.8713 54.5891 46.9531C54.3808 47.0377 54.158 47.0809 53.9332 47.0803C53.6738 47.0953 53.4144 47.0508 53.175 46.9499C52.9355 46.849 52.7225 46.6946 52.5523 46.4985C52.1899 45.9832 52.0182 45.3581 52.0663 44.7302C52.0616 44.4004 52.1125 44.0722 52.2168 43.7593C52.3067 43.4906 52.448 43.2419 52.6333 43.0273C52.8018 42.8346 53.0115 42.682 53.2467 42.5805C53.4836 42.4759 53.7398 42.422 53.9988 42.4225C54.213 42.4188 54.4265 42.4486 54.6314 42.5111C54.8114 42.5684 54.9827 42.6501 55.1405 42.7538L55.1946 42.5496H56.5833L56.5718 46.6064ZM63.2449 41.8408H63.1407L62.8823 41.7753C62.7735 41.7502 62.6623 41.7373 62.5507 41.7367C62.3397 41.7118 62.1272 41.7684 61.9566 41.8947C61.8316 42.0673 61.7752 42.2801 61.7984 42.4918V42.5304H62.9556V43.5282H61.8639V47.1381H60.4406V43.5359H59.8658V42.515H60.4406V42.3878C60.4228 42.1574 60.4532 41.9258 60.5295 41.7077C60.6059 41.4895 60.7265 41.2895 60.8842 41.1203C61.2597 40.8106 61.741 40.6587 62.2265 40.6966C62.4348 40.6966 62.6291 40.7042 62.8091 40.7197C62.9655 40.731 63.1213 40.7503 63.2758 40.7774L63.2449 41.8408ZM65.0308 47.1342H63.596V42.515H65.0308V47.1342ZM65.0732 41.8793H63.5574V40.762H65.0732V41.8793ZM69.702 46.3136C69.5994 46.51 69.4514 46.6791 69.2701 46.8067C69.0598 46.9577 68.8248 47.0711 68.5757 47.1419C68.2641 47.227 67.942 47.2672 67.6191 47.2613C67.2956 47.2626 66.9732 47.2252 66.6587 47.1496C66.4006 47.0911 66.1496 47.0046 65.9104 46.8915V45.6779H66.03L66.2652 45.8513C66.3803 45.9291 66.503 45.995 66.6316 46.0478C66.7769 46.115 66.9281 46.1691 67.083 46.2096C67.2618 46.2566 67.4459 46.2799 67.6307 46.2789C67.8138 46.2831 67.9957 46.2517 68.1668 46.1865C68.2327 46.1681 68.291 46.1289 68.3327 46.0747C68.3744 46.0206 68.3974 45.9543 68.3982 45.886C68.4013 45.8398 68.3931 45.7936 68.3743 45.7513C68.3555 45.709 68.3267 45.6719 68.2903 45.6433C68.1634 45.567 68.0234 45.5147 67.8775 45.4891L67.4648 45.4005C67.3149 45.3737 67.1668 45.3377 67.0212 45.2927C66.7072 45.21 66.4243 45.0372 66.2074 44.7957C66.0161 44.5484 65.919 44.2411 65.9335 43.9289C65.9335 43.7275 65.9823 43.5292 66.0761 43.351C66.1778 43.1607 66.32 42.995 66.4927 42.8656C66.6976 42.7158 66.9276 42.6036 67.1717 42.5342C67.4687 42.4483 67.7766 42.4067 68.0858 42.4109C68.3855 42.4084 68.6846 42.4407 68.9768 42.5073C69.2134 42.5594 69.4437 42.6369 69.6636 42.7384V43.8942H69.5477C69.472 43.8388 69.3935 43.7874 69.3125 43.7401C69.2116 43.679 69.1072 43.6236 69 43.5744C68.8759 43.5177 68.7467 43.4726 68.6143 43.4396C68.4639 43.4036 68.3099 43.3854 68.1553 43.3857C67.9732 43.3804 67.7922 43.4173 67.6268 43.4935C67.567 43.5139 67.5147 43.5515 67.4763 43.6015C67.4379 43.6516 67.415 43.7118 67.4107 43.7748C67.4086 43.8214 67.4173 43.8679 67.436 43.9106C67.4547 43.9534 67.4831 43.9913 67.5189 44.0213C67.6598 44.1105 67.8171 44.1707 67.9816 44.1985C68.1051 44.2294 68.2465 44.2589 68.406 44.2871C68.5629 44.3143 68.7177 44.353 68.8689 44.4027C69.1666 44.4807 69.4348 44.6441 69.6404 44.8727C69.8198 45.1076 69.9099 45.3983 69.8948 45.6933C69.886 45.9076 69.8252 46.1165 69.7174 46.302L69.702 46.3136ZM73.5556 47.1381L72.3096 45.1347L72.0898 45.4352V47.1381H70.6548V40.762H72.0898V44.3334L73.4514 42.5342H75.1448L73.5324 44.5183L75.2644 47.1342L73.5556 47.1381ZM80.0475 45.1116H76.8998C76.9063 45.2976 76.9524 45.4802 77.0349 45.6471C77.1063 45.785 77.2111 45.9028 77.3396 45.99C77.4706 46.0776 77.6173 46.1391 77.7717 46.1711C77.9479 46.2087 78.1276 46.2268 78.3077 46.225C78.4738 46.2257 78.6396 46.2076 78.8016 46.1711C78.9539 46.1371 79.1025 46.0881 79.2451 46.0247C79.3578 45.975 79.4674 45.9184 79.573 45.8552C79.6733 45.7961 79.7543 45.7421 79.816 45.6933H79.9665V46.8761L79.6463 47.0032C79.5206 47.0518 79.3917 47.0917 79.2606 47.1226C79.1019 47.1642 78.9409 47.1963 78.7784 47.2189C78.5776 47.2443 78.3753 47.2559 78.1729 47.2537C77.4522 47.3017 76.7395 47.0791 76.1747 46.6295C75.937 46.4023 75.7518 46.126 75.6319 45.8199C75.512 45.5139 75.4603 45.1854 75.4805 44.8573C75.4642 44.5295 75.5129 44.2018 75.6242 43.893C75.7354 43.5842 75.9067 43.3005 76.1284 43.0582C76.3675 42.827 76.6521 42.648 76.9642 42.5326C77.2764 42.4171 77.6092 42.3679 77.9414 42.3878C78.2321 42.3658 78.5243 42.4051 78.7987 42.5033C79.0732 42.6016 79.3239 42.7565 79.5344 42.958C79.9144 43.413 80.1049 43.9964 80.0667 44.5877L80.0475 45.1116ZM85.1198 45.1116H81.9722C81.9787 45.2976 82.0248 45.4802 82.1072 45.6471C82.1787 45.785 82.2834 45.9028 82.412 45.99C82.543 46.0776 82.6897 46.1391 82.844 46.1711C83.0202 46.2087 83.2001 46.2268 83.3803 46.225C83.5464 46.2257 83.7119 46.2076 83.8739 46.1711C84.0263 46.1371 84.1749 46.0881 84.3175 46.0247C84.4302 45.975 84.5397 45.9184 84.6454 45.8552C84.7457 45.7961 84.8266 45.7421 84.8884 45.6933H85.0389V46.8761L84.7187 47.0032C84.593 47.0518 84.4641 47.0917 84.3329 47.1226C84.1742 47.1642 84.0132 47.1963 83.8508 47.2189C83.6499 47.2443 83.4477 47.2559 83.2452 47.2537C82.5246 47.3017 81.8119 47.0791 81.2471 46.6295C81.0093 46.4023 80.8242 46.126 80.7042 45.8199C80.5843 45.5139 80.5327 45.1854 80.5528 44.8573C80.5365 44.5295 80.5853 44.2018 80.6965 43.893C80.8078 43.5842 80.9791 43.3005 81.2007 43.0582C81.4398 42.827 81.7245 42.648 82.0366 42.5326C82.3487 42.4171 82.6815 42.3679 83.0138 42.3878C83.3045 42.3658 83.5966 42.4051 83.8711 42.5033C84.1456 42.6016 84.3963 42.7565 84.6068 42.958C84.9868 43.413 85.1773 43.9964 85.1391 44.5877L85.1198 45.1116ZM90.2577 47.1381H88.8152V44.8265C88.8152 44.6416 88.8075 44.4567 88.792 44.2718C88.7867 44.1319 88.758 43.9938 88.7071 43.8634C88.6645 43.7665 88.5896 43.6875 88.495 43.6399C88.3735 43.5875 88.2415 43.5637 88.1093 43.5706C87.9868 43.5712 87.8653 43.5933 87.7505 43.6361C87.6134 43.6884 87.4837 43.7583 87.3647 43.8441V47.1381H85.9299V42.515H87.3647V43.0235C87.5745 42.8417 87.805 42.6852 88.0515 42.5573C88.2814 42.443 88.5352 42.3849 88.792 42.3878C88.994 42.3745 89.1962 42.4076 89.3834 42.4843C89.5706 42.5611 89.7377 42.6796 89.872 42.8309C90.1485 43.2009 90.2852 43.6567 90.2577 44.1177V47.1381ZM94.3079 43.5359H92.9272V45.1655C92.9272 45.3273 92.9272 45.466 92.9272 45.5893C92.928 45.7004 92.9502 45.8103 92.9927 45.9129C93.0326 46.01 93.1047 46.0903 93.1971 46.1403C93.329 46.204 93.4751 46.2331 93.6214 46.225C93.7234 46.2206 93.8243 46.2038 93.9222 46.1749C94.0114 46.155 94.0982 46.1253 94.1808 46.0863H94.3042V47.0995C94.1405 47.142 93.9743 47.1742 93.8066 47.1959C93.5928 47.2213 93.3777 47.2329 93.1624 47.2305C92.7069 47.2694 92.2528 47.1406 91.8856 46.8684C91.7431 46.7093 91.6352 46.5223 91.5688 46.3194C91.5024 46.1164 91.4789 45.902 91.4999 45.6895V43.5398H90.9136V42.515H91.4613V41.2012H92.8963V42.515H94.2772L94.3079 43.5359ZM99.2569 47.1381H97.8221V46.6295C97.6108 46.8115 97.3805 46.9703 97.1354 47.1034C96.9052 47.2162 96.6511 47.2717 96.3948 47.2652C96.1959 47.2762 95.997 47.2433 95.8123 47.1687C95.6276 47.0941 95.4617 46.9797 95.3263 46.8337C95.0438 46.4608 94.9067 45.998 94.9406 45.5315V42.515H96.3833V44.7957C96.3833 45.032 96.3833 45.2259 96.3833 45.3775C96.391 45.5099 96.421 45.6402 96.472 45.7627C96.5141 45.8555 96.586 45.9314 96.6764 45.9784C96.7972 46.0335 96.9295 46.0586 97.0621 46.0517C97.185 46.0475 97.3063 46.0227 97.4209 45.9784C97.5583 45.9302 97.6882 45.8627 97.8067 45.7781V42.515H99.2415L99.2569 47.1381ZM103.928 46.3175C103.826 46.5139 103.678 46.6829 103.496 46.8106C103.286 46.9616 103.051 47.075 102.802 47.1458C102.49 47.2308 102.168 47.271 101.845 47.2652C101.522 47.2665 101.199 47.229 100.885 47.1535C100.627 47.095 100.376 47.0084 100.137 46.8953V45.6818H100.256L100.491 45.8552C100.606 45.933 100.729 45.9988 100.858 46.0517C101.003 46.1189 101.154 46.173 101.309 46.2134C101.488 46.2605 101.672 46.2838 101.857 46.2828C102.04 46.287 102.222 46.2556 102.393 46.1903C102.459 46.172 102.517 46.1328 102.559 46.0786C102.601 46.0244 102.624 45.9582 102.624 45.8898C102.627 45.8437 102.619 45.7974 102.6 45.7551C102.582 45.7129 102.553 45.6758 102.516 45.6471C102.39 45.5708 102.25 45.5186 102.104 45.493L101.691 45.4044C101.541 45.3776 101.393 45.3415 101.247 45.2965C100.933 45.2138 100.65 45.0411 100.434 44.7996C100.242 44.5522 100.145 44.245 100.16 43.9327C100.16 43.7314 100.208 43.5331 100.302 43.3548C100.404 43.1646 100.546 42.9989 100.719 42.8694C100.924 42.7197 101.154 42.6075 101.398 42.5381C101.695 42.4521 102.003 42.4105 102.312 42.4148C102.612 42.4122 102.911 42.4445 103.203 42.5111C103.44 42.5632 103.67 42.6407 103.89 42.7423V43.898H103.774C103.698 43.8426 103.62 43.7912 103.539 43.7439C103.438 43.6828 103.333 43.6275 103.226 43.5783C103.102 43.5216 102.973 43.4764 102.84 43.4435C102.69 43.4074 102.536 43.3893 102.381 43.3895C102.199 43.3842 102.018 43.4212 101.853 43.4974C101.793 43.5178 101.741 43.5553 101.702 43.6054C101.664 43.6554 101.641 43.7157 101.637 43.7786C101.635 43.8252 101.643 43.8717 101.662 43.9145C101.681 43.9572 101.709 43.9951 101.745 44.0252C101.886 44.1144 102.043 44.1746 102.208 44.2024C102.331 44.2332 102.473 44.2627 102.632 44.291C102.789 44.3182 102.944 44.3569 103.095 44.4066C103.393 44.4846 103.661 44.648 103.867 44.8766C104.046 45.1114 104.136 45.4022 104.121 45.6972C104.104 45.9125 104.033 46.1201 103.917 46.302L103.928 46.3175ZM106.285 47.1381H104.85V42.515H106.285V47.1381ZM106.327 41.8831H104.8V40.7659H106.316L106.327 41.8831ZM111.438 47.1381H110.011V46.6488L109.745 46.8684C109.649 46.9458 109.544 47.0117 109.433 47.0649C109.309 47.1249 109.18 47.1727 109.047 47.2074C108.88 47.2452 108.709 47.262 108.538 47.2575C108.35 47.263 108.162 47.2295 107.988 47.1592C107.813 47.0889 107.655 46.9833 107.523 46.8491C107.393 46.7117 107.291 46.5494 107.225 46.3721C107.159 46.1947 107.129 46.0058 107.138 45.8166C107.124 45.5266 107.195 45.2388 107.342 44.9883C107.488 44.7696 107.692 44.596 107.932 44.4875C108.226 44.3523 108.54 44.2639 108.862 44.2255C109.222 44.1767 109.607 44.1382 110.019 44.1099V44.056C110.029 43.9501 110.008 43.8435 109.958 43.7496C109.908 43.6556 109.831 43.5786 109.737 43.5282C109.471 43.4155 109.182 43.3655 108.893 43.3818C108.691 43.3867 108.492 43.4178 108.299 43.4743C108.072 43.5357 107.85 43.6142 107.635 43.7093H107.5V42.5997C107.642 42.5586 107.872 42.5098 108.191 42.4533C108.508 42.397 108.829 42.3687 109.151 42.3686C109.754 42.3187 110.358 42.4531 110.883 42.7538C111.066 42.8942 111.212 43.0778 111.307 43.2883C111.402 43.4987 111.443 43.7294 111.427 43.9597L111.438 47.1381ZM116.067 46.3175C115.965 46.5139 115.816 46.6829 115.635 46.8106C115.425 46.9616 115.19 47.075 114.941 47.1458C114.629 47.2308 114.307 47.271 113.984 47.2652C113.661 47.2665 113.338 47.229 113.024 47.1535C112.766 47.095 112.515 47.0084 112.275 46.8953V45.6818H112.395L112.63 45.8552C112.745 45.933 112.868 45.9988 112.997 46.0517C113.142 46.1189 113.293 46.173 113.448 46.2134C113.627 46.2605 113.811 46.2838 113.996 46.2828C114.179 46.287 114.361 46.2556 114.532 46.1903C114.598 46.172 114.656 46.1328 114.698 46.0786C114.74 46.0244 114.763 45.9582 114.764 45.8898C114.767 45.8437 114.758 45.7974 114.74 45.7551C114.721 45.7129 114.692 45.6758 114.655 45.6471C114.528 45.5708 114.389 45.5186 114.243 45.493L113.83 45.4044C113.68 45.3776 113.532 45.3415 113.386 45.2965C113.072 45.2138 112.789 45.0411 112.572 44.7996C112.381 44.5522 112.284 44.245 112.299 43.9327C112.299 43.7314 112.348 43.5331 112.441 43.3548C112.543 43.1646 112.685 42.9989 112.858 42.8694C113.063 42.7197 113.293 42.6075 113.537 42.5381C113.834 42.4521 114.142 42.4105 114.451 42.4148C114.751 42.4122 115.05 42.4445 115.342 42.5111C115.579 42.5632 115.809 42.6407 116.029 42.7423V43.898H115.913C115.837 43.8426 115.759 43.7912 115.678 43.7439C115.577 43.6828 115.473 43.6275 115.365 43.5783C115.241 43.5216 115.112 43.4764 114.98 43.4435C114.829 43.4074 114.675 43.3893 114.521 43.3895C114.338 43.3842 114.157 43.4212 113.992 43.4974C113.932 43.5178 113.88 43.5553 113.841 43.6054C113.803 43.6554 113.78 43.7157 113.776 43.7786C113.774 43.8252 113.783 43.8717 113.801 43.9145C113.82 43.9572 113.848 43.9951 113.884 44.0252C114.025 44.1144 114.182 44.1746 114.347 44.2024C114.47 44.2332 114.612 44.2627 114.771 44.291C114.928 44.3182 115.083 44.3569 115.234 44.4066C115.532 44.4846 115.8 44.648 116.005 44.8766C116.185 45.1114 116.275 45.4022 116.26 45.6972C116.242 45.9125 116.172 46.1201 116.056 46.302L116.067 46.3175ZM119.894 43.5359H118.513V45.1655C118.513 45.3273 118.513 45.466 118.513 45.5893C118.514 45.7004 118.536 45.8103 118.578 45.9129C118.618 46.01 118.69 46.0903 118.783 46.1403C118.915 46.204 119.061 46.2331 119.207 46.225C119.309 46.2206 119.41 46.2038 119.508 46.1749C119.597 46.155 119.684 46.1253 119.766 46.0863H119.89V47.0995C119.726 47.142 119.56 47.1742 119.392 47.1959C119.179 47.2213 118.963 47.2329 118.748 47.2305C118.293 47.2694 117.838 47.1406 117.471 46.8684C117.329 46.7093 117.221 46.5223 117.155 46.3194C117.088 46.1164 117.065 45.902 117.086 45.6895V43.5398H116.538V42.515H117.086V41.2012H118.52V42.515H119.901L119.894 43.5359ZM124.816 45.1077H121.668C121.675 45.2938 121.721 45.4763 121.803 45.6433C121.875 45.7811 121.979 45.899 122.108 45.9861C122.239 46.0737 122.386 46.1352 122.54 46.1672C122.716 46.2048 122.896 46.2229 123.076 46.2211C123.242 46.2218 123.408 46.2037 123.57 46.1672C123.722 46.1332 123.871 46.0842 124.013 46.0208C124.126 45.9712 124.236 45.9146 124.341 45.8513C124.442 45.7922 124.523 45.7383 124.584 45.6895H124.735V46.8723L124.415 46.9994C124.289 47.0479 124.16 47.0878 124.029 47.1188C123.87 47.1603 123.709 47.1925 123.547 47.2151C123.346 47.2405 123.143 47.2521 122.941 47.2498C122.22 47.2978 121.508 47.0752 120.943 46.6257C120.705 46.3984 120.52 46.1221 120.4 45.8161C120.28 45.51 120.228 45.1815 120.249 44.8535C120.232 44.5257 120.281 44.1979 120.392 43.8891C120.504 43.5803 120.675 43.2966 120.897 43.0543C121.136 42.8231 121.42 42.6441 121.733 42.5287C122.045 42.4133 122.377 42.364 122.71 42.384C123 42.3619 123.293 42.4012 123.567 42.4995C123.842 42.5977 124.092 42.7527 124.303 42.9542C124.683 43.4092 124.873 43.9925 124.835 44.5838L124.816 45.1077ZM128.731 43.8903H128.611C128.533 43.8671 128.453 43.8529 128.372 43.8479C128.269 43.8479 128.155 43.8479 128.029 43.8479C127.869 43.8492 127.709 43.8712 127.554 43.9135C127.391 43.9559 127.23 44.0073 127.072 44.0676V47.1496H125.63V42.515H127.065V43.1737C127.129 43.1147 127.22 43.0389 127.338 42.9465C127.438 42.8657 127.544 42.7923 127.655 42.7269C127.769 42.6594 127.891 42.605 128.017 42.5651C128.142 42.5233 128.272 42.5012 128.403 42.4995H128.557H128.712L128.731 43.8903Z" fill="#3A3A3C"/>
<path d="M49.8253 43.7131C49.7523 43.6087 49.6523 43.5262 49.536 43.4742C49.4198 43.4265 49.295 43.403 49.1694 43.4049C49.0512 43.4029 48.9336 43.4225 48.8223 43.4627C48.7068 43.5104 48.6067 43.5891 48.533 43.69C48.4394 43.8222 48.3726 43.9713 48.3364 44.1292C48.2823 44.3588 48.2577 44.5945 48.2631 44.8304C48.2571 45.0597 48.2804 45.2888 48.3324 45.5123C48.3679 45.6605 48.4293 45.8014 48.5138 45.9283C48.5853 46.0315 48.6841 46.1129 48.7992 46.1633C48.9213 46.2141 49.0526 46.2391 49.1849 46.2366C49.3056 46.2356 49.425 46.2107 49.536 46.1633C49.6499 46.1184 49.7489 46.0423 49.8215 45.9438C49.9111 45.8154 49.9765 45.6718 50.0144 45.52C50.0643 45.2949 50.0863 45.0646 50.0799 44.8342C50.084 44.605 50.0606 44.376 50.0104 44.1523C49.9772 43.9955 49.9144 43.8464 49.8253 43.7131V43.7131Z" fill="#3A3A3C"/>
<path d="M108.962 45.1307C108.847 45.1676 108.745 45.2372 108.669 45.3311C108.595 45.434 108.558 45.5589 108.565 45.6855C108.555 45.7679 108.566 45.8514 108.596 45.9287C108.626 46.006 108.675 46.0746 108.738 46.1285C108.894 46.2184 109.072 46.26 109.251 46.2479C109.384 46.2467 109.516 46.2178 109.637 46.1632C109.77 46.1048 109.892 46.0225 109.996 45.9205V44.9612L109.406 45.0267C109.254 45.0443 109.105 45.0792 108.962 45.1307V45.1307Z" fill="#3A3A3C"/>
<path d="M54.5773 43.4705C54.4314 43.4615 54.2854 43.4872 54.1513 43.5455C54.0172 43.6038 53.8988 43.6929 53.8059 43.8057C53.6165 44.0784 53.5242 44.4067 53.5437 44.738C53.5412 44.9071 53.5541 45.076 53.5823 45.2427C53.6032 45.38 53.6531 45.5114 53.7288 45.6279C53.7953 45.7298 53.8886 45.8111 53.9987 45.8629C54.1324 45.921 54.2774 45.9486 54.4231 45.9439C54.5545 45.9441 54.6849 45.9219 54.8088 45.8784C54.9358 45.8333 55.0553 45.7696 55.1637 45.6896V43.6053C55.0795 43.5688 54.9916 43.5417 54.9015 43.5244C54.7958 43.4948 54.687 43.4767 54.5773 43.4705Z" fill="#3A3A3C"/>
<path d="M15.0705 43.7131C14.9976 43.6087 14.8976 43.5262 14.7812 43.4742C14.665 43.4265 14.5405 43.403 14.4149 43.4049C14.2966 43.4029 14.1788 43.4225 14.0676 43.4627C13.952 43.5104 13.8519 43.5891 13.7783 43.69C13.6846 43.8222 13.6179 43.9713 13.5816 44.1292C13.5276 44.3588 13.503 44.5945 13.5084 44.8304C13.5024 45.0597 13.5256 45.2888 13.5777 45.5123C13.6131 45.6605 13.6746 45.8014 13.7591 45.9283C13.8306 46.0315 13.9295 46.1129 14.0446 46.1633C14.1667 46.2141 14.2981 46.2391 14.4303 46.2366C14.551 46.2356 14.6702 46.2107 14.7812 46.1633C14.8951 46.1184 14.9941 46.0423 15.0667 45.9438C15.1564 45.8154 15.2217 45.6718 15.2596 45.52C15.3095 45.2949 15.3315 45.0646 15.3252 44.8342C15.3292 44.605 15.3058 44.376 15.2557 44.1523C15.2225 43.9955 15.1596 43.8464 15.0705 43.7131V43.7131Z" fill="#3A3A3C"/>
<path d="M82.8709 43.2855C82.7501 43.2786 82.6293 43.2974 82.5162 43.3405C82.4032 43.3837 82.3006 43.4503 82.2153 43.536C82.0499 43.7248 81.958 43.9669 81.9567 44.2179H83.6925C83.7021 43.9694 83.6274 43.725 83.4804 43.5244C83.4036 43.441 83.3087 43.3762 83.2031 43.3349C83.0976 43.2935 82.984 43.2766 82.8709 43.2855V43.2855Z" fill="#3A3A3C"/>
<path d="M7.49097 47.1189H9.01847V44.4991H11.3753V43.3357H9.01847V42.1837H11.5797V41.0203H7.49097V47.1189Z" fill="white"/>
<path d="M14.4187 42.3763C14.0968 42.3568 13.7744 42.4046 13.4722 42.5167C13.17 42.6288 12.8946 42.8028 12.6636 43.0274C12.2587 43.5369 12.0383 44.1683 12.0383 44.8189C12.0383 45.4694 12.2587 46.1008 12.6636 46.6103C13.1527 47.0281 13.7751 47.2577 14.4187 47.2577C15.0622 47.2577 15.6848 47.0281 16.1739 46.6103C16.5765 46.1005 16.7954 45.4701 16.7954 44.8208C16.7954 44.1715 16.5765 43.5411 16.1739 43.0313C15.9432 42.8059 15.6677 42.6313 15.3655 42.5185C15.0632 42.4057 14.7407 42.3573 14.4187 42.3763V42.3763ZM15.2596 45.5162C15.2217 45.668 15.1564 45.8116 15.0668 45.94C14.9942 46.0385 14.8951 46.1146 14.7812 46.1596C14.6702 46.207 14.551 46.2319 14.4303 46.2328C14.2981 46.2353 14.1667 46.2103 14.0446 46.1596C13.9295 46.1091 13.8306 46.0278 13.7591 45.9246C13.6746 45.7976 13.6131 45.6568 13.5777 45.5085C13.5256 45.2851 13.5024 45.0559 13.5084 44.8266C13.503 44.5907 13.5276 44.3551 13.5816 44.1254C13.6179 43.9676 13.6846 43.8184 13.7783 43.6862C13.8519 43.5853 13.952 43.5066 14.0676 43.4589C14.1788 43.4187 14.2966 43.3991 14.4149 43.4011C14.5405 43.3992 14.665 43.4228 14.7812 43.4705C14.8976 43.5224 14.9976 43.6049 15.0705 43.7093C15.1592 43.8415 15.222 43.9892 15.2557 44.1447C15.3059 44.3684 15.3292 44.5973 15.3252 44.8266C15.3318 45.0583 15.3098 45.2899 15.2596 45.5162V45.5162Z" fill="white"/>
<path d="M20.4245 42.5149C20.2933 42.5166 20.1631 42.5387 20.0387 42.5804C19.9121 42.6204 19.7905 42.6747 19.6762 42.7422C19.5656 42.8076 19.4599 42.881 19.3599 42.9618C19.2442 43.0543 19.153 43.13 19.0861 43.1891V42.5149H17.6241V47.138H19.0592V44.0559C19.2169 43.9957 19.3779 43.9442 19.5413 43.9018C19.696 43.8596 19.8555 43.8376 20.0158 43.8364C20.1418 43.8364 20.2561 43.8364 20.3589 43.8364C20.44 43.8413 20.5203 43.8555 20.5981 43.8787H20.7177V42.5149H20.5635H20.4245Z" fill="white"/>
<path d="M23.5992 43.5204H24.4285V46.6988C24.4486 46.9856 24.3968 47.2729 24.278 47.5348C24.2163 47.6244 24.1311 47.6954 24.0319 47.7402C23.9326 47.7851 23.823 47.8019 23.7149 47.7891C23.6231 47.7868 23.5315 47.7778 23.441 47.7621C23.3364 47.7457 23.2332 47.7212 23.1323 47.6889H23.0244V48.7445C23.1784 48.7784 23.3342 48.8028 23.4911 48.8177C23.7282 48.8419 23.9665 48.8535 24.2048 48.8524C24.6465 48.8712 25.0777 48.7147 25.4044 48.417C25.5626 48.2586 25.6857 48.0687 25.7654 47.8596C25.8452 47.6505 25.8799 47.4269 25.8673 47.2035V42.5149H23.603L23.5992 43.5204Z" fill="white"/>
<path d="M25.8673 40.7466H24.3359V41.8638H25.8673V40.7466Z" fill="white"/>
<path d="M30.4689 42.7846C29.944 42.4838 29.3401 42.3495 28.7371 42.3993C28.4151 42.3994 28.0936 42.4278 27.7765 42.4841C27.4602 42.5406 27.23 42.5894 27.086 42.6305V43.7401H27.2096C27.4245 43.645 27.6461 43.5664 27.8729 43.505C28.0661 43.4485 28.2658 43.4174 28.467 43.4126C28.7561 43.3962 29.045 43.4463 29.3117 43.559C29.4056 43.6094 29.4824 43.6864 29.5325 43.7803C29.5826 43.8742 29.6037 43.9808 29.5933 44.0868V44.1099C29.1767 44.1381 28.791 44.1766 28.4361 44.2254C28.1145 44.2639 27.8009 44.3523 27.5066 44.4874C27.2669 44.596 27.0623 44.7695 26.9163 44.9883C26.7693 45.2388 26.6983 45.5265 26.712 45.8166C26.7036 46.0057 26.7333 46.1946 26.7996 46.372C26.8658 46.5494 26.9673 46.7117 27.0977 46.8491C27.2295 46.9833 27.3876 47.0889 27.5622 47.1591C27.7368 47.2294 27.924 47.2629 28.1121 47.2575C28.2833 47.262 28.4543 47.2451 28.6213 47.2074C28.7542 47.1726 28.8834 47.1249 29.007 47.0648C29.1184 47.0117 29.2233 46.9457 29.3195 46.8684L29.5856 46.6487V47.138H31.0129V44.0097C31.0325 43.7763 30.993 43.5417 30.898 43.3276C30.8029 43.1135 30.6553 42.9267 30.4689 42.7846ZM29.5856 45.9206C29.4818 46.0226 29.3604 46.1049 29.227 46.1633C29.1057 46.2179 28.9743 46.2468 28.8412 46.248C28.6621 46.2601 28.4835 46.2185 28.3282 46.1286C28.265 46.0747 28.2161 46.0061 28.1858 45.9288C28.1555 45.8515 28.1448 45.768 28.1545 45.6856C28.148 45.5591 28.1847 45.4341 28.2587 45.3312C28.3348 45.2373 28.4368 45.1677 28.5519 45.1308C28.6953 45.0793 28.8441 45.0444 28.9955 45.0268L29.5856 44.9613V45.9206Z" fill="white"/>
<path d="M36.6524 42.5188H34.959L33.5974 44.3179V40.7466H32.1625V47.1188H33.5974V45.4159L33.8173 45.1154L35.0632 47.1188H36.772L35.04 44.5029L36.6524 42.5188Z" fill="white"/>
<path d="M38.8394 41.2051H37.4044V42.515H36.8567V43.5128H37.4044V45.6625C37.3834 45.875 37.4069 46.0895 37.4733 46.2924C37.5397 46.4954 37.6476 46.6823 37.7901 46.8414C38.1573 47.1136 38.6114 47.2424 39.0669 47.2036C39.2822 47.2059 39.4973 47.1943 39.7111 47.1689C39.8788 47.1471 40.045 47.115 40.2087 47.0725V46.0593H40.0853C40.0027 46.0983 39.9161 46.1281 39.8269 46.148C39.729 46.1769 39.6279 46.1937 39.5259 46.198C39.3796 46.2062 39.2337 46.177 39.1018 46.1133C39.0094 46.0633 38.9371 45.983 38.8972 45.886C38.8547 45.7833 38.8325 45.6734 38.8317 45.5624C38.8317 45.4429 38.8317 45.3004 38.8317 45.1386V43.5089H40.2126V42.515H38.8394V41.2051Z" fill="white"/>
<path d="M43.5031 43.8594H40.7837V44.9997H43.5031V43.8594Z" fill="white"/>
<path d="M49.1734 42.3763C48.8516 42.3568 48.5292 42.4046 48.227 42.5167C47.9247 42.6288 47.6494 42.8028 47.4184 43.0274C47.0135 43.5369 46.7931 44.1683 46.7931 44.8189C46.7931 45.4694 47.0135 46.1008 47.4184 46.6103C47.9075 47.0281 48.5298 47.2577 49.1734 47.2577C49.817 47.2577 50.4393 47.0281 50.9284 46.6103C51.3311 46.1005 51.5502 45.4701 51.5502 44.8208C51.5502 44.1715 51.3311 43.5411 50.9284 43.0313C50.6978 42.8059 50.4225 42.6313 50.1202 42.5185C49.818 42.4057 49.4955 42.3573 49.1734 42.3763V42.3763ZM50.0144 45.5162C49.9765 45.668 49.9111 45.8116 49.8215 45.94C49.7489 46.0385 49.6499 46.1146 49.536 46.1596C49.425 46.207 49.3056 46.2319 49.1849 46.2328C49.0526 46.2353 48.9213 46.2103 48.7992 46.1596C48.6841 46.1091 48.5854 46.0278 48.5138 45.9246C48.4293 45.7976 48.3679 45.6568 48.3324 45.5085C48.2804 45.2851 48.2571 45.0559 48.2631 44.8266C48.2577 44.5907 48.2823 44.3551 48.3364 44.1254C48.3727 43.9676 48.4394 43.8184 48.533 43.6862C48.6067 43.5853 48.7068 43.5066 48.8223 43.4589C48.9336 43.4187 49.0512 43.3991 49.1695 43.4011C49.2951 43.3992 49.4198 43.4228 49.536 43.4705C49.6523 43.5224 49.7523 43.6049 49.8253 43.7093C49.914 43.8415 49.9768 43.9892 50.0104 44.1447C50.0606 44.3684 50.084 44.5973 50.0799 44.8266C50.0904 45.0578 50.0722 45.2894 50.0259 45.5162H50.0144Z" fill="white"/>
<path d="M55.1446 42.7269C54.9867 42.6232 54.8155 42.5416 54.6355 42.4842C54.4306 42.4218 54.217 42.3918 54.0028 42.3956C53.7438 42.3951 53.4875 42.4489 53.2506 42.5535C53.0154 42.655 52.8059 42.8077 52.6373 43.0005C52.4521 43.2151 52.3105 43.4637 52.2207 43.7325C52.1164 44.0454 52.0655 44.3736 52.0702 44.7033C52.0221 45.3312 52.194 45.9563 52.5563 46.4716C52.7265 46.6677 52.9396 46.8221 53.179 46.923C53.4184 47.0238 53.6779 47.0685 53.9373 47.0534C54.1621 47.054 54.3847 47.0108 54.5929 46.9262C54.7974 46.8443 54.9866 46.7284 55.1523 46.5834V46.6681C55.1556 46.8327 55.1388 46.997 55.1022 47.1574C55.0719 47.2825 55.0123 47.3987 54.9285 47.4964C54.8231 47.6035 54.6893 47.6783 54.5428 47.7122C54.2319 47.7935 53.9075 47.8092 53.5902 47.7584C53.477 47.7404 53.3625 47.716 53.2468 47.6852L52.9535 47.5966L52.7029 47.508H52.5332V48.6637C52.7697 48.7225 53.0091 48.7688 53.2506 48.8024C53.5394 48.8426 53.8308 48.8619 54.1224 48.8602C54.4562 48.8637 54.7891 48.8262 55.1137 48.7485C55.3958 48.6775 55.659 48.5461 55.8852 48.3633C56.1118 48.179 56.286 47.9385 56.3905 47.6659C56.5226 47.3193 56.5855 46.9503 56.5756 46.5795V42.515H55.187L55.1446 42.7269ZM55.1446 45.6741C55.0363 45.7542 54.9167 45.8178 54.7897 45.8629C54.6658 45.9064 54.5354 45.9286 54.404 45.9284C54.2583 45.9332 54.1133 45.9056 53.9797 45.8475C53.8696 45.7957 53.776 45.7144 53.7096 45.6125C53.6339 45.496 53.584 45.3646 53.563 45.2273C53.5349 45.0606 53.5219 44.8916 53.5244 44.7226C53.5049 44.3912 53.5974 44.063 53.7868 43.7903C53.8797 43.6775 53.9981 43.5883 54.1322 43.53C54.2663 43.4718 54.4123 43.4461 54.5583 43.455C54.6633 43.4557 54.7681 43.4674 54.8707 43.4897C54.9609 43.507 55.0489 43.5341 55.1331 43.5706L55.1446 45.6741Z" fill="white"/>
<path d="M62.211 40.7042C61.7255 40.6663 61.2442 40.8182 60.8687 41.128C60.711 41.2971 60.5904 41.4971 60.514 41.7153C60.4377 41.9334 60.4073 42.165 60.4251 42.3954V42.5226H59.8505V43.5204H60.4406V47.138H61.8756V43.5358H62.967V42.5149H61.8098V42.4764C61.7866 42.2646 61.843 42.0518 61.968 41.8792C62.1387 41.7528 62.3512 41.6963 62.5621 41.7212C62.6738 41.7218 62.785 41.7348 62.8938 41.7598L63.1522 41.8253H63.2641V40.7851C63.1096 40.7579 62.9538 40.7386 62.7973 40.7273C62.6148 40.7119 62.4193 40.7042 62.211 40.7042Z" fill="white"/>
<path d="M65.0502 42.5186H63.6152V47.1185H65.0502V42.5186Z" fill="white"/>
<path d="M65.0887 40.7466H63.5728V41.8638H65.0887V40.7466Z" fill="white"/>
<path d="M68.8611 44.3952C68.7099 44.3454 68.5551 44.3068 68.3982 44.2796C68.2387 44.2513 68.0973 44.2218 67.9738 44.191C67.8093 44.1632 67.6521 44.1029 67.5111 44.0138C67.4753 43.9837 67.4469 43.9458 67.4282 43.9031C67.4095 43.8603 67.4008 43.8138 67.403 43.7672C67.4072 43.7043 67.4301 43.644 67.4685 43.5939C67.5069 43.5439 67.5592 43.5063 67.619 43.486C67.7844 43.4098 67.9654 43.3728 68.1475 43.3781C68.3021 43.3779 68.4562 43.396 68.6065 43.432C68.739 43.465 68.8681 43.5101 68.9922 43.5669C69.0995 43.6161 69.2038 43.6714 69.3047 43.7325C69.3858 43.7798 69.4642 43.8312 69.5399 43.8867H69.6558V42.7309C69.4359 42.6293 69.2056 42.5518 68.9691 42.4997C68.6768 42.4331 68.3777 42.4008 68.078 42.4034C67.7688 42.3991 67.4609 42.4407 67.1639 42.5267C66.9198 42.596 66.6898 42.7082 66.485 42.858C66.3122 42.9875 66.17 43.1532 66.0683 43.3434C65.9745 43.5216 65.9257 43.72 65.9258 43.9213C65.9112 44.2336 66.0083 44.5408 66.1996 44.7881C66.4165 45.0297 66.6994 45.2024 67.0135 45.2851C67.159 45.3301 67.3071 45.3662 67.457 45.393L67.8697 45.4816C68.0156 45.5071 68.1556 45.5594 68.2825 45.6357C68.3189 45.6644 68.3477 45.7014 68.3665 45.7437C68.3854 45.786 68.3935 45.8322 68.3905 45.8784C68.3896 45.9468 68.3666 46.013 68.3249 46.0672C68.2832 46.1214 68.2249 46.1606 68.159 46.1789C67.9879 46.2442 67.806 46.2756 67.6229 46.2714C67.4381 46.2724 67.254 46.249 67.0752 46.202C66.9203 46.1616 66.7691 46.1074 66.6238 46.0402C66.4952 45.9874 66.3725 45.9216 66.2574 45.8438L66.0222 45.6704H65.9026V46.8839C66.1418 46.997 66.3928 47.0836 66.6509 47.1421C66.9654 47.2176 67.2878 47.2551 67.6113 47.2538C67.9342 47.2597 68.2563 47.2194 68.5679 47.1344C68.817 47.0635 69.052 46.9501 69.2623 46.7992C69.4436 46.6715 69.5918 46.5024 69.6944 46.306C69.7939 46.1158 69.8454 45.9043 69.8447 45.6896C69.8597 45.3946 69.7696 45.1039 69.5902 44.869C69.3966 44.6458 69.1439 44.4816 68.8611 44.3952V44.3952Z" fill="white"/>
<path d="M75.1332 42.5188H73.4398L72.0743 44.3179V40.7466H70.6394V47.1188H72.0743V45.4159L72.2981 45.1154L73.544 47.1188H75.2528L73.5208 44.5029L75.1332 42.5188Z" fill="white"/>
<path d="M77.9104 42.3764C77.5782 42.3564 77.2453 42.4057 76.9332 42.5211C76.6211 42.6365 76.3365 42.8155 76.0974 43.0467C75.8757 43.289 75.7044 43.5728 75.5932 43.8816C75.4819 44.1904 75.4332 44.5181 75.4494 44.8459C75.4293 45.174 75.481 45.5024 75.6009 45.8085C75.7208 46.1146 75.906 46.3908 76.1437 46.6181C76.7085 47.0676 77.4212 47.2902 78.1419 47.2422C78.3443 47.2445 78.5465 47.2329 78.7474 47.2075C78.9099 47.1849 79.0709 47.1528 79.2296 47.1112C79.3607 47.0803 79.4896 47.0403 79.6153 46.9918L79.9355 46.8647V45.6819H79.785C79.7233 45.7281 79.6423 45.7821 79.542 45.8437C79.4364 45.907 79.3268 45.9636 79.2141 46.0132C79.0715 46.0766 78.9229 46.1257 78.7706 46.1596C78.6085 46.1962 78.443 46.2143 78.2769 46.2135C78.0967 46.2153 77.9169 46.1972 77.7407 46.1596C77.5863 46.1276 77.4396 46.0662 77.3086 45.9785C77.18 45.8914 77.0753 45.7735 77.0039 45.6357C76.9214 45.4687 76.8753 45.2862 76.8688 45.1001H80.0165V44.5839C80.0547 43.9926 79.8642 43.4093 79.4842 42.9543C79.2766 42.7539 79.0293 42.599 78.7583 42.4995C78.4873 42.4 78.1985 42.3581 77.9104 42.3764V42.3764ZM76.8843 44.2295C76.8856 43.9785 76.9773 43.7365 77.1427 43.5476C77.2281 43.4619 77.3308 43.3953 77.4438 43.3521C77.5569 43.309 77.6777 43.2903 77.7985 43.2972C77.9116 43.2882 78.0252 43.3051 78.1307 43.3465C78.2363 43.3879 78.3312 43.4527 78.408 43.536C78.555 43.7367 78.6297 43.981 78.6201 44.2295H76.8843Z" fill="white"/>
<path d="M82.9828 42.3764C82.6506 42.3564 82.3179 42.4057 82.0058 42.5211C81.6937 42.6365 81.409 42.8155 81.1699 43.0467C80.9483 43.289 80.7768 43.5728 80.6655 43.8816C80.5543 44.1904 80.5055 44.5181 80.5218 44.8459C80.5017 45.174 80.5533 45.5024 80.6733 45.8085C80.7932 46.1146 80.9784 46.3908 81.2161 46.6181C81.7809 47.0676 82.4936 47.2902 83.2142 47.2422C83.4167 47.2445 83.6189 47.2329 83.8198 47.2075C83.9823 47.1849 84.1433 47.1528 84.3019 47.1112C84.4331 47.0803 84.562 47.0403 84.6877 46.9918L85.0079 46.8647V45.6819H84.8574C84.7957 45.7281 84.7147 45.7821 84.6144 45.8437C84.5088 45.907 84.3992 45.9636 84.2865 46.0132C84.1439 46.0766 83.9953 46.1257 83.8429 46.1596C83.6809 46.1962 83.5154 46.2143 83.3493 46.2135C83.1691 46.2153 82.9893 46.1972 82.8131 46.1596C82.6587 46.1276 82.512 46.0662 82.381 45.9785C82.2524 45.8914 82.1477 45.7735 82.0763 45.6357C81.9938 45.4687 81.9479 45.2862 81.9414 45.1001H85.0889V44.5839C85.1271 43.9926 84.9366 43.4093 84.5566 42.9543C84.3489 42.7539 84.1017 42.599 83.8307 42.4995C83.5597 42.4 83.2709 42.3581 82.9828 42.3764V42.3764ZM81.9567 44.2295C81.958 43.9785 82.0499 43.7365 82.2153 43.5476C82.3006 43.4619 82.4032 43.3953 82.5162 43.3521C82.6293 43.309 82.7501 43.2903 82.8709 43.2972C82.984 43.2882 83.0975 43.3051 83.2031 43.3465C83.3087 43.3879 83.4036 43.4527 83.4804 43.536C83.6274 43.7367 83.7021 43.981 83.6925 44.2295H81.9567Z" fill="white"/>
<path d="M88.7921 42.3955C88.5352 42.3925 88.2814 42.4507 88.0515 42.565C87.8051 42.6929 87.5745 42.8494 87.3648 43.0312V42.5149H85.9299V47.138H87.3648V43.8788C87.4837 43.7929 87.6134 43.723 87.7505 43.6707C87.8653 43.628 87.9868 43.6058 88.1093 43.6052C88.2415 43.5983 88.3735 43.6221 88.495 43.6746C88.5896 43.7221 88.6646 43.8011 88.7071 43.898C88.758 44.0284 88.7868 44.1665 88.7921 44.3064C88.8075 44.4913 88.8152 44.6762 88.8152 44.8611V47.138H90.2578V44.1446C90.2852 43.6836 90.1486 43.2279 89.872 42.8578C89.7396 42.7031 89.5734 42.5809 89.3861 42.5007C89.1988 42.4205 88.9955 42.3845 88.7921 42.3955V42.3955Z" fill="white"/>
<path d="M92.9117 41.2051H91.4767V42.515H90.9136V43.5128H91.4613V45.6625C91.4403 45.875 91.4638 46.0895 91.5302 46.2924C91.5966 46.4954 91.7045 46.6823 91.847 46.8414C92.2142 47.1136 92.6683 47.2424 93.1238 47.2036C93.3391 47.2059 93.5542 47.1943 93.768 47.1689C93.9357 47.1471 94.1019 47.115 94.2656 47.0725V46.0593H94.1422C94.0596 46.0983 93.973 46.1281 93.8838 46.148C93.7859 46.1769 93.6848 46.1937 93.5828 46.198C93.4365 46.2062 93.2904 46.177 93.1585 46.1133C93.0661 46.0633 92.994 45.983 92.9541 45.886C92.9116 45.7833 92.8894 45.6734 92.8886 45.5624C92.8886 45.4429 92.8886 45.3004 92.8886 45.1386V43.5089H94.2695V42.515H92.8886L92.9117 41.2051Z" fill="white"/>
<path d="M97.8104 45.7819C97.6919 45.8665 97.5621 45.934 97.4247 45.9822C97.31 46.0265 97.1889 46.0512 97.0661 46.0554C96.9335 46.0623 96.8011 46.0372 96.6803 45.9822C96.5899 45.9352 96.5178 45.8592 96.4758 45.7665C96.4247 45.6439 96.3947 45.5137 96.3871 45.3812C96.3871 45.2322 96.3871 45.0384 96.3871 44.7995V42.5149H94.9445V45.5084C94.9106 45.9748 95.0477 46.4376 95.3303 46.8105C95.4656 46.9565 95.6315 47.0709 95.8162 47.1455C96.0009 47.2201 96.1998 47.253 96.3988 47.242C96.6551 47.2485 96.9091 47.193 97.1393 47.0802C97.3844 46.9471 97.6145 46.7882 97.8258 46.6063V47.138H99.2609V42.5149H97.8258L97.8104 45.7819Z" fill="white"/>
<path d="M103.056 44.3952C102.905 44.3454 102.75 44.3068 102.593 44.2796C102.434 44.2513 102.293 44.2218 102.169 44.191C102.005 44.1632 101.847 44.1029 101.706 44.0138C101.671 43.9837 101.642 43.9458 101.624 43.9031C101.605 43.8603 101.596 43.8138 101.598 43.7672C101.603 43.7043 101.625 43.644 101.664 43.5939C101.702 43.5439 101.755 43.5063 101.814 43.486C101.98 43.4098 102.161 43.3728 102.343 43.3781C102.497 43.3779 102.651 43.396 102.802 43.432C102.934 43.465 103.063 43.5101 103.188 43.5669C103.295 43.6161 103.399 43.6714 103.5 43.7325C103.581 43.7798 103.66 43.8312 103.735 43.8867H103.851V42.7309C103.631 42.6293 103.401 42.5518 103.164 42.4997C102.872 42.4331 102.573 42.4008 102.273 42.4034C101.964 42.3991 101.656 42.4407 101.359 42.5267C101.115 42.596 100.885 42.7082 100.68 42.858C100.508 42.9875 100.366 43.1532 100.264 43.3434C100.17 43.5216 100.121 43.72 100.121 43.9213C100.107 44.2336 100.204 44.5408 100.395 44.7881C100.612 45.0297 100.895 45.2024 101.209 45.2851C101.354 45.3301 101.502 45.3662 101.652 45.393L102.065 45.4816C102.211 45.5071 102.351 45.5594 102.478 45.6357C102.514 45.6644 102.543 45.7014 102.562 45.7437C102.581 45.786 102.589 45.8322 102.586 45.8784C102.585 45.9468 102.562 46.013 102.52 46.0672C102.478 46.1214 102.42 46.1606 102.354 46.1789C102.183 46.2442 102.001 46.2756 101.818 46.2714C101.633 46.2724 101.449 46.249 101.271 46.202C101.116 46.1616 100.965 46.1074 100.819 46.0402C100.691 45.9874 100.568 45.9216 100.453 45.8438L100.218 45.6704H100.098V46.8839C100.337 46.997 100.588 47.0836 100.846 47.1421C101.161 47.2176 101.483 47.2551 101.807 47.2538C102.13 47.2597 102.452 47.2194 102.763 47.1344C103.012 47.0635 103.247 46.9501 103.458 46.7992C103.639 46.6715 103.787 46.5024 103.89 46.306C103.989 46.1158 104.041 45.9043 104.04 45.6896C104.055 45.3946 103.965 45.1039 103.786 44.869C103.592 44.6458 103.339 44.4816 103.056 44.3952V44.3952Z" fill="white"/>
<path d="M106.27 42.5186H104.835V47.1185H106.27V42.5186Z" fill="white"/>
<path d="M106.312 40.7466H104.796V41.8638H106.312V40.7466Z" fill="white"/>
<path d="M110.879 42.7846C110.354 42.4838 109.75 42.3495 109.147 42.3993C108.825 42.3994 108.504 42.4278 108.187 42.4841C107.87 42.5406 107.64 42.5894 107.496 42.6305V43.7401H107.62C107.834 43.645 108.056 43.5664 108.283 43.505C108.476 43.4485 108.676 43.4174 108.877 43.4126C109.166 43.3962 109.455 43.4463 109.722 43.559C109.816 43.6094 109.892 43.6864 109.943 43.7803C109.993 43.8742 110.014 43.9808 110.004 44.0868V44.1099C109.587 44.1381 109.201 44.1766 108.846 44.2254C108.525 44.2639 108.211 44.3523 107.917 44.4874C107.677 44.596 107.472 44.7695 107.326 44.9883C107.179 45.2388 107.108 45.5265 107.122 45.8166C107.114 46.0057 107.144 46.1946 107.21 46.372C107.276 46.5494 107.377 46.7117 107.508 46.8491C107.64 46.9833 107.798 47.0889 107.972 47.1591C108.147 47.2294 108.334 47.2629 108.522 47.2575C108.693 47.262 108.864 47.2451 109.031 47.2074C109.164 47.1726 109.294 47.1249 109.417 47.0648C109.529 47.0117 109.633 46.9457 109.729 46.8684L109.996 46.6487V47.138H111.423V44.0097C111.443 43.7763 111.403 43.5417 111.308 43.3276C111.213 43.1135 111.065 42.9267 110.879 42.7846V42.7846ZM109.996 45.9206C109.892 46.0226 109.77 46.1049 109.637 46.1633C109.516 46.2179 109.384 46.2468 109.251 46.248C109.072 46.2601 108.894 46.2185 108.738 46.1286C108.675 46.0747 108.626 46.0061 108.596 45.9288C108.566 45.8515 108.555 45.768 108.565 45.6856C108.558 45.5591 108.595 45.4341 108.669 45.3312C108.745 45.2373 108.847 45.1677 108.962 45.1308C109.105 45.0793 109.254 45.0444 109.406 45.0268L109.996 44.9613V45.9206Z" fill="white"/>
<path d="M115.215 44.3952C115.064 44.3454 114.909 44.3068 114.752 44.2796C114.593 44.2513 114.451 44.2218 114.328 44.191C114.163 44.1632 114.006 44.1029 113.865 44.0138C113.829 43.9837 113.801 43.9458 113.782 43.9031C113.763 43.8603 113.755 43.8138 113.757 43.7672C113.761 43.7043 113.784 43.644 113.822 43.5939C113.861 43.5439 113.913 43.5063 113.973 43.486C114.138 43.4098 114.319 43.3728 114.501 43.3781C114.656 43.3779 114.81 43.396 114.96 43.432C115.093 43.465 115.222 43.5101 115.346 43.5669C115.453 43.6161 115.558 43.6714 115.658 43.7325C115.74 43.7798 115.818 43.8312 115.894 43.8867H116.01V42.7309C115.79 42.6293 115.559 42.5518 115.323 42.4997C115.031 42.4331 114.732 42.4008 114.432 42.4034C114.123 42.3991 113.815 42.4407 113.518 42.5267C113.274 42.596 113.044 42.7082 112.839 42.858C112.666 42.9875 112.524 43.1532 112.422 43.3434C112.328 43.5216 112.279 43.72 112.28 43.9213C112.265 44.2336 112.362 44.5408 112.553 44.7881C112.77 45.0297 113.053 45.2024 113.367 45.2851C113.513 45.3301 113.661 45.3662 113.811 45.393L114.224 45.4816C114.37 45.5071 114.509 45.5594 114.636 45.6357C114.673 45.6644 114.701 45.7014 114.72 45.7437C114.739 45.786 114.747 45.8322 114.744 45.8784C114.743 45.9468 114.72 46.013 114.679 46.0672C114.637 46.1214 114.579 46.1606 114.513 46.1789C114.342 46.2442 114.16 46.2756 113.977 46.2714C113.792 46.2724 113.608 46.249 113.429 46.202C113.274 46.1616 113.123 46.1074 112.978 46.0402C112.849 45.9874 112.726 45.9216 112.611 45.8438L112.376 45.6704H112.256V46.8839C112.496 46.997 112.747 47.0836 113.005 47.1421C113.319 47.2176 113.642 47.2551 113.965 47.2538C114.288 47.2597 114.61 47.2194 114.922 47.1344C115.171 47.0635 115.406 46.9501 115.616 46.7992C115.797 46.6715 115.946 46.5024 116.048 46.306C116.148 46.1158 116.199 45.9043 116.198 45.6896C116.213 45.3946 116.123 45.1039 115.944 44.869C115.75 44.6458 115.498 44.4816 115.215 44.3952V44.3952Z" fill="white"/>
<path d="M118.497 41.2051H117.062V42.515H116.515V43.5128H117.062V45.6625C117.042 45.875 117.065 46.0895 117.131 46.2924C117.198 46.4954 117.306 46.6823 117.448 46.8414C117.815 47.1136 118.269 47.2424 118.725 47.2036C118.94 47.2059 119.155 47.1943 119.369 47.1689C119.537 47.1471 119.703 47.115 119.867 47.0725V46.0593H119.743C119.661 46.0983 119.574 46.1281 119.485 46.148C119.387 46.1769 119.286 46.1937 119.184 46.198C119.038 46.2062 118.892 46.177 118.76 46.1133C118.667 46.0633 118.595 45.983 118.555 45.886C118.513 45.7833 118.491 45.6734 118.49 45.5624C118.49 45.4429 118.49 45.3004 118.49 45.1386V43.5089H119.871V42.515H118.49L118.497 41.2051Z" fill="white"/>
<path d="M122.675 42.3764C122.343 42.3564 122.01 42.4057 121.698 42.5211C121.386 42.6365 121.101 42.8155 120.862 43.0467C120.64 43.289 120.469 43.5728 120.358 43.8816C120.247 44.1904 120.198 44.5181 120.214 44.8459C120.194 45.174 120.245 45.5024 120.365 45.8085C120.485 46.1146 120.67 46.3908 120.908 46.6181C121.473 47.0676 122.186 47.2902 122.906 47.2422C123.109 47.2445 123.311 47.2329 123.512 47.2075C123.674 47.1849 123.835 47.1528 123.994 47.1112C124.125 47.0803 124.254 47.0403 124.38 46.9918L124.7 46.8647V45.6819H124.55C124.488 45.7281 124.407 45.7821 124.306 45.8437C124.201 45.907 124.091 45.9636 123.979 46.0132C123.836 46.0766 123.687 46.1257 123.535 46.1596C123.373 46.1962 123.207 46.2143 123.041 46.2135C122.861 46.2153 122.681 46.1972 122.505 46.1596C122.351 46.1276 122.204 46.0662 122.073 45.9785C121.944 45.8914 121.84 45.7735 121.768 45.6357C121.686 45.4687 121.64 45.2862 121.633 45.1001H124.781V44.5839C124.819 43.9926 124.629 43.4093 124.249 42.9543C124.041 42.7539 123.794 42.599 123.523 42.4995C123.252 42.4 122.963 42.3581 122.675 42.3764V42.3764ZM121.649 44.2295C121.65 43.9785 121.742 43.7365 121.907 43.5476C121.993 43.4619 122.095 43.3953 122.208 43.3521C122.321 43.309 122.442 43.2903 122.563 43.2972C122.676 43.2882 122.79 43.3051 122.895 43.3465C123.001 43.3879 123.096 43.4527 123.172 43.536C123.319 43.7367 123.394 43.981 123.385 44.2295H121.649Z" fill="white"/>
<path d="M128.403 42.5149C128.272 42.5166 128.142 42.5387 128.017 42.5804C127.891 42.6204 127.769 42.6747 127.655 42.7422C127.544 42.8076 127.438 42.881 127.338 42.9618C127.223 43.0543 127.131 43.13 127.065 43.1891V42.5149H125.63V47.138H127.065V44.0559C127.222 43.9957 127.383 43.9442 127.547 43.9018C127.701 43.8596 127.861 43.8376 128.021 43.8364C128.147 43.8364 128.262 43.8364 128.364 43.8364C128.445 43.8413 128.526 43.8555 128.604 43.8787H128.723V42.5149H128.569H128.403Z" fill="white"/>
</g>
<defs>
<clipPath id="clip0">
<rect width="134" height="52" fill="white"/>
</clipPath>
</defs>
</svg>
