<svg width="104" height="40" viewBox="0 0 104 40" fill="none" xmlns="http://www.w3.org/2000/svg">
<g clip-path="url(#clip0)">
<path d="M10.5039 26.27C14.3118 26.27 17.1988 25.4797 19.1651 23.8992C21.1313 22.3186 22.1144 19.9606 22.1144 16.8252V0.229492H3.36482V4.97113H14.6965V17.1423C14.6965 19.9695 13.1764 21.3831 10.136 21.3831C7.89481 21.3831 5.89883 20.4447 4.14819 18.5678L-0.00585938 22.5152C1.2578 23.7695 2.79558 24.7139 4.48649 25.2742C6.42058 25.9472 8.45582 26.284 10.5039 26.27V26.27Z" fill="#3A3A3C"/>
<path d="M38.9235 0.244385L24.5503 25.8285H32.1967L35.0542 20.346H50.0266L52.884 25.8285H60.7144L46.2968 0.244385H38.9235ZM37.4399 15.8503L42.5523 6.05585L47.6648 15.8503H37.4399Z" fill="#3A3A3C"/>
<path d="M88.4458 4.99491V0.244385H64.0763V25.8285H71.5388V16.5082H86.4637V11.7577H71.5388V4.99491H88.4458Z" fill="#3A3A3C"/>
<path d="M100.976 0.244385H93.5137V25.8285H100.976V0.244385Z" fill="#3A3A3C"/>
<path d="M59.8451 33.2967C59.7522 33.2914 59.6592 33.3058 59.5723 33.339C59.4853 33.3722 59.4063 33.4235 59.3406 33.4893C59.2134 33.6347 59.1428 33.8209 59.1418 34.0139H60.4771C60.4845 33.8228 60.427 33.6348 60.3139 33.4804C60.2548 33.4163 60.1819 33.3665 60.1007 33.3347C60.0195 33.3028 59.9321 33.2898 59.8451 33.2967V33.2967Z" fill="#3A3A3C"/>
<path d="M21.9631 34.7161C21.8745 34.7445 21.796 34.798 21.7375 34.8702C21.6806 34.9494 21.6523 35.0455 21.6574 35.1428C21.6498 35.2062 21.6581 35.2705 21.6814 35.3299C21.7047 35.3894 21.7423 35.4422 21.7909 35.4836C21.9104 35.5528 22.0478 35.5847 22.1856 35.5755C22.288 35.5745 22.389 35.5523 22.4823 35.5103C22.5849 35.4654 22.6783 35.4021 22.7582 35.3236V34.5857L22.3043 34.6361C22.1878 34.6496 22.0734 34.6765 21.9631 34.7161V34.7161Z" fill="#3A3A3C"/>
<path d="M94.2792 33.2967C94.1862 33.2914 94.0933 33.3058 94.0063 33.339C93.9194 33.3722 93.8405 33.4235 93.7748 33.4893C93.6476 33.6347 93.577 33.8209 93.576 34.0139H94.9113C94.9187 33.8228 94.8611 33.6348 94.748 33.4804C94.6889 33.4163 94.6161 33.3665 94.5349 33.3347C94.4537 33.3028 94.3661 33.2898 94.2792 33.2967Z" fill="#3A3A3C"/>
<path d="M1.68835 28.9194V40.003H103.077V28.9194H1.68835ZM8.89855 32.452H6.9254V33.341H8.73831V34.2301H6.9254V36.2601H5.73853V31.5688H8.88377L8.89855 32.452ZM12.4325 35.857C12.0563 36.1784 11.5776 36.355 11.0825 36.355C10.5874 36.355 10.1086 36.1784 9.73234 35.857C9.42088 35.4651 9.25134 34.9794 9.25134 34.479C9.25134 33.9786 9.42088 33.4929 9.73234 33.101C10.1086 32.7796 10.5874 32.603 11.0825 32.603C11.5776 32.603 12.0563 32.7796 12.4325 33.101C12.7422 33.4931 12.9108 33.978 12.9108 34.4775C12.9108 34.977 12.7422 35.4619 12.4325 35.8541V35.857ZM15.9427 33.753H15.8507C15.7908 33.7351 15.7291 33.7242 15.6667 33.7204C15.5876 33.7204 15.4997 33.7204 15.4027 33.7204C15.2794 33.7213 15.1567 33.7382 15.0378 33.7707C14.912 33.8033 14.7882 33.8429 14.6669 33.8893V36.2601H13.5571V32.7039H14.6609V33.2106C14.7104 33.1652 14.7806 33.1069 14.8716 33.0358C14.9485 32.9736 15.0298 32.9172 15.1149 32.8669C15.2028 32.8149 15.2963 32.7732 15.3938 32.7424C15.4894 32.7103 15.5895 32.6933 15.6905 32.692H15.8091H15.9279L15.9427 33.753ZM19.8861 36.3105C19.8958 36.4823 19.8691 36.6543 19.8077 36.8152C19.7464 36.976 19.6517 37.1221 19.53 37.244C19.2787 37.4729 18.947 37.5933 18.6072 37.5788C18.4239 37.5797 18.2406 37.5708 18.0583 37.5522C17.9376 37.5407 17.8177 37.5219 17.6993 37.4959V36.6839H17.7853C17.8629 36.7087 17.9422 36.7275 18.0226 36.7402C18.0923 36.7522 18.1627 36.7592 18.2333 36.7609C18.3165 36.7708 18.4009 36.7578 18.4773 36.7234C18.5536 36.6889 18.6191 36.6343 18.6666 36.5653C18.758 36.3639 18.7977 36.1429 18.7823 35.9222V33.4773H18.1443V32.7039H19.8861V36.3105ZM19.8861 32.203H18.6992V31.3436H19.8861V32.203ZM23.8473 36.2453H22.7553V35.8689L22.5506 36.0378C22.4767 36.0974 22.396 36.1481 22.3103 36.189C22.2152 36.2351 22.1158 36.2719 22.0136 36.2986C21.8851 36.3277 21.7536 36.3406 21.6219 36.3371C21.4772 36.3413 21.3332 36.3156 21.1989 36.2615C21.0646 36.2075 20.9428 36.1262 20.8415 36.023C20.7411 35.9173 20.6632 35.7925 20.6123 35.6561C20.5613 35.5196 20.5383 35.3743 20.5447 35.2288C20.5342 35.0057 20.589 34.7843 20.7021 34.5916C20.8144 34.4233 20.9716 34.2899 21.156 34.2063C21.3824 34.1024 21.6237 34.0344 21.8711 34.0048C22.1481 33.9673 22.4448 33.9377 22.7613 33.9159V33.8893C22.7693 33.8078 22.753 33.7258 22.7145 33.6535C22.6759 33.5813 22.6169 33.522 22.5447 33.4833C22.3396 33.3966 22.1173 33.3581 21.8949 33.3706C21.7401 33.3744 21.5865 33.3983 21.4379 33.4418C21.2635 33.489 21.0928 33.5494 20.9275 33.6225H20.8326V32.769C20.9414 32.7374 21.1185 32.6999 21.3638 32.6564C21.6076 32.6131 21.8548 32.5913 22.1025 32.5912C22.5664 32.5529 23.0311 32.6562 23.4348 32.8876C23.576 32.9956 23.6881 33.1368 23.7611 33.2987C23.8341 33.4606 23.8658 33.6381 23.8533 33.8152L23.8473 36.2453ZM26.9629 36.2453L26.0045 34.7042L25.8352 34.9354V36.2601H24.7315V31.3554H25.8352V34.1026L26.8827 32.7187H28.1852L26.945 34.2449L28.2772 36.2571L26.9629 36.2453ZM30.921 33.4744H29.8766V34.7279C29.8766 34.8524 29.8766 34.9591 29.8766 35.0539C29.8772 35.1394 29.8943 35.2239 29.927 35.3029C29.9577 35.3775 30.0133 35.4393 30.0843 35.4777C30.1858 35.5267 30.298 35.5492 30.4106 35.5429C30.4891 35.5395 30.5669 35.5266 30.6421 35.5044C30.7107 35.4891 30.7774 35.4662 30.8409 35.4362H30.9358V36.2156C30.8099 36.2483 30.682 36.273 30.553 36.2897C30.3886 36.3093 30.2231 36.3182 30.0575 36.3164C29.7071 36.3462 29.3578 36.2472 29.0754 36.0378C28.9657 35.9154 28.8828 35.7716 28.8317 35.6155C28.7806 35.4594 28.7625 35.2944 28.7787 35.131V33.4773H28.3574V32.7039H28.7787V31.6933H29.8766V32.7039H30.9389L30.921 33.4744ZM33.452 34.6123H31.3602V33.7233H33.452V34.6123ZM39.1668 35.8511C38.7906 36.1725 38.3118 36.3491 37.8167 36.3491C37.3216 36.3491 36.8429 36.1725 36.4667 35.8511C36.1552 35.4592 35.9857 34.9735 35.9857 34.4731C35.9857 33.9727 36.1552 33.487 36.4667 33.095C36.8429 32.7736 37.3216 32.597 37.8167 32.597C38.3118 32.597 38.7906 32.7736 39.1668 33.095C39.4766 33.4872 39.645 33.9721 39.645 34.4716C39.645 34.9711 39.4766 35.456 39.1668 35.8481V35.8511ZM43.5168 35.8511C43.5243 36.1363 43.476 36.4202 43.3744 36.6868C43.294 36.8965 43.16 37.0815 42.9856 37.2232C42.8117 37.3638 42.6092 37.4649 42.3922 37.5196C42.1425 37.5793 41.8863 37.6082 41.6296 37.6055C41.4052 37.6068 41.1812 37.592 40.959 37.5611C40.7733 37.5352 40.5891 37.4996 40.4072 37.4544V36.5653H40.5377L40.7306 36.6335L40.956 36.7016C41.047 36.7254 41.1351 36.7441 41.2201 36.758C41.4642 36.7971 41.7139 36.785 41.9531 36.7224C42.0658 36.6964 42.1687 36.6388 42.2498 36.5564C42.3143 36.4812 42.3599 36.3919 42.3832 36.2956C42.4114 36.1722 42.4243 36.0458 42.4218 35.9193V35.8541C42.2943 35.9657 42.1489 36.0549 41.9916 36.1178C41.8314 36.1829 41.66 36.2161 41.4871 36.2156C41.2876 36.2272 41.088 36.1929 40.9038 36.1153C40.7197 36.0378 40.5558 35.919 40.4249 35.7681C40.1461 35.3717 40.014 34.8909 40.0511 34.4079C40.0474 34.1542 40.0866 33.9018 40.1668 33.6611C40.2359 33.4543 40.3447 33.2631 40.4872 33.098C40.6168 32.9497 40.7781 32.8323 40.959 32.7543C41.1413 32.6738 41.3383 32.6324 41.5376 32.6327C41.7023 32.6298 41.8666 32.6528 42.0242 32.7009C42.1627 32.745 42.2944 32.8078 42.4158 32.8876L42.4574 32.7305H43.5256L43.5168 35.8511ZM48.65 32.1852H48.5698L48.3711 32.1348C48.2874 32.1156 48.2018 32.1057 48.1159 32.1052C47.9537 32.0861 47.7902 32.1295 47.659 32.2267C47.5628 32.3595 47.5194 32.5232 47.5373 32.6861V32.7157H48.4274V33.4833H47.5877V36.2601H46.4928V33.4892H46.0506V32.7039H46.4928V32.6061C46.4791 32.4288 46.5025 32.2507 46.5612 32.0829C46.6199 31.915 46.7128 31.7612 46.834 31.6311C47.1229 31.3928 47.4931 31.276 47.8666 31.3051C48.0268 31.3051 48.1762 31.311 48.3147 31.3228C48.435 31.3316 48.5549 31.3464 48.6737 31.3673L48.65 32.1852ZM50.0237 36.2571H48.92V32.7039H50.0237V36.2571ZM50.0563 32.2149H48.8903V31.3554H50.0563V32.2149ZM53.6169 35.6259C53.538 35.777 53.4242 35.907 53.2847 36.0052C53.1229 36.1213 52.9422 36.2086 52.7505 36.2631C52.5109 36.3285 52.2631 36.3594 52.0147 36.3549C51.7659 36.3559 51.5179 36.3271 51.2759 36.269C51.0774 36.224 50.8844 36.1574 50.7003 36.0704V35.1369H50.7923L50.9733 35.2703C51.0618 35.3302 51.1562 35.3808 51.2551 35.4214C51.3669 35.4731 51.4832 35.5147 51.6024 35.5459C51.7398 35.582 51.8815 35.6 52.0237 35.5992C52.1645 35.6025 52.3044 35.5783 52.436 35.5281C52.4867 35.514 52.5315 35.4838 52.5636 35.4421C52.5957 35.4005 52.6134 35.3495 52.6141 35.2969C52.6164 35.2614 52.6101 35.2259 52.5957 35.1933C52.5812 35.1608 52.559 35.1323 52.5311 35.1102C52.4334 35.0515 52.3257 35.0113 52.2135 34.9917L51.896 34.9235C51.7807 34.9029 51.6668 34.8752 51.5548 34.8405C51.3132 34.7769 51.0956 34.6441 50.9288 34.4583C50.7816 34.268 50.7069 34.0317 50.7181 33.7915C50.7181 33.6366 50.7556 33.484 50.8278 33.347C50.906 33.2006 51.0154 33.0731 51.1483 32.9735C51.3059 32.8583 51.4828 32.772 51.6706 32.7187C51.899 32.6525 52.1359 32.6206 52.3737 32.6238C52.6043 32.6218 52.8343 32.6467 53.0591 32.6979C53.2411 32.738 53.4183 32.7976 53.5874 32.8757V33.7648H53.4983C53.4401 33.7222 53.3797 33.6826 53.3173 33.6463C53.2397 33.5992 53.1595 33.5567 53.077 33.5188C52.9815 33.4752 52.8821 33.4405 52.7802 33.4151C52.6646 33.3874 52.5461 33.3735 52.4272 33.3736C52.2871 33.3696 52.1479 33.398 52.0206 33.4566C51.9747 33.4723 51.9344 33.5012 51.9049 33.5397C51.8753 33.5782 51.8577 33.6245 51.8545 33.6729C51.8528 33.7088 51.8595 33.7446 51.8739 33.7774C51.8883 33.8103 51.9101 33.8395 51.9376 33.8626C52.0461 33.9312 52.167 33.9775 52.2936 33.9989C52.3885 34.0226 52.4974 34.0453 52.62 34.0671C52.7407 34.088 52.8598 34.1177 52.9761 34.156C53.2051 34.216 53.4114 34.3417 53.5696 34.5175C53.7076 34.6982 53.7769 34.9218 53.7653 35.1488C53.7585 35.3136 53.7117 35.4743 53.6288 35.617L53.6169 35.6259ZM56.5812 36.2601L55.6228 34.7191L55.4538 34.9502V36.2601H54.3499V31.3554H55.4538V34.1026L56.5011 32.7187H57.8037L56.5634 34.2449L57.8957 36.2571L56.5812 36.2601ZM61.575 34.7013H59.1537C59.1588 34.8444 59.1942 34.9848 59.2576 35.1132C59.3126 35.2192 59.3932 35.3099 59.492 35.377C59.5928 35.4443 59.7057 35.4916 59.8244 35.5162C59.9599 35.5452 60.0982 35.5591 60.2367 35.5577C60.3645 35.5583 60.492 35.5444 60.6166 35.5162C60.7338 35.4901 60.8481 35.4524 60.9578 35.4036C61.0445 35.3654 61.1288 35.3219 61.2101 35.2732C61.2872 35.2278 61.3495 35.1863 61.397 35.1488H61.5127V36.0585L61.2664 36.1564C61.1697 36.1937 61.0706 36.2244 60.9697 36.2482C60.8476 36.2802 60.7238 36.3049 60.5988 36.3223C60.4443 36.3418 60.2887 36.3508 60.133 36.349C59.5787 36.3859 59.0305 36.2147 58.596 35.8689C58.4131 35.6941 58.2706 35.4816 58.1784 35.2461C58.0862 35.0107 58.0464 34.758 58.0619 34.5057C58.0494 34.2535 58.0869 34.0014 58.1725 33.7639C58.258 33.5263 58.3898 33.3081 58.5603 33.1217C58.7442 32.9439 58.9632 32.8062 59.2033 32.7174C59.4434 32.6286 59.6994 32.5907 59.9549 32.6061C60.1786 32.5891 60.4033 32.6193 60.6144 32.6949C60.8256 32.7705 61.0184 32.8897 61.1804 33.0447C61.4727 33.3947 61.6192 33.8434 61.5898 34.2982L61.575 34.7013ZM65.4768 34.7013H63.0556C63.0606 34.8444 63.096 34.9848 63.1594 35.1132C63.2144 35.2192 63.295 35.3099 63.3939 35.377C63.4946 35.4443 63.6075 35.4916 63.7262 35.5162C63.8618 35.5452 64.0001 35.5591 64.1387 35.5577C64.2665 35.5583 64.3938 35.5444 64.5184 35.5162C64.6356 35.4901 64.7499 35.4524 64.8596 35.4036C64.9463 35.3654 65.0306 35.3219 65.1119 35.2732C65.189 35.2278 65.2513 35.1863 65.2988 35.1488H65.4145V36.0585L65.1682 36.1564C65.0715 36.1937 64.9724 36.2244 64.8715 36.2482C64.7494 36.2802 64.6256 36.3049 64.5006 36.3223C64.3461 36.3418 64.1905 36.3508 64.0348 36.349C63.4805 36.3859 62.9323 36.2147 62.4978 35.8689C62.3149 35.6941 62.1725 35.4816 62.0802 35.2461C61.988 35.0107 61.9482 34.758 61.9637 34.5057C61.9512 34.2535 61.9887 34.0014 62.0743 33.7639C62.1598 33.5263 62.2917 33.3081 62.4621 33.1217C62.6461 32.9439 62.865 32.8062 63.1051 32.7174C63.3452 32.6286 63.6012 32.5907 63.8568 32.6061C64.0804 32.5891 64.3051 32.6193 64.5163 32.6949C64.7274 32.7705 64.9202 32.8897 65.0822 33.0447C65.3745 33.3947 65.521 33.8434 65.4916 34.2982L65.4768 34.7013ZM69.4291 36.2601H68.3194V34.482C68.3194 34.3397 68.3135 34.1975 68.3016 34.0552C68.2975 33.9476 68.2754 33.8414 68.2363 33.7411C68.2035 33.6666 68.1459 33.6058 68.0731 33.5692C67.9796 33.5289 67.8781 33.5106 67.7764 33.5159C67.6822 33.5163 67.5887 33.5334 67.5004 33.5663C67.3949 33.6065 67.2952 33.6602 67.2037 33.7263V36.2601H66.1V32.7039H67.2037V33.095C67.365 32.9552 67.5424 32.8348 67.7319 32.7365C67.9088 32.6485 68.104 32.6038 68.3016 32.6061C68.4569 32.5958 68.6125 32.6212 68.7565 32.6803C68.9005 32.7394 69.0291 32.8305 69.1323 32.9469C69.3451 33.2315 69.4502 33.5821 69.4291 33.9367V36.2601ZM72.5446 33.4892H71.4825V34.7428C71.4825 34.8672 71.4825 34.9739 71.4825 35.0687C71.4831 35.1542 71.5002 35.2387 71.5329 35.3177C71.5635 35.3923 71.619 35.4541 71.6901 35.4925C71.7916 35.5416 71.9039 35.564 72.0165 35.5577C72.0949 35.5544 72.1726 35.5414 72.2479 35.5192C72.3165 35.5039 72.3833 35.481 72.4468 35.451H72.5417V36.2305C72.4158 36.2631 72.2879 36.2878 72.1589 36.3045C71.9945 36.3241 71.829 36.333 71.6634 36.3312C71.313 36.3611 70.9637 36.262 70.6813 36.0527C70.5716 35.9303 70.4887 35.7864 70.4376 35.6303C70.3865 35.4742 70.3684 35.3092 70.3846 35.1458V33.4922H69.9335V32.7039H70.3549V31.6933H71.4587V32.7039H72.521L72.5446 33.4892ZM76.3515 36.2601H75.2478V35.8689C75.0853 36.0088 74.9081 36.131 74.7196 36.2334C74.5425 36.3202 74.3471 36.3629 74.1499 36.3579C73.9969 36.3663 73.8439 36.341 73.7018 36.2836C73.5597 36.2263 73.4321 36.1383 73.328 36.026C73.1106 35.7391 73.0052 35.3831 73.0313 35.0243V32.7039H74.1411V34.4583C74.1411 34.64 74.1411 34.7892 74.1411 34.9058C74.1469 35.0077 74.17 35.1079 74.2093 35.2021C74.2416 35.2735 74.2969 35.3319 74.3665 35.3681C74.4594 35.4104 74.5612 35.4297 74.6632 35.4244C74.7577 35.4212 74.851 35.4021 74.9392 35.3681C75.0449 35.3309 75.1448 35.279 75.2359 35.214V32.7039H76.3396L76.3515 36.2601ZM79.9449 35.6289C79.8659 35.7799 79.752 35.91 79.6125 36.0082C79.4508 36.1243 79.27 36.2115 79.0783 36.266C78.8387 36.3315 78.5909 36.3624 78.3425 36.3579C78.0937 36.3589 77.8457 36.33 77.6037 36.2719C77.4052 36.2269 77.2122 36.1604 77.0281 36.0734V35.1399H77.1201L77.3011 35.2732C77.3896 35.3331 77.484 35.3838 77.5829 35.4244C77.6947 35.4761 77.811 35.5177 77.9302 35.5488C78.0677 35.585 78.2093 35.603 78.3515 35.6022C78.4923 35.6054 78.6322 35.5813 78.7638 35.5311C78.8145 35.517 78.8593 35.4868 78.8915 35.4451C78.9236 35.4034 78.9412 35.3525 78.9419 35.2999C78.9442 35.2644 78.9379 35.2288 78.9235 35.1963C78.909 35.1638 78.8868 35.1353 78.8588 35.1132C78.7612 35.0545 78.6535 35.0143 78.5413 34.9947L78.2238 34.9265C78.1085 34.9059 77.9946 34.8781 77.8826 34.8435C77.641 34.7799 77.4234 34.647 77.2566 34.4612C77.1094 34.271 77.0348 34.0346 77.0459 33.7944C77.0459 33.6396 77.0834 33.487 77.1556 33.3499C77.2338 33.2036 77.3432 33.0761 77.4761 32.9765C77.6337 32.8613 77.8106 32.775 77.9984 32.7217C78.2268 32.6555 78.4637 32.6235 78.7015 32.6268C78.9321 32.6248 79.1621 32.6497 79.3869 32.7009C79.5689 32.741 79.7461 32.8006 79.9152 32.8787V33.7678H79.8261C79.7679 33.7251 79.7075 33.6855 79.6451 33.6492C79.5675 33.6022 79.4873 33.5596 79.4048 33.5218C79.3093 33.4782 79.2099 33.4434 79.108 33.4181C78.9924 33.3904 78.8739 33.3764 78.755 33.3766C78.6149 33.3725 78.4757 33.4009 78.3484 33.4596C78.3025 33.4752 78.2622 33.5041 78.2327 33.5426C78.2031 33.5811 78.1855 33.6275 78.1823 33.6759C78.1806 33.7118 78.1873 33.7475 78.2017 33.7804C78.2161 33.8133 78.2379 33.8424 78.2654 33.8656C78.3739 33.9342 78.4948 33.9805 78.6214 34.0019C78.7163 34.0256 78.8252 34.0483 78.9478 34.07C79.0685 34.091 79.1876 34.1207 79.3039 34.159C79.5329 34.2189 79.7392 34.3446 79.8974 34.5205C80.0354 34.7011 80.1048 34.9248 80.0932 35.1517C80.0797 35.3173 80.0256 35.4771 79.9359 35.617L79.9449 35.6289ZM81.7578 36.2601H80.6539V32.7039H81.7578V36.2601ZM81.7904 32.2178H80.6154V31.3584H81.7816L81.7904 32.2178ZM85.7219 36.2601H84.624V35.8837L84.4193 36.0527C84.3453 36.1122 84.2646 36.1629 84.1789 36.2038C84.0838 36.25 83.9845 36.2867 83.8822 36.3134C83.7538 36.3425 83.6222 36.3554 83.4906 36.352C83.3459 36.3562 83.2018 36.3304 83.0675 36.2763C82.9332 36.2223 82.8116 36.1411 82.7102 36.0378C82.6099 35.9321 82.5319 35.8073 82.4809 35.6709C82.4299 35.5344 82.4071 35.3891 82.4135 35.2436C82.403 35.0205 82.4576 34.7991 82.5707 34.6065C82.683 34.4382 82.8404 34.3047 83.0248 34.2212C83.2512 34.1172 83.4924 34.0492 83.7398 34.0196C84.0167 33.9821 84.3134 33.9525 84.6299 33.9308V33.8893C84.638 33.8078 84.6217 33.7258 84.5831 33.6535C84.5446 33.5813 84.4855 33.522 84.4133 33.4833C84.2082 33.3966 83.9859 33.3581 83.7635 33.3706C83.6088 33.3744 83.4552 33.3983 83.3066 33.4418C83.1321 33.489 82.9616 33.5494 82.7963 33.6225H82.6924V32.769C82.8012 32.7374 82.9783 32.6999 83.2236 32.6564C83.4675 32.6131 83.7146 32.5913 83.9623 32.5912C84.4262 32.5529 84.8909 32.6562 85.2946 32.8876C85.4358 32.9956 85.5479 33.1368 85.6209 33.2987C85.6939 33.4606 85.7256 33.6381 85.7131 33.8152L85.7219 36.2601ZM89.2825 35.6289C89.2036 35.7799 89.0896 35.91 88.9502 36.0082C88.7884 36.1243 88.6077 36.2115 88.4161 36.266C88.1765 36.3315 87.9287 36.3624 87.6803 36.3579C87.4314 36.3589 87.1833 36.33 86.9414 36.2719C86.7428 36.2269 86.5498 36.1604 86.3658 36.0734V35.1399H86.4578L86.6387 35.2732C86.7273 35.3331 86.8218 35.3838 86.9207 35.4244C87.0325 35.4761 87.1486 35.5177 87.2678 35.5488C87.4053 35.585 87.5469 35.603 87.6891 35.6022C87.8299 35.6054 87.97 35.5813 88.1016 35.5311C88.1523 35.517 88.1971 35.4868 88.2292 35.4451C88.2613 35.4034 88.279 35.3525 88.2797 35.2999C88.282 35.2644 88.2757 35.2288 88.2613 35.1963C88.2468 35.1638 88.2245 35.1353 88.1965 35.1132C88.0989 35.0545 87.9913 35.0143 87.8791 34.9947L87.5616 34.9265C87.4463 34.9059 87.3322 34.8781 87.2203 34.8435C86.9787 34.7799 86.7611 34.647 86.5942 34.4612C86.447 34.271 86.3724 34.0346 86.3836 33.7944C86.3835 33.6396 86.4212 33.487 86.4934 33.3499C86.5716 33.2036 86.681 33.0761 86.8139 32.9765C86.9715 32.8613 87.1482 32.775 87.336 32.7217C87.5645 32.6555 87.8015 32.6235 88.0393 32.6268C88.2699 32.6248 88.4999 32.6497 88.7247 32.7009C88.9067 32.741 89.0837 32.8006 89.2528 32.8787V33.7678H89.1639C89.1056 33.7251 89.0453 33.6855 88.9829 33.6492C88.9053 33.6022 88.825 33.5596 88.7426 33.5218C88.6471 33.4782 88.5477 33.4434 88.4458 33.4181C88.3302 33.3904 88.2117 33.3764 88.0928 33.3766C87.9527 33.3725 87.8135 33.4009 87.6862 33.4596C87.6402 33.4752 87.5999 33.5041 87.5703 33.5426C87.5408 33.5811 87.5233 33.6275 87.52 33.6759C87.5184 33.7118 87.525 33.7475 87.5394 33.7804C87.5539 33.8133 87.5756 33.8424 87.6031 33.8656C87.7115 33.9342 87.8326 33.9805 87.9592 34.0019C88.0541 34.0256 88.1629 34.0483 88.2856 34.07C88.4063 34.091 88.5252 34.1207 88.6416 34.159C88.8705 34.2189 89.0768 34.3446 89.235 34.5205C89.373 34.7011 89.4424 34.9248 89.4309 35.1517C89.4173 35.3173 89.3634 35.4771 89.2737 35.617L89.2825 35.6289ZM92.2259 33.4892H91.1637V34.7428C91.1637 34.8672 91.1637 34.9739 91.1637 35.0687C91.1643 35.1542 91.1815 35.2387 91.2142 35.3177C91.2449 35.3923 91.3004 35.4541 91.3714 35.4925C91.4729 35.5416 91.5853 35.564 91.6979 35.5577C91.7763 35.5544 91.854 35.5414 91.9292 35.5192C91.9978 35.5039 92.0645 35.481 92.128 35.451H92.223V36.2305C92.0971 36.2631 91.9693 36.2878 91.8403 36.3045C91.6759 36.3241 91.5103 36.333 91.3448 36.3312C90.9943 36.3611 90.645 36.262 90.3626 36.0527C90.253 35.9303 90.17 35.7864 90.1189 35.6303C90.0679 35.4742 90.0498 35.3092 90.0659 35.1458V33.4922H89.6446V32.7039H90.0659V31.6933H91.1696V32.7039H92.2319L92.2259 33.4892ZM96.0122 34.6983H93.5909C93.5959 34.8414 93.6313 34.9818 93.6948 35.1102C93.7497 35.2163 93.8303 35.3069 93.9292 35.374C94.0299 35.4414 94.1428 35.4887 94.2615 35.5133C94.3971 35.5422 94.5353 35.5561 94.6739 35.5548C94.8016 35.5553 94.9291 35.5414 95.0538 35.5133C95.171 35.4872 95.2852 35.4494 95.395 35.4007C95.4817 35.3625 95.5659 35.3189 95.6472 35.2703C95.7243 35.2248 95.7866 35.1833 95.8341 35.1458H95.9498V36.0556L95.7036 36.1534C95.6069 36.1908 95.5077 36.2214 95.4068 36.2453C95.2848 36.2772 95.1609 36.3019 95.0359 36.3193C94.8814 36.3389 94.7257 36.3478 94.57 36.346C94.0157 36.383 93.4676 36.2117 93.0331 35.8659C92.8502 35.6911 92.7076 35.4786 92.6154 35.2432C92.5232 35.0078 92.4834 34.755 92.4989 34.5027C92.4864 34.2506 92.524 33.9985 92.6096 33.7609C92.6952 33.5234 92.827 33.3051 92.9974 33.1188C93.1814 32.9409 93.4003 32.8032 93.6404 32.7144C93.8805 32.6256 94.1365 32.5878 94.3921 32.6031C94.6157 32.5861 94.8404 32.6164 95.0516 32.692C95.2627 32.7675 95.4555 32.8867 95.6175 33.0417C95.9098 33.3917 96.0563 33.8404 96.0269 34.2953L96.0122 34.6983ZM99.0238 33.7618H98.9318C98.8719 33.744 98.8102 33.733 98.7478 33.7292C98.6687 33.7292 98.5808 33.7292 98.4838 33.7292C98.3605 33.7302 98.2378 33.7471 98.1189 33.7796C97.9931 33.8122 97.8693 33.8518 97.748 33.8982V36.269H96.6382V32.7039H97.742V33.2106C97.7915 33.1652 97.8617 33.1069 97.9527 33.0358C98.0296 32.9736 98.1109 32.9172 98.196 32.8669C98.2839 32.8149 98.3774 32.7732 98.4748 32.7424C98.5705 32.7103 98.6706 32.6933 98.7716 32.692H98.8902H99.009L99.0238 33.7618Z" fill="#3A3A3C"/>
<path d="M38.3271 33.6256C38.271 33.5453 38.1941 33.4818 38.1046 33.4419C38.0152 33.4052 37.9192 33.387 37.8226 33.3885C37.7317 33.387 37.6412 33.402 37.5556 33.433C37.4667 33.4697 37.3897 33.5302 37.3331 33.6078C37.261 33.7095 37.2097 33.8242 37.1818 33.9456C37.1402 34.1223 37.1213 34.3036 37.1255 34.485C37.1209 34.6614 37.1387 34.8377 37.1788 35.0096C37.206 35.1236 37.2533 35.232 37.3183 35.3296C37.3733 35.409 37.4493 35.4716 37.5378 35.5104C37.6317 35.5494 37.7328 35.5686 37.8345 35.5667C37.9274 35.566 38.0192 35.5469 38.1046 35.5104C38.1922 35.4758 38.2684 35.4173 38.3242 35.3415C38.3932 35.2428 38.4434 35.1323 38.4726 35.0155C38.511 34.8424 38.5279 34.6652 38.523 34.488C38.5261 34.3116 38.5081 34.1355 38.4695 33.9634C38.444 33.8428 38.3957 33.7281 38.3271 33.6256V33.6256Z" fill="#3A3A3C"/>
<path d="M83.8169 34.7161C83.7284 34.7445 83.6499 34.798 83.5914 34.8702C83.5345 34.9494 83.5062 35.0455 83.5112 35.1428C83.5037 35.2062 83.512 35.2705 83.5353 35.3299C83.5586 35.3894 83.5962 35.4422 83.6448 35.4836C83.7643 35.5528 83.9017 35.5847 84.0395 35.5755C84.1419 35.5745 84.2429 35.5523 84.3362 35.5103C84.4388 35.4654 84.5324 35.4021 84.6122 35.3236V34.5857L84.1582 34.6361C84.0417 34.6496 83.9273 34.6765 83.8169 34.7161V34.7161Z" fill="#3A3A3C"/>
<path d="M41.9825 33.4388C41.8702 33.4319 41.7579 33.4517 41.6548 33.4965C41.5516 33.5414 41.4606 33.6099 41.3891 33.6967C41.2434 33.9064 41.1724 34.159 41.1874 34.4138C41.1855 34.5439 41.1954 34.6738 41.2171 34.8021C41.2332 34.9077 41.2716 35.0087 41.3298 35.0984C41.3809 35.1767 41.4527 35.2393 41.5374 35.2792C41.6403 35.3238 41.7518 35.3451 41.8638 35.3414C41.9649 35.3416 42.0652 35.3245 42.1606 35.291C42.2582 35.2564 42.3502 35.2074 42.4335 35.1458V33.5426C42.3688 33.5145 42.3012 33.4936 42.2318 33.4803C42.1505 33.4575 42.0668 33.4436 41.9825 33.4388Z" fill="#3A3A3C"/>
<path d="M11.5927 33.6256C11.5366 33.5453 11.4597 33.4818 11.3702 33.4419C11.2808 33.4052 11.185 33.387 11.0884 33.3885C10.9974 33.387 10.9068 33.402 10.8212 33.433C10.7324 33.4697 10.6553 33.5302 10.5987 33.6078C10.5267 33.7095 10.4753 33.8242 10.4474 33.9456C10.4059 34.1223 10.3869 34.3036 10.3911 34.485C10.3865 34.6614 10.4043 34.8377 10.4444 35.0096C10.4717 35.1236 10.5189 35.232 10.5839 35.3296C10.639 35.409 10.715 35.4716 10.8036 35.5104C10.8975 35.5494 10.9985 35.5686 11.1003 35.5667C11.1931 35.566 11.2848 35.5469 11.3702 35.5104C11.4578 35.4758 11.534 35.4173 11.5898 35.3415C11.6588 35.2428 11.7091 35.1323 11.7382 35.0155C11.7766 34.8424 11.7935 34.6652 11.7886 34.488C11.7917 34.3116 11.7738 34.1355 11.7352 33.9634C11.7096 33.8428 11.6613 33.7281 11.5927 33.6256V33.6256Z" fill="#3A3A3C"/>
<path d="M63.7468 33.2967C63.6539 33.2914 63.561 33.3058 63.474 33.339C63.3871 33.3722 63.3082 33.4235 63.2425 33.4893C63.1153 33.6347 63.0446 33.8209 63.0436 34.0139H64.3788C64.3862 33.8228 64.3288 33.6348 64.2157 33.4804C64.1566 33.4163 64.0836 33.3665 64.0024 33.3347C63.9212 33.3028 63.8338 33.2898 63.7468 33.2967V33.2967Z" fill="#3A3A3C"/>
<path d="M5.76233 36.2452H6.93733V34.23H8.75028V33.335H6.93733V32.4489H8.90754V31.554H5.76233V36.2452Z" fill="white"/>
<path d="M11.0913 32.597C10.8437 32.582 10.5957 32.6188 10.3632 32.705C10.1308 32.7913 9.91896 32.9251 9.74126 33.0979C9.4298 33.4898 9.26025 33.9755 9.26025 34.4759C9.26025 34.9763 9.4298 35.462 9.74126 35.8539C10.1175 36.1753 10.5962 36.3519 11.0913 36.3519C11.5863 36.3519 12.0652 36.1753 12.4414 35.8539C12.7512 35.4618 12.9195 34.9769 12.9195 34.4774C12.9195 33.9779 12.7512 33.493 12.4414 33.1008C12.264 32.9275 12.0521 32.7932 11.8196 32.7064C11.5871 32.6196 11.339 32.5824 11.0913 32.597V32.597ZM11.7382 35.0123C11.709 35.1291 11.6588 35.2396 11.5898 35.3383C11.534 35.4141 11.4578 35.4726 11.3702 35.5072C11.2848 35.5437 11.1931 35.5628 11.1003 35.5635C10.9985 35.5654 10.8975 35.5463 10.8035 35.5072C10.715 35.4684 10.6389 35.4058 10.5839 35.3264C10.5189 35.2288 10.4716 35.1204 10.4444 35.0064C10.4043 34.8345 10.3864 34.6582 10.3911 34.4818C10.3869 34.3004 10.4058 34.1192 10.4474 33.9425C10.4753 33.8211 10.5266 33.7063 10.5987 33.6046C10.6553 33.527 10.7323 33.4665 10.8212 33.4298C10.9068 33.3988 10.9974 33.3838 11.0884 33.3853C11.185 33.3838 11.2808 33.402 11.3702 33.4387C11.4597 33.4786 11.5366 33.5421 11.5927 33.6224C11.6609 33.724 11.7092 33.8377 11.7351 33.9573C11.7737 34.1294 11.7917 34.3055 11.7886 34.4818C11.7937 34.6601 11.7768 34.8382 11.7382 35.0123V35.0123Z" fill="white"/>
<path d="M15.7112 32.7039C15.6103 32.7051 15.5102 32.7221 15.4145 32.7543C15.3171 32.785 15.2236 32.8268 15.1356 32.8787C15.0505 32.929 14.9693 32.9855 14.8924 33.0476C14.8033 33.1188 14.7331 33.177 14.6817 33.2225V32.7039H13.5571V36.2601H14.661V33.8893C14.7823 33.8429 14.9061 33.8033 15.0319 33.7707C15.1508 33.7382 15.2735 33.7213 15.3968 33.7204C15.4938 33.7204 15.5817 33.7204 15.6608 33.7204C15.7232 33.7242 15.7849 33.7351 15.8448 33.753H15.9368V32.7039H15.8182H15.7112Z" fill="white"/>
<path d="M18.1532 33.4773H18.7912V35.9222C18.8066 36.1429 18.7668 36.3639 18.6754 36.5653C18.6279 36.6343 18.5624 36.6889 18.486 36.7234C18.4097 36.7578 18.3254 36.7708 18.2422 36.7609C18.1716 36.7592 18.1012 36.7522 18.0315 36.7402C17.9511 36.7275 17.8716 36.7087 17.7941 36.6839H17.7111V37.4959C17.8295 37.5219 17.9494 37.5407 18.0701 37.5522C18.2524 37.5708 18.4357 37.5797 18.619 37.5788C18.9588 37.5933 19.2905 37.4729 19.5418 37.244C19.6635 37.1221 19.7582 36.976 19.8195 36.8152C19.8809 36.6543 19.9076 36.4823 19.8979 36.3105V32.7039H18.1561L18.1532 33.4773Z" fill="white"/>
<path d="M19.8979 31.3435H18.72V32.2029H19.8979V31.3435Z" fill="white"/>
<path d="M23.4376 32.9113C23.0339 32.68 22.5693 32.5766 22.1054 32.615C21.8577 32.6151 21.6104 32.6369 21.3665 32.6802C21.1232 32.7237 20.9462 32.7612 20.8354 32.7928V33.6463H20.9304C21.0957 33.5732 21.2662 33.5128 21.4407 33.4655C21.5893 33.4221 21.7429 33.3982 21.8977 33.3944C22.12 33.3818 22.3423 33.4204 22.5475 33.507C22.6196 33.5458 22.6787 33.6051 22.7173 33.6773C22.7558 33.7495 22.7721 33.8316 22.7641 33.913V33.9308C22.4436 33.9526 22.1469 33.9822 21.8739 34.0197C21.6265 34.0493 21.3853 34.1173 21.1589 34.2212C20.9745 34.3047 20.8171 34.4382 20.7049 34.6065C20.5917 34.7992 20.5372 35.0205 20.5477 35.2436C20.5412 35.3891 20.5641 35.5345 20.615 35.6709C20.666 35.8074 20.7441 35.9322 20.8444 36.0379C20.9458 36.1411 21.0674 36.2223 21.2017 36.2764C21.3359 36.3304 21.48 36.3562 21.6247 36.352C21.7564 36.3555 21.8879 36.3426 22.0163 36.3135C22.1186 36.2868 22.218 36.25 22.313 36.2039C22.3988 36.163 22.4794 36.1122 22.5534 36.0527L22.7581 35.8838V36.2601H23.856V33.8538C23.8711 33.6742 23.8408 33.4938 23.7677 33.3291C23.6945 33.1644 23.581 33.0207 23.4376 32.9113ZM22.7581 35.3237C22.6783 35.4022 22.5849 35.4654 22.4823 35.5104C22.389 35.5524 22.2879 35.5746 22.1855 35.5756C22.0478 35.5848 21.9104 35.5528 21.7909 35.4837C21.7423 35.4422 21.7046 35.3894 21.6814 35.33C21.6581 35.2705 21.6498 35.2063 21.6573 35.1429C21.6523 35.0456 21.6805 34.9494 21.7374 34.8703C21.796 34.7981 21.8744 34.7445 21.963 34.7162C22.0733 34.6766 22.1878 34.6497 22.3042 34.6361L22.7581 34.5857V35.3237Z" fill="white"/>
<path d="M28.1942 32.7067H26.8916L25.8441 34.0907V31.3435H24.7404V36.2452H25.8441V34.9353L26.0133 34.7042L26.9717 36.2452H28.2861L26.9539 34.233L28.1942 32.7067Z" fill="white"/>
<path d="M29.8765 31.6963H28.7726V32.7039H28.3513V33.4714H28.7726V35.1251C28.7565 35.2885 28.7746 35.4535 28.8257 35.6096C28.8767 35.7657 28.9597 35.9095 29.0694 36.0319C29.3518 36.2413 29.7011 36.3404 30.0515 36.3105C30.2171 36.3123 30.3826 36.3034 30.547 36.2838C30.676 36.2671 30.8039 36.2424 30.9298 36.2097V35.4303H30.8349C30.7713 35.4603 30.7047 35.4832 30.6361 35.4985C30.5608 35.5207 30.483 35.5337 30.4046 35.537C30.292 35.5433 30.1798 35.5208 30.0783 35.4718C30.0073 35.4334 29.9516 35.3716 29.921 35.297C29.8883 35.218 29.8712 35.1335 29.8705 35.048C29.8705 34.9562 29.8705 34.8465 29.8705 34.7221V33.4685H30.9328V32.7039H29.8765V31.6963Z" fill="white"/>
<path d="M33.4639 33.738H31.3721V34.6152H33.4639V33.738Z" fill="white"/>
<path d="M37.8256 32.597C37.5781 32.582 37.3301 32.6188 37.0976 32.705C36.8651 32.7913 36.6533 32.9251 36.4756 33.0979C36.1642 33.4898 35.9946 33.9755 35.9946 34.4759C35.9946 34.9763 36.1642 35.462 36.4756 35.8539C36.8519 36.1753 37.3306 36.3519 37.8256 36.3519C38.3207 36.3519 38.7994 36.1753 39.1757 35.8539C39.4854 35.4618 39.6539 34.9769 39.6539 34.4774C39.6539 33.9779 39.4854 33.493 39.1757 33.1008C38.9982 32.9275 38.7865 32.7932 38.554 32.7064C38.3215 32.6196 38.0734 32.5824 37.8256 32.597V32.597ZM38.4725 35.0123C38.4434 35.1291 38.3931 35.2396 38.3242 35.3383C38.2683 35.4141 38.1922 35.4726 38.1045 35.5072C38.0192 35.5437 37.9273 35.5628 37.8345 35.5635C37.7327 35.5654 37.6317 35.5463 37.5378 35.5072C37.4492 35.4684 37.3733 35.4058 37.3183 35.3264C37.2533 35.2288 37.206 35.1204 37.1788 35.0064C37.1387 34.8345 37.1208 34.6582 37.1254 34.4818C37.1213 34.3004 37.1402 34.1192 37.1818 33.9425C37.2097 33.8211 37.261 33.7063 37.333 33.6046C37.3897 33.527 37.4667 33.4665 37.5556 33.4298C37.6412 33.3988 37.7316 33.3838 37.8226 33.3853C37.9192 33.3838 38.0152 33.402 38.1045 33.4387C38.194 33.4786 38.271 33.5421 38.3271 33.6224C38.3953 33.724 38.4436 33.8377 38.4695 33.9573C38.5081 34.1294 38.5261 34.3055 38.523 34.4818C38.531 34.6597 38.517 34.8379 38.4814 35.0123H38.4725Z" fill="white"/>
<path d="M42.4189 32.8667C42.2974 32.7869 42.1657 32.7241 42.0273 32.68C41.8696 32.632 41.7054 32.6089 41.5406 32.6118C41.3413 32.6114 41.1442 32.6528 40.9619 32.7333C40.781 32.8114 40.6199 32.9289 40.4902 33.0771C40.3477 33.2422 40.2388 33.4335 40.1697 33.6402C40.0895 33.8809 40.0503 34.1333 40.054 34.387C40.0169 34.87 40.1492 35.3508 40.4279 35.7472C40.5588 35.8981 40.7227 36.0168 40.9069 36.0944C41.091 36.172 41.2906 36.2063 41.4902 36.1947C41.6631 36.1952 41.8343 36.162 41.9945 36.0969C42.1518 36.0339 42.2974 35.9448 42.4248 35.8332V35.8984C42.4273 36.0249 42.4144 36.1513 42.3863 36.2748C42.363 36.371 42.3171 36.4603 42.2527 36.5356C42.1716 36.6179 42.0687 36.6755 41.956 36.7015C41.7168 36.764 41.4673 36.7762 41.2232 36.7371C41.1361 36.7232 41.0481 36.7045 40.959 36.6808L40.7335 36.6126L40.5406 36.5444H40.4101V37.4335C40.592 37.4787 40.7762 37.5143 40.9619 37.5402C41.1841 37.5711 41.4083 37.5859 41.6326 37.5846C41.8893 37.5873 42.1454 37.5584 42.3951 37.4987C42.6121 37.4441 42.8146 37.3429 42.9885 37.2023C43.1629 37.0606 43.2969 36.8756 43.3773 36.6659C43.4789 36.3993 43.5272 36.1154 43.5197 35.8302V32.7037H42.4515L42.4189 32.8667ZM42.4189 35.1338C42.3355 35.1954 42.2436 35.2443 42.1459 35.279C42.0506 35.3125 41.9502 35.3295 41.8492 35.3294C41.7371 35.333 41.6256 35.3118 41.5228 35.2672C41.4381 35.2273 41.3661 35.1647 41.315 35.0864C41.2568 34.9967 41.2184 34.8957 41.2023 34.79C41.1806 34.6618 41.1707 34.5318 41.1726 34.4018C41.1576 34.1469 41.2287 33.8944 41.3744 33.6846C41.4459 33.5979 41.537 33.5293 41.6401 33.4845C41.7433 33.4397 41.8556 33.4199 41.9678 33.4268C42.0487 33.4273 42.1292 33.4363 42.2082 33.4535C42.2776 33.4667 42.3453 33.4876 42.41 33.5157L42.4189 35.1338Z" fill="white"/>
<path d="M47.8546 31.311C47.4811 31.2819 47.1109 31.3988 46.8221 31.637C46.7008 31.7671 46.608 31.921 46.5492 32.0888C46.4905 32.2566 46.4672 32.4347 46.4809 32.612V32.7098H46.0388V33.4773H46.4927V36.2601H47.5966V33.4892H48.4362V32.7039H47.546V32.6742C47.5282 32.5114 47.5716 32.3476 47.6677 32.2149C47.799 32.1177 47.9624 32.0742 48.1247 32.0934C48.2106 32.0938 48.2961 32.1038 48.3798 32.123L48.5786 32.1734H48.6647V31.3732C48.5458 31.3524 48.426 31.3375 48.3056 31.3288C48.1652 31.3169 48.0149 31.311 47.8546 31.311Z" fill="white"/>
<path d="M50.0386 32.7068H48.9348V36.2452H50.0386V32.7068Z" fill="white"/>
<path d="M50.0682 31.3435H48.9021V32.2029H50.0682V31.3435Z" fill="white"/>
<path d="M52.9701 34.1501C52.8538 34.1118 52.7347 34.0821 52.614 34.0611C52.4914 34.0394 52.3826 34.0167 52.2876 33.993C52.161 33.9716 52.0401 33.9253 51.9316 33.8567C51.9041 33.8335 51.8823 33.8044 51.8679 33.7715C51.8535 33.7386 51.8468 33.7029 51.8485 33.667C51.8517 33.6186 51.8693 33.5722 51.8989 33.5337C51.9284 33.4952 51.9687 33.4663 52.0146 33.4507C52.1419 33.392 52.2811 33.3636 52.4212 33.3677C52.5401 33.3675 52.6586 33.3815 52.7743 33.4092C52.8762 33.4345 52.9755 33.4693 53.071 33.5129C53.1535 33.5507 53.2337 33.5933 53.3113 33.6403C53.3737 33.6767 53.4341 33.7163 53.4923 33.7589H53.5814V32.8698C53.4123 32.7917 53.2351 32.7321 53.0532 32.692C52.8283 32.6408 52.5983 32.6159 52.3677 32.6179C52.1299 32.6146 51.893 32.6466 51.6646 32.7128C51.4768 32.7661 51.2999 32.8524 51.1423 32.9676C51.0095 33.0672 50.9 33.1947 50.8218 33.341C50.7497 33.4781 50.7121 33.6307 50.7122 33.7856C50.701 34.0257 50.7756 34.2621 50.9228 34.4523C51.0896 34.6381 51.3072 34.771 51.5488 34.8346C51.6608 34.8693 51.7747 34.897 51.89 34.9176L52.2075 34.9858C52.3197 35.0054 52.4274 35.0456 52.5251 35.1043C52.553 35.1264 52.5752 35.1549 52.5897 35.1874C52.6042 35.2199 52.6104 35.2555 52.6081 35.291C52.6074 35.3436 52.5898 35.3945 52.5577 35.4362C52.5256 35.4779 52.4807 35.5081 52.43 35.5222C52.2985 35.5724 52.1585 35.5965 52.0177 35.5933C51.8755 35.5941 51.7339 35.5761 51.5964 35.5399C51.4772 35.5088 51.3609 35.4672 51.2491 35.4155C51.1502 35.3749 51.0558 35.3242 50.9673 35.2643L50.7863 35.131H50.6943V36.0645C50.8784 36.1515 51.0714 36.2181 51.27 36.2631C51.5119 36.3212 51.7599 36.35 52.0087 36.349C52.2571 36.3535 52.5049 36.3226 52.7446 36.2571C52.9362 36.2026 53.117 36.1154 53.2787 35.9993C53.4182 35.9011 53.5322 35.771 53.6111 35.62C53.6877 35.4736 53.7273 35.3109 53.7267 35.1458C53.7383 34.9189 53.669 34.6952 53.531 34.5146C53.382 34.3429 53.1876 34.2165 52.9701 34.1501V34.1501Z" fill="white"/>
<path d="M57.7948 32.7067H56.4922L55.4418 34.0907V31.3435H54.338V36.2452H55.4418V34.9353L55.6139 34.7042L56.5723 36.2452H57.8868L56.5545 34.233L57.7948 32.7067Z" fill="white"/>
<path d="M59.9311 32.5971C59.6755 32.5817 59.4195 32.6196 59.1794 32.7084C58.9394 32.7972 58.7204 32.9349 58.5365 33.1127C58.366 33.2991 58.2342 33.5174 58.1486 33.7549C58.063 33.9925 58.0255 34.2446 58.0381 34.4967C58.0226 34.749 58.0623 35.0017 58.1545 35.2372C58.2468 35.4726 58.3892 35.6851 58.5721 35.8599C59.0066 36.2057 59.5548 36.3769 60.1091 36.34C60.2649 36.3418 60.4205 36.3329 60.5749 36.3133C60.6999 36.2959 60.8238 36.2712 60.9458 36.2393C61.0467 36.2154 61.1459 36.1847 61.2426 36.1474L61.4889 36.0496V35.1398H61.3731C61.3256 35.1753 61.2633 35.2168 61.1862 35.2642C61.1049 35.3129 61.0207 35.3564 60.934 35.3946C60.8242 35.4434 60.71 35.4811 60.5928 35.5072C60.4681 35.5354 60.3408 35.5493 60.213 35.5487C60.0744 35.5501 59.9361 35.5362 59.8005 35.5072C59.6818 35.4826 59.5689 35.4354 59.4682 35.368C59.3693 35.3009 59.2887 35.2102 59.2338 35.1042C59.1703 34.9758 59.1349 34.8354 59.1299 34.6923H61.5512V34.2952C61.5806 33.8403 61.434 33.3916 61.1417 33.0416C60.982 32.8875 60.7918 32.7683 60.5833 32.6918C60.3749 32.6152 60.1527 32.583 59.9311 32.5971V32.5971ZM59.1418 34.0225C59.1428 33.8295 59.2133 33.6433 59.3405 33.498C59.4062 33.4321 59.4853 33.3809 59.5722 33.3477C59.6592 33.3145 59.7521 33.3001 59.845 33.3054C59.932 33.2985 60.0194 33.3115 60.1006 33.3433C60.1818 33.3751 60.2548 33.425 60.3139 33.4891C60.427 33.6434 60.4844 33.8314 60.477 34.0225H59.1418Z" fill="white"/>
<path d="M63.8328 32.5971C63.5773 32.5817 63.3214 32.6196 63.0813 32.7084C62.8412 32.7972 62.6223 32.9349 62.4383 33.1127C62.2679 33.2991 62.1359 33.5174 62.0503 33.7549C61.9648 33.9925 61.9273 34.2446 61.9398 34.4967C61.9243 34.749 61.964 35.0017 62.0563 35.2372C62.1485 35.4726 62.291 35.6851 62.4738 35.8599C62.9083 36.2057 63.4565 36.3769 64.0109 36.34C64.1666 36.3418 64.3222 36.3329 64.4767 36.3133C64.6017 36.2959 64.7255 36.2712 64.8476 36.2393C64.9485 36.2154 65.0476 36.1847 65.1443 36.1474L65.3906 36.0496V35.1398H65.2748C65.2274 35.1753 65.1651 35.2168 65.0879 35.2642C65.0067 35.3129 64.9224 35.3564 64.8357 35.3946C64.726 35.4434 64.6117 35.4811 64.4945 35.5072C64.3699 35.5354 64.2425 35.5493 64.1148 35.5487C63.9762 35.5501 63.8378 35.5362 63.7023 35.5072C63.5836 35.4826 63.4707 35.4354 63.3699 35.368C63.271 35.3009 63.1904 35.2102 63.1355 35.1042C63.0721 34.9758 63.0368 34.8354 63.0318 34.6923H65.4529V34.2952C65.4823 33.8403 65.3358 33.3916 65.0435 33.0416C64.8837 32.8875 64.6935 32.7683 64.4851 32.6918C64.2766 32.6152 64.0545 32.583 63.8328 32.5971V32.5971ZM63.0435 34.0225C63.0445 33.8295 63.1152 33.6433 63.2424 33.498C63.3081 33.4321 63.387 33.3809 63.4739 33.3477C63.5609 33.3145 63.6538 33.3001 63.7468 33.3054C63.8337 33.2985 63.9211 33.3115 64.0023 33.3433C64.0836 33.3751 64.1565 33.425 64.2156 33.4891C64.3287 33.6434 64.3862 33.8314 64.3787 34.0225H63.0435Z" fill="white"/>
<path d="M68.3016 32.6118C68.104 32.6096 67.9088 32.6543 67.7319 32.7422C67.5424 32.8406 67.365 32.961 67.2037 33.1008V32.7037H66.1V36.2599H67.2037V33.7528C67.2952 33.6868 67.3949 33.633 67.5004 33.5928C67.5887 33.5599 67.6822 33.5428 67.7764 33.5424C67.8781 33.5371 67.9796 33.5554 68.0731 33.5957C68.1459 33.6323 68.2035 33.6931 68.2363 33.7676C68.2754 33.868 68.2975 33.9741 68.3016 34.0818C68.3135 34.224 68.3194 34.3662 68.3194 34.5085V36.2599H69.4291V33.9573C69.4502 33.6027 69.3451 33.2521 69.1324 32.9675C69.0305 32.8485 68.9026 32.7545 68.7586 32.6928C68.6145 32.6311 68.4581 32.6034 68.3016 32.6118V32.6118Z" fill="white"/>
<path d="M71.4705 31.6963H70.3667V32.7039H69.9335V33.4714H70.3548V35.1251C70.3387 35.2885 70.3567 35.4535 70.4078 35.6096C70.4589 35.7657 70.5419 35.9095 70.6515 36.0319C70.9339 36.2413 71.2832 36.3404 71.6337 36.3105C71.7992 36.3123 71.9647 36.3034 72.1292 36.2838C72.2582 36.2671 72.386 36.2424 72.5119 36.2097V35.4303H72.417C72.3535 35.4603 72.2869 35.4832 72.2183 35.4985C72.143 35.5207 72.0652 35.5337 71.9867 35.537C71.8742 35.5433 71.7618 35.5208 71.6603 35.4718C71.5893 35.4334 71.5338 35.3716 71.5031 35.297C71.4704 35.218 71.4533 35.1335 71.4527 35.048C71.4527 34.9562 71.4527 34.8465 71.4527 34.7221V33.4685H72.515V32.7039H71.4527L71.4705 31.6963Z" fill="white"/>
<path d="M75.2388 35.2169C75.1477 35.282 75.0478 35.3339 74.9421 35.371C74.8539 35.4051 74.7607 35.4241 74.6662 35.4273C74.5642 35.4327 74.4625 35.4134 74.3695 35.371C74.3 35.3349 74.2445 35.2764 74.2122 35.2051C74.1729 35.1108 74.1498 35.0106 74.144 34.9087C74.144 34.7941 74.144 34.645 74.144 34.4612V32.7039H73.0343V35.0065C73.0082 35.3653 73.1137 35.7213 73.331 36.0082C73.4351 36.1205 73.5627 36.2085 73.7048 36.2658C73.8469 36.3232 73.9999 36.3486 74.1529 36.3401C74.3501 36.3451 74.5455 36.3024 74.7226 36.2156C74.9111 36.1132 75.0881 35.9911 75.2507 35.8511V36.2601H76.3546V32.7039H75.2507L75.2388 35.2169Z" fill="white"/>
<path d="M79.2742 34.1501C79.1579 34.1118 79.0388 34.0821 78.9181 34.0611C78.7955 34.0394 78.6868 34.0167 78.5918 33.993C78.4653 33.9716 78.3442 33.9253 78.2357 33.8567C78.2082 33.8335 78.1865 33.8044 78.1721 33.7715C78.1577 33.7386 78.1511 33.7029 78.1527 33.667C78.1559 33.6186 78.1734 33.5722 78.203 33.5337C78.2325 33.4952 78.2728 33.4663 78.3187 33.4507C78.446 33.392 78.5852 33.3636 78.7253 33.3677C78.8442 33.3675 78.9627 33.3815 79.0783 33.4092C79.1802 33.4345 79.2796 33.4693 79.3751 33.5129C79.4575 33.5507 79.5378 33.5933 79.6154 33.6403C79.6778 33.6767 79.7383 33.7163 79.7965 33.7589H79.8855V32.8698C79.7164 32.7917 79.5392 32.7321 79.3572 32.692C79.1324 32.6408 78.9025 32.6159 78.6719 32.6179C78.4341 32.6146 78.1971 32.6466 77.9687 32.7128C77.7809 32.7661 77.604 32.8524 77.4464 32.9676C77.3135 33.0672 77.2043 33.1947 77.1261 33.341C77.0539 33.4781 77.0162 33.6307 77.0162 33.7856C77.005 34.0257 77.0797 34.2621 77.2269 34.4523C77.3937 34.6381 77.6113 34.771 77.8529 34.8346C77.9649 34.8693 78.0788 34.897 78.1941 34.9176L78.5117 34.9858C78.6239 35.0054 78.7315 35.0456 78.8291 35.1043C78.8571 35.1264 78.8793 35.1549 78.8938 35.1874C78.9082 35.2199 78.9145 35.2555 78.9122 35.291C78.9115 35.3436 78.8938 35.3945 78.8617 35.4362C78.8296 35.4779 78.785 35.5081 78.7342 35.5222C78.6027 35.5724 78.4626 35.5965 78.3218 35.5933C78.1796 35.5941 78.0379 35.5761 77.9004 35.5399C77.7813 35.5088 77.6651 35.4672 77.5533 35.4155C77.4544 35.3749 77.3599 35.3242 77.2714 35.2643L77.0904 35.131H76.9984V36.0645C77.1825 36.1515 77.3755 36.2181 77.574 36.2631C77.816 36.3212 78.0641 36.35 78.3129 36.349C78.5613 36.3535 78.8091 36.3226 79.0488 36.2571C79.2404 36.2026 79.421 36.1154 79.5828 35.9993C79.7223 35.9011 79.8362 35.771 79.9152 35.62C79.9917 35.4736 80.0313 35.3109 80.0308 35.1458C80.0424 34.9189 79.9731 34.6952 79.8351 34.5146C79.6861 34.3429 79.4917 34.2165 79.2742 34.1501V34.1501Z" fill="white"/>
<path d="M81.7459 32.7068H80.6421V36.2452H81.7459V32.7068Z" fill="white"/>
<path d="M81.7784 31.3435H80.6123V32.2029H81.7784V31.3435Z" fill="white"/>
<path d="M85.2915 32.9113C84.8878 32.68 84.4232 32.5766 83.9593 32.615C83.7116 32.6151 83.4643 32.6369 83.2204 32.6802C82.9771 32.7237 82.8002 32.7612 82.6894 32.7928V33.6463H82.7843C82.9496 33.5732 83.1201 33.5128 83.2946 33.4655C83.4432 33.4221 83.5968 33.3982 83.7516 33.3944C83.9739 33.3818 84.1962 33.4204 84.4014 33.507C84.4735 33.5458 84.5326 33.6051 84.5712 33.6773C84.6097 33.7495 84.6261 33.8316 84.6181 33.913V33.9308C84.2976 33.9526 84.0009 33.9822 83.7279 34.0197C83.4805 34.0493 83.2392 34.1173 83.0128 34.2212C82.8284 34.3047 82.671 34.4382 82.5587 34.6065C82.4456 34.7992 82.3911 35.0205 82.4015 35.2436C82.3951 35.3891 82.4181 35.5345 82.4691 35.6709C82.52 35.8074 82.5979 35.9322 82.6983 36.0379C82.7996 36.1411 82.9212 36.2223 83.0555 36.2764C83.1898 36.3304 83.3339 36.3562 83.4786 36.352C83.6102 36.3555 83.7419 36.3426 83.8704 36.3135C83.9726 36.2868 84.072 36.25 84.1671 36.2039C84.2528 36.163 84.3333 36.1122 84.4073 36.0527L84.6122 35.8838V36.2601H85.7099V33.8538C85.725 33.6742 85.6947 33.4938 85.6216 33.3291C85.5484 33.1644 85.4349 33.0207 85.2915 32.9113V32.9113ZM84.6122 35.3237C84.5323 35.4022 84.4388 35.4654 84.3362 35.5104C84.2428 35.5524 84.1418 35.5746 84.0394 35.5756C83.9017 35.5848 83.7642 35.5528 83.6448 35.4837C83.5962 35.4422 83.5585 35.3894 83.5352 35.33C83.512 35.2705 83.5037 35.2063 83.5112 35.1429C83.5062 35.0456 83.5344 34.9494 83.5913 34.8703C83.6499 34.7981 83.7283 34.7445 83.8169 34.7162C83.9272 34.6766 84.0417 34.6497 84.1581 34.6361L84.6122 34.5857V35.3237Z" fill="white"/>
<path d="M88.6268 34.1501C88.5104 34.1118 88.3913 34.0821 88.2706 34.0611C88.148 34.0394 88.0393 34.0167 87.9444 33.993C87.8178 33.9716 87.6967 33.9253 87.5882 33.8567C87.5608 33.8335 87.539 33.8044 87.5246 33.7715C87.5102 33.7386 87.5036 33.7029 87.5052 33.667C87.5085 33.6186 87.5259 33.5722 87.5555 33.5337C87.5851 33.4952 87.6253 33.4663 87.6713 33.4507C87.7985 33.392 87.9377 33.3636 88.0778 33.3677C88.1967 33.3675 88.3152 33.3815 88.4309 33.4092C88.5328 33.4345 88.6321 33.4693 88.7276 33.5129C88.8101 33.5507 88.8903 33.5933 88.968 33.6403C89.0303 33.6767 89.0907 33.7163 89.1489 33.7589H89.238V32.8698C89.0689 32.7917 88.8917 32.7321 88.7098 32.692C88.485 32.6408 88.2551 32.6159 88.0245 32.6179C87.7867 32.6146 87.5497 32.6466 87.3212 32.7128C87.1334 32.7661 86.9565 32.8524 86.7989 32.9676C86.6661 33.0672 86.5567 33.1947 86.4784 33.341C86.4063 33.4781 86.3687 33.6307 86.3688 33.7856C86.3576 34.0257 86.4322 34.2621 86.5794 34.4523C86.7463 34.6381 86.9639 34.771 87.2055 34.8346C87.3174 34.8693 87.4313 34.897 87.5467 34.9176L87.8642 34.9858C87.9765 35.0054 88.0841 35.0456 88.1817 35.1043C88.2097 35.1264 88.2318 35.1549 88.2463 35.1874C88.2608 35.2199 88.2671 35.2555 88.2647 35.291C88.2641 35.3436 88.2464 35.3945 88.2143 35.4362C88.1822 35.4779 88.1375 35.5081 88.0868 35.5222C87.9552 35.5724 87.8151 35.5965 87.6743 35.5933C87.5321 35.5941 87.3905 35.5761 87.253 35.5399C87.1338 35.5088 87.0176 35.4672 86.9058 35.4155C86.807 35.3749 86.7124 35.3242 86.6239 35.2643L86.443 35.131H86.351V36.0645C86.535 36.1515 86.728 36.2181 86.9266 36.2631C87.1685 36.3212 87.4165 36.35 87.6653 36.349C87.9137 36.3535 88.1617 36.3226 88.4013 36.2571C88.5929 36.2026 88.7736 36.1154 88.9354 35.9993C89.0748 35.9011 89.1888 35.771 89.2677 35.62C89.3443 35.4736 89.3839 35.3109 89.3833 35.1458C89.3949 34.9189 89.3256 34.6952 89.1876 34.5146C89.0387 34.3429 88.8443 34.2165 88.6268 34.1501V34.1501Z" fill="white"/>
<path d="M91.1517 31.6963H90.048V32.7039H89.6267V33.4714H90.048V35.1251C90.0319 35.2885 90.05 35.4535 90.101 35.6096C90.1521 35.7657 90.2351 35.9095 90.3447 36.0319C90.6271 36.2413 90.9764 36.3404 91.3269 36.3105C91.4925 36.3123 91.658 36.3034 91.8224 36.2838C91.9514 36.2671 92.0792 36.2424 92.2051 36.2097V35.4303H92.1103C92.0467 35.4603 91.9799 35.4832 91.9113 35.4985C91.836 35.5207 91.7584 35.5337 91.68 35.537C91.5674 35.5433 91.455 35.5208 91.3535 35.4718C91.2825 35.4334 91.227 35.3716 91.1963 35.297C91.1636 35.218 91.1465 35.1335 91.1459 35.048C91.1459 34.9562 91.1459 34.8465 91.1459 34.7221V33.4685H92.208V32.7039H91.1459L91.1517 31.6963Z" fill="white"/>
<path d="M94.3652 32.5971C94.1096 32.5817 93.8538 32.6196 93.6137 32.7084C93.3736 32.7972 93.1546 32.9349 92.9707 33.1127C92.8002 33.2991 92.6684 33.5174 92.5828 33.7549C92.4973 33.9925 92.4596 34.2446 92.4721 34.4967C92.4566 34.749 92.4964 35.0017 92.5886 35.2372C92.6809 35.4726 92.8233 35.6851 93.0062 35.8599C93.4407 36.2057 93.9889 36.3769 94.5432 36.34C94.699 36.3418 94.8546 36.3329 95.009 36.3133C95.134 36.2959 95.2579 36.2712 95.3799 36.2393C95.4808 36.2154 95.58 36.1847 95.6767 36.1474L95.923 36.0496V35.1398H95.8073C95.7599 35.1753 95.6974 35.2168 95.6203 35.2642C95.539 35.3129 95.4549 35.3564 95.3682 35.3946C95.2585 35.4434 95.1441 35.4811 95.0269 35.5072C94.9022 35.5354 94.7749 35.5493 94.6471 35.5487C94.5085 35.5501 94.3702 35.5362 94.2346 35.5072C94.1159 35.4826 94.003 35.4354 93.9023 35.368C93.8034 35.3009 93.7229 35.2102 93.668 35.1042C93.6046 34.9758 93.5691 34.8354 93.5641 34.6923H95.9853V34.2952C96.0147 33.8403 95.8681 33.3916 95.5758 33.0416C95.4161 32.8875 95.2259 32.7683 95.0174 32.6918C94.809 32.6152 94.5868 32.583 94.3652 32.5971V32.5971ZM93.576 34.0225C93.577 33.8295 93.6476 33.6433 93.7748 33.498C93.8405 33.4321 93.9194 33.3809 94.0063 33.3477C94.0933 33.3145 94.1862 33.3001 94.2791 33.3054C94.3661 33.2985 94.4536 33.3115 94.5348 33.3433C94.6161 33.3751 94.6889 33.425 94.748 33.4891C94.8611 33.6434 94.9187 33.8314 94.9112 34.0225H93.576Z" fill="white"/>
<path d="M98.7715 32.7039C98.6706 32.7051 98.5705 32.7221 98.4748 32.7543C98.3774 32.785 98.2839 32.8268 98.1959 32.8787C98.1108 32.929 98.0296 32.9855 97.9527 33.0476C97.8637 33.1188 97.7935 33.177 97.742 33.2225V32.7039H96.6382V36.2601H97.742V33.8893C97.8634 33.8429 97.9872 33.8033 98.1129 33.7707C98.2319 33.7382 98.3545 33.7213 98.4779 33.7204C98.5748 33.7204 98.6627 33.7204 98.7418 33.7204C98.8042 33.7242 98.866 33.7351 98.9258 33.753H99.0178V32.7039H98.8992H98.7715Z" fill="white"/>
</g>
<defs>
<clipPath id="clip0">
<rect width="103.077" height="40" fill="white"/>
</clipPath>
</defs>
</svg>
