<svg width="122" height="48" viewBox="0 0 122 48" fill="none" xmlns="http://www.w3.org/2000/svg">
<path d="M12.4384 30.7748C16.9451 30.7748 20.362 29.8408 22.689 27.9729C25.0161 26.1051 26.1796 23.3184 26.1796 19.6129V0H3.98924V5.6037H17.4004V19.9877C17.4004 23.3289 15.6014 24.9995 12.003 24.9995C9.35054 24.9995 6.98828 23.8904 4.91638 21.6723L0 26.3374C1.49555 27.8197 3.31554 28.9358 5.31676 29.598C7.60577 30.3934 10.0145 30.7914 12.4384 30.7748Z" fill="#3A3A3C"/>
<path d="M46.0736 0.0174561L29.0627 30.2529H38.1124L41.4943 23.7737H59.2143L62.596 30.2529H71.8635L54.8 0.0174561H46.0736ZM44.3177 18.4606L50.3684 6.88548L56.419 18.4606H44.3177Z" fill="#3A3A3C"/>
<path d="M104.684 5.63166V0.0174561H75.8421V30.2529H84.674V19.2381H102.338V13.6239H84.674V5.63166H104.684Z" fill="#3A3A3C"/>
<path d="M119.514 0.0174561H110.682V30.2529H119.514V0.0174561Z" fill="#3A3A3C"/>
<path d="M70.8345 39.0788C70.7245 39.0725 70.6145 39.0896 70.5116 39.1288C70.4087 39.1681 70.3151 39.2286 70.2374 39.3065C70.0868 39.4782 70.0033 39.6983 70.0021 39.9264H71.5824C71.5912 39.7005 71.5232 39.4783 71.3893 39.2959C71.3194 39.2202 71.2331 39.1613 71.1369 39.1236C71.0408 39.086 70.9374 39.0707 70.8345 39.0788Z" fill="#3A3A3C"/>
<path d="M26.0006 40.7564C25.8957 40.7899 25.8029 40.8532 25.7336 40.9385C25.6663 41.0321 25.6328 41.1456 25.6388 41.2607C25.6299 41.3356 25.6397 41.4115 25.6672 41.4818C25.6948 41.552 25.7393 41.6144 25.7969 41.6634C25.9383 41.7451 26.1009 41.7829 26.2639 41.772C26.3851 41.7708 26.5047 41.7446 26.6151 41.695C26.7365 41.6419 26.8471 41.5671 26.9416 41.4743V40.6022L26.4044 40.6618C26.2666 40.6778 26.1311 40.7096 26.0006 40.7564Z" fill="#3A3A3C"/>
<path d="M111.588 39.0788C111.478 39.0725 111.368 39.0896 111.265 39.1288C111.162 39.1681 111.069 39.2286 110.991 39.3065C110.84 39.4782 110.757 39.6983 110.756 39.9264H112.336C112.345 39.7005 112.276 39.4783 112.143 39.2959C112.073 39.2202 111.986 39.1613 111.89 39.1236C111.794 39.086 111.691 39.0707 111.588 39.0788Z" fill="#3A3A3C"/>
<path d="M2.00517 33.9059V47.0045H122V33.9059H2.00517ZM10.5385 38.0807H8.20329V39.1313H10.3489V40.182H8.20329V42.5811H6.79861V37.037H10.521L10.5385 38.0807ZM14.721 42.1048C14.2758 42.4846 13.7092 42.6933 13.1233 42.6933C12.5374 42.6933 11.9706 42.4846 11.5253 42.1048C11.1567 41.6416 10.9561 41.0676 10.9561 40.4762C10.9561 39.8848 11.1567 39.3109 11.5253 38.8476C11.9706 38.4678 12.5374 38.2591 13.1233 38.2591C13.7092 38.2591 14.2758 38.4678 14.721 38.8476C15.0876 39.3111 15.287 39.8842 15.287 40.4745C15.287 41.0648 15.0876 41.6378 14.721 42.1013V42.1048ZM18.8754 39.6182H18.7665C18.6957 39.5971 18.6226 39.5841 18.5487 39.5797C18.4551 39.5797 18.351 39.5797 18.2363 39.5797C18.0904 39.5808 17.9452 39.6008 17.8044 39.6392C17.6556 39.6777 17.509 39.7245 17.3654 39.7793V42.5811H16.052V38.3783H17.3584V38.9772C17.4169 38.9235 17.5 38.8547 17.6077 38.7706C17.6987 38.6972 17.7949 38.6305 17.8956 38.571C17.9997 38.5096 18.1104 38.4602 18.2257 38.4239C18.3389 38.3859 18.4574 38.3658 18.5769 38.3643H18.7173H18.8579L18.8754 39.6182ZM23.5425 42.6407C23.5539 42.8438 23.5223 43.047 23.4497 43.2371C23.3771 43.4272 23.2651 43.5999 23.121 43.7439C22.8236 44.0144 22.4311 44.1567 22.0289 44.1396C21.8119 44.1406 21.595 44.1301 21.3792 44.1081C21.2363 44.0945 21.0944 44.0723 20.9543 44.0416V43.082H21.0561C21.1479 43.1113 21.2418 43.1335 21.337 43.1485C21.4194 43.1627 21.5027 43.1709 21.5863 43.173C21.6848 43.1847 21.7847 43.1693 21.8751 43.1286C21.9654 43.0879 22.043 43.0233 22.0992 42.9419C22.2073 42.7038 22.2543 42.4426 22.236 42.1818V39.2924H21.481V38.3783H23.5425V42.6407ZM23.5425 37.7865H22.1378V36.7708H23.5425V37.7865ZM28.2306 42.5636H26.9382V42.1188L26.696 42.3184C26.6084 42.3888 26.5129 42.4487 26.4115 42.4971C26.299 42.5516 26.1814 42.595 26.0603 42.6266C25.9083 42.661 25.7526 42.6763 25.5968 42.6722C25.4255 42.6771 25.2551 42.6467 25.0961 42.5828C24.9372 42.5189 24.7931 42.4229 24.6731 42.3009C24.5544 42.176 24.4622 42.0285 24.4019 41.8673C24.3415 41.706 24.3143 41.5343 24.322 41.3623C24.3095 41.0986 24.3743 40.837 24.5082 40.6093C24.6411 40.4104 24.8271 40.2527 25.0454 40.154C25.3133 40.0311 25.5989 39.9508 25.8918 39.9159C26.2195 39.8715 26.5707 39.8365 26.9453 39.8108V39.7793C26.9548 39.683 26.9355 39.5861 26.8899 39.5007C26.8443 39.4153 26.7743 39.3453 26.6889 39.2994C26.4461 39.197 26.1831 39.1515 25.9199 39.1664C25.7367 39.1708 25.5549 39.1991 25.3791 39.2504C25.1726 39.3062 24.9706 39.3776 24.775 39.464H24.6627V38.4554C24.7914 38.418 25.001 38.3737 25.2913 38.3223C25.5799 38.2711 25.8724 38.2453 26.1656 38.2453C26.7146 38.1999 27.2646 38.3221 27.7424 38.5955C27.9095 38.7231 28.0422 38.89 28.1286 39.0813C28.215 39.2726 28.2525 39.4824 28.2376 39.6917L28.2306 42.5636ZM31.9179 42.5636L30.7836 40.7424L30.5833 41.0156V42.5811H29.2771V36.7848H30.5833V40.0314L31.8231 38.3959H33.3646L31.8968 40.1995L33.4735 42.5776L31.9179 42.5636ZM36.6024 39.2889H35.3663V40.7704C35.3663 40.9175 35.3663 41.0436 35.3663 41.1557C35.367 41.2567 35.3873 41.3566 35.426 41.4499C35.4623 41.5381 35.5281 41.6111 35.6122 41.6565C35.7323 41.7144 35.8651 41.7409 35.9984 41.7335C36.0912 41.7296 36.1833 41.7143 36.2724 41.688C36.3535 41.6699 36.4324 41.6429 36.5076 41.6075H36.6199V42.5286C36.4709 42.5671 36.3196 42.5964 36.1669 42.6161C35.9723 42.6393 35.7764 42.6498 35.5805 42.6476C35.1657 42.6829 34.7523 42.5659 34.4181 42.3184C34.2883 42.1738 34.1901 42.0039 34.1297 41.8194C34.0692 41.6349 34.0478 41.4399 34.0669 41.2467V39.2924H33.5683V38.3783H34.0669V37.184H35.3663V38.3783H36.6235L36.6024 39.2889ZM39.5978 40.6338H37.1222V39.5831H39.5978V40.6338ZM46.3615 42.0978C45.9162 42.4776 45.3495 42.6863 44.7635 42.6863C44.1776 42.6863 43.611 42.4776 43.1658 42.0978C42.7972 41.6346 42.5965 41.0606 42.5965 40.4692C42.5965 39.8778 42.7972 39.3038 43.1658 38.8406C43.611 38.4608 44.1776 38.2521 44.7635 38.2521C45.3495 38.2521 45.9162 38.4608 46.3615 38.8406C46.728 39.3041 46.9273 39.8772 46.9273 40.4675C46.9273 41.0577 46.728 41.6308 46.3615 42.0943V42.0978ZM51.5097 42.0978C51.5186 42.4348 51.4614 42.7703 51.3411 43.0854C51.246 43.3332 51.0874 43.5518 50.8811 43.7194C50.6752 43.8855 50.4355 44.005 50.1787 44.0696C49.8832 44.1402 49.58 44.1743 49.2761 44.1712C49.0106 44.1727 48.7455 44.1551 48.4825 44.1186C48.2628 44.0881 48.0448 44.046 47.8294 43.9926V42.9419H47.9839L48.2121 43.0224L48.4789 43.103C48.5866 43.131 48.6909 43.1532 48.7915 43.1695C49.0805 43.2157 49.3759 43.2014 49.659 43.1275C49.7924 43.0967 49.9142 43.0287 50.0102 42.9313C50.0865 42.8425 50.1405 42.7369 50.1681 42.6231C50.2014 42.4773 50.2167 42.3279 50.2137 42.1783V42.1013C50.0629 42.2332 49.8908 42.3386 49.7046 42.413C49.515 42.4899 49.3122 42.5291 49.1076 42.5286C48.8714 42.5423 48.6352 42.5017 48.4172 42.4101C48.1993 42.3184 48.0053 42.178 47.8503 41.9997C47.5204 41.5312 47.3641 40.963 47.4079 40.3922C47.4036 40.0924 47.45 39.794 47.545 39.5096C47.6267 39.2653 47.7554 39.0392 47.9241 38.8441C48.0775 38.6689 48.2684 38.5302 48.4825 38.4379C48.6982 38.3428 48.9314 38.2939 49.1672 38.2943C49.3623 38.2909 49.5566 38.3181 49.7432 38.3748C49.9071 38.427 50.063 38.5012 50.2067 38.5955L50.2559 38.4098H51.5201L51.5097 42.0978ZM57.5849 37.7654H57.49L57.2548 37.7059C57.1557 37.6831 57.0545 37.6714 56.9528 37.6709C56.7608 37.6482 56.5673 37.6996 56.412 37.8145C56.2982 37.9714 56.2468 38.1648 56.268 38.3573V38.3924H57.3215V39.2994H56.3276V42.5811H55.0318V39.3065H54.5085V38.3783H55.0318V38.2628C55.0157 38.0533 55.0433 37.8428 55.1128 37.6444C55.1823 37.4461 55.2921 37.2643 55.4356 37.1105C55.7775 36.829 56.2157 36.6908 56.6577 36.7253C56.8473 36.7253 57.0242 36.7322 57.1881 36.7463C57.3305 36.7566 57.4723 36.7741 57.613 36.7988L57.5849 37.7654ZM59.2107 42.5776H57.9045V38.3783H59.2107V42.5776ZM59.2493 37.8005H57.8693V36.7848H59.2493V37.8005ZM63.4633 41.8316C63.3699 42.0102 63.2352 42.1639 63.0702 42.2799C62.8787 42.4171 62.6647 42.5202 62.438 42.5846C62.1543 42.6619 61.8611 42.6985 61.5671 42.6932C61.2726 42.6944 60.9791 42.6603 60.6927 42.5916C60.4577 42.5384 60.2293 42.4597 60.0115 42.357V41.2537H60.1204L60.3345 41.4114C60.4393 41.4821 60.551 41.542 60.668 41.59C60.8004 41.6511 60.938 41.7003 61.0791 41.737C61.2418 41.7798 61.4094 41.801 61.5777 41.8001C61.7443 41.8039 61.91 41.7754 62.0657 41.7161C62.1257 41.6994 62.1788 41.6637 62.2168 41.6145C62.2548 41.5652 62.2757 41.505 62.2764 41.4429C62.2792 41.4009 62.2718 41.3589 62.2547 41.3204C62.2375 41.282 62.2113 41.2483 62.1782 41.2222C62.0626 41.1529 61.9351 41.1053 61.8023 41.0821L61.4266 41.0016C61.2901 40.9772 61.1553 40.9444 61.0228 40.9035C60.7369 40.8283 60.4793 40.6713 60.2819 40.4517C60.1077 40.2269 60.0193 39.9476 60.0326 39.6637C60.0325 39.4807 60.077 39.3004 60.1624 39.1384C60.2549 38.9654 60.3844 38.8147 60.5417 38.6971C60.7282 38.5609 60.9375 38.4589 61.1598 38.3959C61.4302 38.3177 61.7105 38.2799 61.992 38.2838C62.2649 38.2814 62.5371 38.3108 62.8032 38.3713C63.0185 38.4187 63.2282 38.4891 63.4284 38.5815V39.6322H63.3229C63.254 39.5818 63.1825 39.535 63.1087 39.4921C63.0169 39.4365 62.9219 39.3862 62.8243 39.3415C62.7113 39.2899 62.5937 39.2489 62.4731 39.2189C62.3362 39.1861 62.196 39.1697 62.0552 39.1699C61.8894 39.1651 61.7247 39.1987 61.5741 39.2679C61.5197 39.2865 61.4721 39.3206 61.4371 39.3661C61.4021 39.4116 61.3813 39.4664 61.3774 39.5236C61.3755 39.566 61.3833 39.6082 61.4004 39.6471C61.4174 39.686 61.4433 39.7204 61.4758 39.7478C61.6042 39.8288 61.7473 39.8836 61.8971 39.9088C62.0095 39.9369 62.1383 39.9637 62.2835 39.9894C62.4263 40.0141 62.5672 40.0493 62.7049 40.0945C62.9759 40.1654 63.2201 40.3139 63.4073 40.5218C63.5706 40.7352 63.6526 40.9996 63.6389 41.2677C63.6309 41.4625 63.5755 41.6524 63.4774 41.8211L63.4633 41.8316ZM66.9716 42.5811L65.8373 40.7599L65.6372 41.0331V42.5811H64.3308V36.7848H65.6372V40.0314L66.8768 38.3959H68.4185L66.9505 40.1995L68.5274 42.5776L66.9716 42.5811ZM72.8818 40.7389H70.0162C70.0222 40.908 70.0641 41.074 70.1392 41.2257C70.2042 41.351 70.2996 41.4582 70.4166 41.5374C70.5359 41.6171 70.6694 41.673 70.81 41.702C70.9704 41.7362 71.1339 41.7527 71.298 41.7511C71.4492 41.7517 71.6001 41.7353 71.7476 41.702C71.8863 41.6712 72.0215 41.6266 72.1514 41.5689C72.254 41.5238 72.3537 41.4724 72.4499 41.4149C72.5412 41.3612 72.6149 41.3121 72.6711 41.2677H72.8081V42.3429L72.5166 42.4585C72.4022 42.5027 72.2848 42.5389 72.1654 42.5671C72.021 42.6048 71.8744 42.6341 71.7265 42.6546C71.5436 42.6777 71.3595 42.6883 71.1752 42.6862C70.5191 42.7298 69.8703 42.5275 69.3561 42.1188C69.1397 41.9122 68.9711 41.6611 68.8619 41.3828C68.7527 41.1046 68.7057 40.8059 68.724 40.5077C68.7092 40.2098 68.7536 39.9118 68.8549 39.6311C68.9561 39.3504 69.1121 39.0924 69.3139 38.8722C69.5316 38.662 69.7907 38.4992 70.0749 38.3943C70.359 38.2894 70.662 38.2446 70.9645 38.2628C71.2292 38.2427 71.4951 38.2785 71.745 38.3678C71.9949 38.4571 72.2231 38.5979 72.4148 38.7811C72.7607 39.1947 72.9341 39.7251 72.8993 40.2626L72.8818 40.7389ZM77.4997 40.7389H74.6341C74.64 40.908 74.6819 41.074 74.757 41.2257C74.822 41.351 74.9174 41.4582 75.0345 41.5374C75.1537 41.6171 75.2873 41.673 75.4278 41.702C75.5882 41.7362 75.752 41.7527 75.916 41.7511C76.0672 41.7517 76.2179 41.7353 76.3654 41.702C76.5041 41.6712 76.6394 41.6266 76.7692 41.5689C76.8718 41.5238 76.9716 41.4724 77.0678 41.4149C77.1591 41.3612 77.2328 41.3121 77.2889 41.2677H77.426V42.3429L77.1345 42.4585C77.02 42.5027 76.9027 42.5389 76.7833 42.5671C76.6388 42.6048 76.4922 42.6341 76.3443 42.6546C76.1615 42.6777 75.9773 42.6883 75.793 42.6862C75.137 42.7298 74.4882 42.5275 73.9739 42.1188C73.7575 41.9122 73.5889 41.6611 73.4798 41.3828C73.3706 41.1046 73.3235 40.8059 73.3419 40.5077C73.3271 40.2098 73.3715 39.9118 73.4727 39.6311C73.574 39.3504 73.73 39.0924 73.9317 38.8722C74.1494 38.662 74.4086 38.4992 74.6927 38.3943C74.9769 38.2894 75.2799 38.2446 75.5823 38.2628C75.847 38.2427 76.1129 38.2785 76.3628 38.3678C76.6127 38.4571 76.8409 38.5979 77.0326 38.7811C77.3785 39.1947 77.552 39.7251 77.5172 40.2626L77.4997 40.7389ZM82.1772 42.5811H80.8639V40.4797C80.8639 40.3116 80.8569 40.1435 80.8428 39.9754C80.838 39.8482 80.8118 39.7227 80.7655 39.6041C80.7268 39.5161 80.6585 39.4443 80.5724 39.401C80.4618 39.3533 80.3416 39.3318 80.2213 39.338C80.1097 39.3385 79.9991 39.3587 79.8946 39.3975C79.7698 39.4451 79.6517 39.5086 79.5434 39.5866V42.5811H78.2372V38.3783H79.5434V38.8406C79.7344 38.6754 79.9443 38.5331 80.1686 38.4169C80.3779 38.3129 80.609 38.2601 80.8428 38.2628C81.0267 38.2507 81.2108 38.2807 81.3812 38.3505C81.5517 38.4203 81.7038 38.528 81.826 38.6655C82.0778 39.0019 82.2022 39.4163 82.1772 39.8353V42.5811ZM85.8645 39.3065H84.6075V40.7879C84.6075 40.935 84.6075 41.0611 84.6075 41.1732C84.6082 41.2742 84.6284 41.374 84.6671 41.4674C84.7034 41.5556 84.7691 41.6286 84.8532 41.674C84.9733 41.732 85.1063 41.7585 85.2395 41.7511C85.3323 41.7471 85.4242 41.7318 85.5133 41.7055C85.5945 41.6874 85.6736 41.6604 85.7487 41.625H85.8611V42.5461C85.712 42.5847 85.5607 42.6139 85.408 42.6337C85.2134 42.6568 85.0176 42.6673 84.8216 42.6652C84.4069 42.7005 83.9935 42.5834 83.6592 42.336C83.5294 42.1913 83.4313 42.0214 83.3708 41.8369C83.3104 41.6524 83.289 41.4574 83.3081 41.2642V39.31H82.7743V38.3783H83.2729V37.184H84.5793V38.3783H85.8365L85.8645 39.3065ZM90.37 42.5811H89.0638V42.1188C88.8714 42.2842 88.6617 42.4286 88.4386 42.5496C88.229 42.6522 87.9977 42.7026 87.7644 42.6967C87.5833 42.7067 87.4022 42.6767 87.234 42.6089C87.0659 42.5411 86.9148 42.4371 86.7916 42.3044C86.5344 41.9654 86.4095 41.5447 86.4405 41.1206V38.3783H87.7539V40.4517C87.7539 40.6665 87.7539 40.8428 87.7539 40.9806C87.7609 41.101 87.7882 41.2194 87.8347 41.3308C87.8729 41.4151 87.9384 41.4842 88.0207 41.5269C88.1307 41.5769 88.2512 41.5998 88.3719 41.5935C88.4837 41.5897 88.5942 41.5671 88.6985 41.5269C88.8236 41.483 88.9419 41.4217 89.0497 41.3448V38.3783H90.356L90.37 42.5811ZM94.6228 41.8351C94.5294 42.0137 94.3945 42.1674 94.2295 42.2834C94.038 42.4207 93.824 42.5237 93.5973 42.5881C93.3136 42.6655 93.0204 42.702 92.7264 42.6967C92.4319 42.6979 92.1384 42.6638 91.852 42.5951C91.6171 42.5419 91.3886 42.4632 91.1708 42.3605V41.2572H91.2797L91.4938 41.4149C91.5986 41.4856 91.7103 41.5455 91.8273 41.5935C91.9597 41.6546 92.0973 41.7038 92.2384 41.7405C92.4011 41.7833 92.5687 41.8045 92.737 41.8036C92.9036 41.8074 93.0693 41.7789 93.225 41.7196C93.285 41.7029 93.3381 41.6672 93.3761 41.618C93.4141 41.5687 93.435 41.5085 93.4357 41.4464C93.4385 41.4044 93.4311 41.3624 93.414 41.3239C93.3968 41.2855 93.3706 41.2518 93.3375 41.2257C93.2219 41.1564 93.0944 41.1089 92.9616 41.0856L92.5859 41.0051C92.4494 40.9807 92.3146 40.9479 92.1821 40.907C91.8962 40.8318 91.6386 40.6748 91.4412 40.4552C91.267 40.2304 91.1786 39.9511 91.1919 39.6672C91.1918 39.4842 91.2363 39.3039 91.3217 39.1419C91.4142 38.9689 91.5437 38.8183 91.701 38.7006C91.8875 38.5644 92.0968 38.4624 92.3191 38.3994C92.5895 38.3212 92.8698 38.2834 93.1513 38.2873C93.4242 38.2849 93.6964 38.3143 93.9625 38.3748C94.1778 38.4222 94.3875 38.4926 94.5877 38.585V39.6357H94.4822C94.4133 39.5853 94.3418 39.5385 94.268 39.4956C94.1762 39.44 94.0812 39.3897 93.9836 39.345C93.8706 39.2934 93.753 39.2524 93.6324 39.2224C93.4955 39.1896 93.3553 39.1732 93.2145 39.1734C93.0487 39.1686 92.884 39.2022 92.7334 39.2714C92.679 39.29 92.6314 39.3241 92.5964 39.3696C92.5614 39.4151 92.5406 39.4699 92.5367 39.5271C92.5348 39.5695 92.5426 39.6118 92.5597 39.6506C92.5768 39.6895 92.6026 39.7239 92.6351 39.7513C92.7635 39.8323 92.9067 39.8871 93.0564 39.9124C93.1688 39.9404 93.2976 39.9672 93.4428 39.9929C93.5856 40.0176 93.7265 40.0528 93.8642 40.098C94.1352 40.1689 94.3794 40.3174 94.5666 40.5253C94.7299 40.7387 94.8121 41.0031 94.7984 41.2713C94.7824 41.467 94.7184 41.6557 94.6122 41.8211L94.6228 41.8351ZM96.7684 42.5811H95.462V38.3783H96.7684V42.5811ZM96.807 37.804H95.4164V36.7883H96.7965L96.807 37.804ZM101.46 42.5811H100.161V42.1363L99.9183 42.336C99.8308 42.4063 99.7353 42.4663 99.6339 42.5146C99.5213 42.5692 99.4037 42.6126 99.2827 42.6442C99.1307 42.6785 98.975 42.6938 98.8192 42.6897C98.6479 42.6946 98.4774 42.6642 98.3185 42.6003C98.1596 42.5364 98.0156 42.4405 97.8957 42.3184C97.7769 42.1935 97.6846 42.046 97.6242 41.8848C97.5639 41.7235 97.5368 41.5518 97.5445 41.3798C97.5321 41.1161 97.5967 40.8546 97.7305 40.6268C97.8634 40.428 98.0497 40.2702 98.2679 40.1715C98.5359 40.0486 98.8213 39.9683 99.1141 39.9333C99.4419 39.889 99.7931 39.854 100.168 39.8283V39.7793C100.177 39.683 100.158 39.5861 100.112 39.5007C100.067 39.4153 99.9967 39.3453 99.9113 39.2994C99.6685 39.197 99.4054 39.1515 99.1423 39.1664C98.9591 39.1708 98.7773 39.1991 98.6014 39.2504C98.3949 39.3062 98.1931 39.3776 97.9975 39.464H97.8746V38.4554C98.0033 38.418 98.2129 38.3737 98.5032 38.3223C98.7918 38.2711 99.0843 38.2453 99.3775 38.2453C99.9265 38.1999 100.476 38.3221 100.954 38.5955C101.121 38.7231 101.254 38.89 101.34 39.0813C101.427 39.2726 101.464 39.4824 101.45 39.6917L101.46 42.5811ZM105.674 41.8351C105.581 42.0137 105.446 42.1674 105.281 42.2834C105.089 42.4207 104.875 42.5237 104.649 42.5881C104.365 42.6655 104.072 42.702 103.778 42.6967C103.483 42.6979 103.19 42.6638 102.903 42.5951C102.668 42.5419 102.44 42.4632 102.222 42.3605V41.2572H102.331L102.545 41.4149C102.65 41.4856 102.762 41.5455 102.879 41.5935C103.011 41.6546 103.149 41.7038 103.29 41.7405C103.452 41.7833 103.62 41.8045 103.788 41.8036C103.955 41.8074 104.121 41.7789 104.276 41.7196C104.336 41.7029 104.389 41.6672 104.427 41.618C104.465 41.5687 104.486 41.5085 104.487 41.4464C104.49 41.4044 104.482 41.3624 104.465 41.3239C104.448 41.2855 104.422 41.2518 104.389 41.2257C104.273 41.1564 104.146 41.1089 104.013 41.0856L103.637 41.0051C103.501 40.9807 103.366 40.9479 103.233 40.907C102.947 40.8318 102.69 40.6748 102.492 40.4552C102.318 40.2304 102.23 39.9511 102.243 39.6672C102.243 39.4842 102.288 39.3039 102.373 39.1419C102.466 38.9689 102.595 38.8183 102.752 38.7006C102.939 38.5644 103.148 38.4624 103.37 38.3994C103.641 38.3212 103.921 38.2834 104.203 38.2873C104.476 38.2849 104.748 38.3143 105.014 38.3748C105.229 38.4222 105.439 38.4926 105.639 38.585V39.6357H105.534C105.465 39.5853 105.393 39.5385 105.319 39.4956C105.228 39.44 105.133 39.3897 105.035 39.345C104.922 39.2934 104.804 39.2524 104.684 39.2224C104.547 39.1896 104.407 39.1732 104.266 39.1734C104.1 39.1686 103.935 39.2022 103.785 39.2714C103.73 39.29 103.683 39.3241 103.648 39.3696C103.613 39.4151 103.592 39.4699 103.588 39.5271C103.586 39.5695 103.594 39.6118 103.611 39.6506C103.628 39.6895 103.654 39.7239 103.686 39.7513C103.815 39.8323 103.958 39.8871 104.108 39.9124C104.22 39.9404 104.349 39.9672 104.494 39.9929C104.637 40.0176 104.778 40.0528 104.915 40.098C105.186 40.1689 105.431 40.3174 105.618 40.5253C105.781 40.7387 105.863 41.0031 105.85 41.2713C105.834 41.467 105.77 41.6557 105.664 41.8211L105.674 41.8351ZM109.158 39.3065H107.9V40.7879C107.9 40.935 107.9 41.0611 107.9 41.1732C107.901 41.2742 107.922 41.374 107.96 41.4674C107.997 41.5556 108.062 41.6286 108.146 41.674C108.266 41.732 108.399 41.7585 108.533 41.7511C108.625 41.7471 108.717 41.7318 108.806 41.7055C108.888 41.6874 108.967 41.6604 109.042 41.625H109.154V42.5461C109.005 42.5847 108.854 42.6139 108.701 42.6337C108.507 42.6568 108.311 42.6673 108.115 42.6652C107.7 42.7005 107.287 42.5834 106.952 42.336C106.823 42.1913 106.724 42.0214 106.664 41.8369C106.603 41.6524 106.582 41.4574 106.601 41.2642V39.31H106.103V38.3783H106.601V37.184H107.907V38.3783H109.165L109.158 39.3065ZM113.639 40.7354H110.773C110.779 40.9045 110.821 41.0705 110.896 41.2222C110.961 41.3475 111.056 41.4547 111.173 41.5339C111.293 41.6136 111.426 41.6694 111.567 41.6985C111.727 41.7327 111.891 41.7492 112.055 41.7476C112.206 41.7482 112.357 41.7317 112.504 41.6985C112.643 41.6677 112.778 41.6231 112.908 41.5654C113.011 41.5203 113.111 41.4689 113.207 41.4114C113.298 41.3577 113.372 41.3086 113.428 41.2642H113.565V42.3395L113.273 42.455C113.159 42.4992 113.042 42.5354 112.922 42.5636C112.778 42.6013 112.631 42.6306 112.483 42.6511C112.3 42.6742 112.116 42.6848 111.932 42.6827C111.276 42.7263 110.627 42.524 110.113 42.1153C109.896 41.9087 109.728 41.6576 109.619 41.3793C109.509 41.1011 109.462 40.8024 109.481 40.5042C109.466 40.2063 109.51 39.9083 109.612 39.6276C109.713 39.3469 109.869 39.0889 110.071 38.8687C110.288 38.6585 110.548 38.4957 110.832 38.3908C111.116 38.2859 111.419 38.2411 111.721 38.2593C111.986 38.2392 112.252 38.275 112.502 38.3643C112.752 38.4536 112.98 38.5944 113.172 38.7776C113.518 39.1912 113.691 39.7216 113.656 40.2591L113.639 40.7354ZM117.203 39.6286H117.094C117.023 39.6075 116.95 39.5946 116.876 39.5901C116.783 39.5901 116.679 39.5901 116.564 39.5901C116.418 39.5913 116.273 39.6113 116.132 39.6497C115.983 39.6882 115.837 39.735 115.693 39.7898V42.5916H114.38V38.3783H115.686V38.9772C115.745 38.9235 115.828 38.8547 115.935 38.7706C116.026 38.6972 116.122 38.6305 116.223 38.571C116.327 38.5096 116.438 38.4602 116.553 38.4239C116.667 38.3859 116.785 38.3658 116.904 38.3643H117.045H117.185L117.203 39.6286Z" fill="#3A3A3C"/>
<path d="M45.3676 39.4675C45.3012 39.3726 45.2101 39.2975 45.1042 39.2503C44.9984 39.207 44.8849 39.1855 44.7705 39.1873C44.6629 39.1855 44.5558 39.2033 44.4545 39.2398C44.3493 39.2832 44.2582 39.3547 44.1911 39.4465C44.1059 39.5666 44.0451 39.7022 44.0121 39.8457C43.9629 40.0545 43.9405 40.2687 43.9454 40.4832C43.94 40.6916 43.9611 40.9 44.0085 41.1031C44.0408 41.2379 44.0967 41.3659 44.1736 41.4813C44.2388 41.5751 44.3286 41.6491 44.4334 41.6949C44.5446 41.7411 44.6642 41.7638 44.7846 41.7615C44.8945 41.7607 45.0032 41.738 45.1042 41.6949C45.2079 41.6541 45.2981 41.5849 45.3642 41.4953C45.4457 41.3787 45.5053 41.2481 45.5397 41.1101C45.5852 40.9055 45.6052 40.6961 45.5994 40.4867C45.6031 40.2783 45.5818 40.0701 45.5361 39.8667C45.5059 39.7242 45.4487 39.5887 45.3676 39.4675Z" fill="#3A3A3C"/>
<path d="M99.2054 40.7564C99.1006 40.7899 99.0077 40.8532 98.9384 40.9385C98.8711 41.0321 98.8377 41.1456 98.8436 41.2607C98.8347 41.3356 98.8445 41.4115 98.8721 41.4818C98.8996 41.552 98.9442 41.6144 99.0017 41.6634C99.1431 41.7451 99.3057 41.7829 99.4688 41.772C99.5899 41.7708 99.7095 41.7446 99.82 41.695C99.9414 41.6419 100.052 41.5671 100.147 41.4743V40.6022L99.6092 40.6618C99.4714 40.6778 99.336 40.7096 99.2054 40.7564Z" fill="#3A3A3C"/>
<path d="M49.6939 39.2469C49.561 39.2387 49.4281 39.2621 49.306 39.3151C49.1839 39.368 49.0762 39.4491 48.9915 39.5516C48.8191 39.7995 48.7351 40.0979 48.7529 40.3992C48.7506 40.5528 48.7624 40.7064 48.788 40.8579C48.8071 40.9828 48.8525 41.1022 48.9214 41.2082C48.9819 41.3007 49.0669 41.3747 49.1671 41.4218C49.2888 41.4746 49.4208 41.4997 49.5534 41.4954C49.673 41.4956 49.7918 41.4754 49.9046 41.4358C50.0202 41.3948 50.1291 41.337 50.2277 41.2642V39.3695C50.151 39.3362 50.071 39.3116 49.989 39.2959C49.8927 39.2689 49.7937 39.2525 49.6939 39.2469Z" fill="#3A3A3C"/>
<path d="M13.7271 39.4675C13.6607 39.3726 13.5697 39.2975 13.4638 39.2503C13.358 39.207 13.2446 39.1855 13.1303 39.1873C13.0226 39.1855 12.9153 39.2033 12.8141 39.2398C12.7089 39.2832 12.6177 39.3547 12.5507 39.4465C12.4654 39.5666 12.4047 39.7022 12.3717 39.8457C12.3225 40.0545 12.3001 40.2687 12.305 40.4832C12.2995 40.6916 12.3207 40.9 12.3681 41.1031C12.4003 41.2379 12.4563 41.3659 12.5332 41.4813C12.5983 41.5751 12.6884 41.6491 12.7932 41.6949C12.9043 41.7411 13.0239 41.7638 13.1443 41.7615C13.2542 41.7607 13.3627 41.738 13.4638 41.6949C13.5675 41.6541 13.6576 41.5849 13.7237 41.4953C13.8053 41.3787 13.8648 41.2481 13.8993 41.1101C13.9447 40.9055 13.9648 40.6961 13.959 40.4867C13.9627 40.2783 13.9414 40.0701 13.8957 39.8667C13.8655 39.7242 13.8083 39.5887 13.7271 39.4675Z" fill="#3A3A3C"/>
<path d="M75.4523 39.0788C75.3423 39.0725 75.2323 39.0896 75.1294 39.1288C75.0265 39.1681 74.9332 39.2286 74.8554 39.3065C74.7048 39.4782 74.6212 39.6983 74.62 39.9264H76.2003C76.209 39.7005 76.141 39.4783 76.0072 39.2959C75.9372 39.2202 75.8509 39.1613 75.7548 39.1236C75.6587 39.086 75.5552 39.0707 75.4523 39.0788Z" fill="#3A3A3C"/>
<path d="M6.82673 42.5636H8.21736V40.182H10.363V39.1243H8.21736V38.0771H10.5491V37.0194H6.82673V42.5636Z" fill="white"/>
<path d="M13.1337 38.2523C12.8407 38.2345 12.5472 38.278 12.2721 38.3799C11.9969 38.4818 11.7463 38.6399 11.536 38.8441C11.1673 39.3074 10.9667 39.8813 10.9667 40.4727C10.9667 41.0641 11.1673 41.6381 11.536 42.1013C11.9812 42.4811 12.5478 42.6898 13.1337 42.6898C13.7196 42.6898 14.2864 42.4811 14.7316 42.1013C15.0982 41.6378 15.2975 41.0648 15.2975 40.4745C15.2975 39.8842 15.0982 39.3111 14.7316 38.8476C14.5216 38.6428 14.2709 38.484 13.9957 38.3815C13.7205 38.279 13.4269 38.2349 13.1337 38.2523ZM13.8993 41.1067C13.8648 41.2447 13.8053 41.3752 13.7237 41.4919C13.6576 41.5815 13.5675 41.6506 13.4638 41.6915C13.3627 41.7346 13.2542 41.7572 13.1443 41.7581C13.0239 41.7604 12.9044 41.7377 12.7932 41.6915C12.6884 41.6457 12.5983 41.5717 12.5332 41.4779C12.4563 41.3625 12.4004 41.2344 12.3681 41.0996C12.3207 40.8965 12.2995 40.6882 12.305 40.4797C12.3001 40.2653 12.3225 40.0511 12.3717 39.8423C12.4047 39.6989 12.4655 39.5632 12.5507 39.4431C12.6177 39.3513 12.7089 39.2798 12.8141 39.2364C12.9154 39.1998 13.0226 39.1821 13.1303 39.1839C13.2446 39.1821 13.358 39.2035 13.4638 39.2469C13.5697 39.2941 13.6608 39.3692 13.7272 39.464C13.8079 39.5842 13.8651 39.7185 13.8957 39.8598C13.9414 40.0632 13.9627 40.2713 13.959 40.4797C13.9651 40.6904 13.945 40.9009 13.8993 41.1067Z" fill="white"/>
<path d="M18.6014 38.3784C18.4819 38.3799 18.3634 38.4 18.2502 38.4379C18.1349 38.4743 18.0242 38.5236 17.9201 38.585C17.8194 38.6445 17.7232 38.7112 17.6322 38.7846C17.5269 38.8687 17.4438 38.9376 17.3829 38.9913V38.3784H16.052V42.5811H17.3584V39.7793C17.502 39.7245 17.6485 39.6777 17.7973 39.6392C17.9381 39.6008 18.0833 39.5808 18.2293 39.5797C18.344 39.5797 18.4481 39.5797 18.5417 39.5797C18.6155 39.5842 18.6886 39.5971 18.7595 39.6182H18.8683V38.3784H18.7279H18.6014Z" fill="white"/>
<path d="M21.4916 39.2925H22.2466V42.1819C22.2649 42.4426 22.2178 42.7038 22.1096 42.9419C22.0534 43.0233 21.9759 43.0879 21.8855 43.1286C21.7952 43.1694 21.6954 43.1847 21.5969 43.173C21.5133 43.1709 21.43 43.1628 21.3476 43.1485C21.2524 43.1335 21.1584 43.1113 21.0666 43.082H20.9683V44.0416C21.1085 44.0724 21.2504 44.0946 21.3932 44.1081C21.6091 44.1302 21.826 44.1407 22.0429 44.1396C22.4451 44.1567 22.8377 44.0145 23.135 43.7439C23.2791 43.5999 23.3911 43.4272 23.4637 43.2371C23.5363 43.047 23.568 42.8438 23.5565 42.6407V38.3784H21.4951L21.4916 39.2925Z" fill="white"/>
<path d="M23.5565 36.7708H22.1623V37.7864H23.5565V36.7708Z" fill="white"/>
<path d="M27.7458 38.6234C27.268 38.35 26.7182 38.2278 26.1692 38.2732C25.876 38.2732 25.5833 38.2991 25.2947 38.3502C25.0067 38.4016 24.7972 38.446 24.666 38.4833V39.492H24.7785C24.9741 39.4056 25.176 39.3341 25.3824 39.2783C25.5583 39.227 25.7401 39.1987 25.9233 39.1943C26.1864 39.1794 26.4495 39.2249 26.6923 39.3274C26.7777 39.3732 26.8477 39.4432 26.8933 39.5286C26.9389 39.614 26.9582 39.7109 26.9487 39.8072V39.8282C26.5694 39.8539 26.2182 39.8889 25.8951 39.9332C25.6023 39.9682 25.3169 40.0485 25.0489 40.1714C24.8307 40.2701 24.6445 40.4279 24.5116 40.6267C24.3777 40.8545 24.3131 41.116 24.3255 41.3797C24.3179 41.5517 24.3449 41.7234 24.4052 41.8847C24.4656 42.0459 24.558 42.1934 24.6767 42.3183C24.7967 42.4404 24.9406 42.5363 25.0995 42.6002C25.2585 42.6641 25.4289 42.6945 25.6002 42.6896C25.756 42.6937 25.9117 42.6784 26.0637 42.6441C26.1847 42.6125 26.3024 42.5691 26.4149 42.5145C26.5163 42.4662 26.6118 42.4062 26.6993 42.3359L26.9416 42.1362V42.581H28.241V39.7371C28.2589 39.525 28.223 39.3117 28.1364 39.1171C28.0499 38.9224 27.9155 38.7526 27.7458 38.6234ZM26.9416 41.4743C26.8471 41.567 26.7366 41.6418 26.6151 41.6949C26.5047 41.7446 26.3851 41.7708 26.264 41.772C26.1009 41.7829 25.9383 41.7451 25.7969 41.6634C25.7394 41.6144 25.6948 41.552 25.6673 41.4818C25.6397 41.4115 25.6299 41.3356 25.6388 41.2606C25.6329 41.1456 25.6663 41.032 25.7336 40.9384C25.8029 40.8531 25.8958 40.7898 26.0006 40.7563C26.1311 40.7095 26.2666 40.6778 26.4044 40.6618L26.9416 40.6022V41.4743Z" fill="white"/>
<path d="M33.3752 38.3818H31.8335L30.5939 40.0174V36.7708H29.2876V42.5636H30.5939V41.0156L30.7941 40.7424L31.9283 42.5636H33.484L31.9073 40.1855L33.3752 38.3818Z" fill="white"/>
<path d="M35.3663 37.1876H34.0599V38.3784H33.5612V39.2854H34.0599V41.2397C34.0408 41.4329 34.0622 41.6279 34.1226 41.8124C34.1831 41.9969 34.2813 42.1668 34.411 42.3114C34.7453 42.5589 35.1587 42.676 35.5734 42.6407C35.7694 42.6428 35.9653 42.6323 36.1599 42.6091C36.3125 42.5894 36.4639 42.5601 36.6129 42.5216V41.6005H36.5006C36.4254 41.6359 36.3465 41.663 36.2653 41.681C36.1762 41.7073 36.0841 41.7226 35.9913 41.7266C35.8581 41.734 35.7253 41.7074 35.6052 41.6495C35.5211 41.6041 35.4552 41.5311 35.4189 41.4429C35.3802 41.3495 35.36 41.2497 35.3593 41.1487C35.3593 41.0401 35.3593 40.9105 35.3593 40.7634V39.2819H36.6165V38.3784H35.3663V37.1876Z" fill="white"/>
<path d="M39.6119 39.6006H37.1362V40.6372H39.6119V39.6006Z" fill="white"/>
<path d="M44.7742 38.2523C44.4812 38.2345 44.1877 38.278 43.9125 38.3799C43.6374 38.4818 43.3867 38.6399 43.1764 38.8441C42.8078 39.3074 42.6071 39.8813 42.6071 40.4727C42.6071 41.0641 42.8078 41.6381 43.1764 42.1013C43.6217 42.4811 44.1882 42.6898 44.7742 42.6898C45.3601 42.6898 45.9267 42.4811 46.3719 42.1013C46.7385 41.6378 46.9379 41.0648 46.9379 40.4745C46.9379 39.8842 46.7385 39.3111 46.3719 38.8476C46.1619 38.6428 45.9113 38.484 45.6361 38.3815C45.361 38.279 45.0674 38.2349 44.7742 38.2523ZM45.5398 41.1067C45.5053 41.2447 45.4458 41.3752 45.3642 41.4919C45.2981 41.5815 45.2079 41.6506 45.1042 41.6915C45.0032 41.7346 44.8945 41.7572 44.7846 41.7581C44.6642 41.7604 44.5446 41.7377 44.4334 41.6915C44.3287 41.6457 44.2388 41.5717 44.1737 41.4779C44.0968 41.3625 44.0408 41.2344 44.0085 41.0996C43.9611 40.8965 43.94 40.6882 43.9454 40.4797C43.9405 40.2653 43.9629 40.0511 44.0121 39.8423C44.0451 39.6989 44.1059 39.5632 44.1912 39.4431C44.2582 39.3513 44.3493 39.2798 44.4545 39.2364C44.5558 39.1998 44.6629 39.1821 44.7706 39.1839C44.8849 39.1821 44.9985 39.2035 45.1042 39.2469C45.2102 39.2941 45.3012 39.3692 45.3676 39.464C45.4484 39.5842 45.5055 39.7185 45.5362 39.8598C45.5819 40.0632 45.6031 40.2713 45.5994 40.4797C45.609 40.6899 45.5924 40.9005 45.5502 41.1067H45.5398Z" fill="white"/>
<path d="M50.2103 38.5709C50.0666 38.4766 49.9107 38.4024 49.7468 38.3503C49.5603 38.2935 49.3659 38.2663 49.1708 38.2697C48.935 38.2693 48.7017 38.3182 48.486 38.4133C48.2719 38.5056 48.0811 38.6444 47.9277 38.8196C47.759 39.0147 47.6302 39.2407 47.5484 39.485C47.4534 39.7695 47.4071 40.0678 47.4114 40.3676C47.3676 40.9384 47.5241 41.5067 47.854 41.9752C48.0089 42.1534 48.2029 42.2938 48.4208 42.3855C48.6388 42.4772 48.875 42.5177 49.1112 42.504C49.3158 42.5046 49.5185 42.4653 49.7081 42.3884C49.8942 42.314 50.0665 42.2086 50.2173 42.0768V42.1538C50.2203 42.3034 50.205 42.4527 50.1717 42.5986C50.1441 42.7123 50.0899 42.8179 50.0136 42.9068C49.9176 43.0041 49.7958 43.0722 49.6624 43.1029C49.3794 43.1768 49.0841 43.1911 48.7951 43.1449C48.6921 43.1286 48.5879 43.1064 48.4826 43.0784L48.2156 42.9978L47.9874 42.9173H47.8329V43.968C48.0482 44.0214 48.2662 44.0635 48.486 44.094C48.7489 44.1306 49.0143 44.1481 49.2797 44.1466C49.5836 44.1497 49.8866 44.1157 50.1822 44.0451C50.439 43.9805 50.6786 43.861 50.8845 43.6948C51.0908 43.5273 51.2495 43.3087 51.3446 43.0609C51.4648 42.7458 51.5221 42.4103 51.5131 42.0732V38.3783H50.2489L50.2103 38.5709ZM50.2103 41.2502C50.1117 41.323 50.0028 41.3808 49.8872 41.4218C49.7744 41.4614 49.6557 41.4815 49.5361 41.4813C49.4034 41.4857 49.2715 41.4606 49.1497 41.4078C49.0495 41.3607 48.9643 41.2867 48.9039 41.1942C48.835 41.0882 48.7895 40.9688 48.7705 40.8439C48.7448 40.6924 48.733 40.5388 48.7353 40.3851C48.7176 40.0839 48.8017 39.7855 48.9742 39.5376C49.0588 39.4351 49.1666 39.354 49.2886 39.301C49.4107 39.2481 49.5436 39.2247 49.6765 39.2328C49.7722 39.2335 49.8675 39.244 49.961 39.2644C50.043 39.2801 50.1232 39.3047 50.1998 39.3379L50.2103 41.2502Z" fill="white"/>
<path d="M56.6436 36.7322C56.2016 36.6978 55.7634 36.8359 55.4216 37.1175C55.2781 37.2713 55.1682 37.453 55.0987 37.6514C55.0292 37.8497 55.0016 38.0602 55.0177 38.2697V38.3853H54.4946V39.2924H55.0318V42.5811H56.3382V39.3064H57.3319V38.3783H56.2784V38.3433C56.2572 38.1508 56.3086 37.9573 56.4224 37.8004C56.5778 37.6855 56.7712 37.6342 56.9632 37.6568C57.0649 37.6573 57.1661 37.6691 57.2652 37.6919L57.5005 37.7514H57.6023V36.8058C57.4617 36.7811 57.3198 36.7635 57.1774 36.7532C57.0112 36.7392 56.8333 36.7322 56.6436 36.7322Z" fill="white"/>
<path d="M59.2283 38.3818H57.9219V42.5635H59.2283V38.3818Z" fill="white"/>
<path d="M59.2634 36.7708H57.8833V37.7864H59.2634V36.7708Z" fill="white"/>
<path d="M62.6979 40.0874C62.5602 40.0422 62.4193 40.007 62.2764 39.9823C62.1313 39.9566 62.0025 39.9298 61.8901 39.9017C61.7403 39.8765 61.5971 39.8217 61.4688 39.7407C61.4363 39.7133 61.4104 39.6789 61.3933 39.64C61.3763 39.6011 61.3684 39.5589 61.3704 39.5165C61.3742 39.4593 61.395 39.4045 61.43 39.359C61.465 39.3135 61.5126 39.2794 61.567 39.2608C61.7177 39.1916 61.8824 39.158 62.0482 39.1628C62.1889 39.1626 62.3292 39.179 62.4661 39.2118C62.5866 39.2418 62.7042 39.2828 62.8172 39.3344C62.9148 39.3791 63.0098 39.4294 63.1017 39.485C63.1755 39.5279 63.2469 39.5747 63.3159 39.6251H63.4213V38.5744C63.2212 38.4821 63.0115 38.4116 62.7961 38.3642C62.5301 38.3037 62.2578 38.2743 61.9849 38.2767C61.7035 38.2728 61.4231 38.3106 61.1528 38.3888C60.9305 38.4518 60.7211 38.5538 60.5346 38.69C60.3774 38.8076 60.2479 38.9583 60.1553 39.1313C60.0699 39.2933 60.0254 39.4736 60.0255 39.6566C60.0123 39.9405 60.1006 40.2198 60.2748 40.4446C60.4723 40.6642 60.7298 40.8212 61.0158 40.8964C61.1482 40.9373 61.2831 40.9701 61.4196 40.9945L61.7953 41.075C61.9281 41.0983 62.0556 41.1458 62.1711 41.2151C62.2042 41.2412 62.2305 41.2749 62.2476 41.3133C62.2647 41.3518 62.2722 41.3938 62.2694 41.4358C62.2686 41.4979 62.2477 41.5581 62.2097 41.6074C62.1717 41.6566 62.1187 41.6923 62.0586 41.709C61.9029 41.7683 61.7373 41.7968 61.5706 41.793C61.4024 41.7939 61.2347 41.7727 61.072 41.7299C60.9309 41.6932 60.7933 41.644 60.661 41.5829C60.544 41.5349 60.4323 41.475 60.3275 41.4043L60.1133 41.2466H60.0044V42.3499C60.2223 42.4526 60.4507 42.5313 60.6857 42.5845C60.972 42.6532 61.2655 42.6873 61.56 42.6861C61.854 42.6914 62.1473 42.6549 62.4309 42.5775C62.6577 42.5131 62.8716 42.4101 63.0631 42.2728C63.2281 42.1568 63.363 42.0031 63.4565 41.8245C63.5471 41.6516 63.5939 41.4593 63.5933 41.2642C63.607 40.996 63.525 40.7316 63.3616 40.5182C63.1854 40.3152 62.9553 40.1659 62.6979 40.0874Z" fill="white"/>
<path d="M70.9362 38.2522C70.6338 38.2341 70.3308 38.2789 70.0466 38.3838C69.7625 38.4887 69.5034 38.6514 69.2857 38.8616C69.0839 39.0819 68.9279 39.3398 68.8266 39.6206C68.7254 39.9013 68.681 40.1992 68.6958 40.4972C68.6775 40.7954 68.7245 41.094 68.8337 41.3723C68.9428 41.6505 69.1114 41.9017 69.3278 42.1083C69.8421 42.5169 70.4909 42.7193 71.147 42.6756C71.3313 42.6777 71.5154 42.6672 71.6982 42.6441C71.8462 42.6236 71.9927 42.5943 72.1372 42.5566C72.2566 42.5284 72.3739 42.4921 72.4884 42.448L72.7799 42.3324V41.2572H72.6429C72.5867 41.2992 72.513 41.3483 72.4217 41.4043C72.3255 41.4618 72.2258 41.5132 72.1231 41.5584C71.9933 41.616 71.858 41.6606 71.7193 41.6915C71.5718 41.7247 71.4211 41.7411 71.2699 41.7405C71.1059 41.7421 70.9421 41.7257 70.7817 41.6915C70.6412 41.6624 70.5076 41.6065 70.3884 41.5269C70.2713 41.4476 70.176 41.3405 70.1109 41.2152C70.0359 41.0634 69.9939 40.8975 69.988 40.7283H72.8536V40.259C72.8884 39.7215 72.715 39.1912 72.369 38.7776C72.18 38.5954 71.9549 38.4546 71.7082 38.3642C71.4615 38.2737 71.1986 38.2356 70.9362 38.2522ZM70.0021 39.9368C70.0032 39.7087 70.0867 39.4887 70.2373 39.3169C70.3151 39.2391 70.4086 39.1785 70.5115 39.1393C70.6144 39.1 70.7244 39.083 70.8344 39.0893C70.9373 39.0812 71.0407 39.0965 71.1369 39.1341C71.233 39.1717 71.3193 39.2307 71.3893 39.3064C71.5231 39.4888 71.5911 39.711 71.5823 39.9368H70.0021Z" fill="white"/>
<path d="M75.5541 38.2522C75.2516 38.2341 74.9488 38.2789 74.6647 38.3838C74.3805 38.4887 74.1214 38.6514 73.9037 38.8616C73.7019 39.0819 73.5457 39.3398 73.4445 39.6206C73.3432 39.9013 73.2988 40.1992 73.3136 40.4972C73.2953 40.7954 73.3423 41.094 73.4515 41.3723C73.5607 41.6505 73.7293 41.9017 73.9457 42.1083C74.4599 42.5169 75.1087 42.7193 75.7648 42.6756C75.9491 42.6777 76.1332 42.6672 76.3161 42.6441C76.464 42.6236 76.6106 42.5943 76.755 42.5566C76.8744 42.5284 76.9918 42.4921 77.1062 42.448L77.3977 42.3324V41.2572H77.2607C77.2045 41.2992 77.1308 41.3483 77.0395 41.4043C76.9433 41.4618 76.8436 41.5132 76.741 41.5584C76.6111 41.616 76.4759 41.6606 76.3372 41.6915C76.1897 41.7247 76.039 41.7411 75.8877 41.7405C75.7237 41.7421 75.56 41.7257 75.3996 41.6915C75.2591 41.6624 75.1255 41.6065 75.0062 41.5269C74.8892 41.4476 74.7938 41.3405 74.7288 41.2152C74.6537 41.0634 74.6119 40.8975 74.606 40.7283H77.4714V40.259C77.5063 39.7215 77.3328 39.1912 76.9869 38.7776C76.7978 38.5954 76.5727 38.4546 76.326 38.3642C76.0793 38.2737 75.8164 38.2356 75.5541 38.2522ZM74.6199 39.9368C74.6211 39.7087 74.7048 39.4887 74.8553 39.3169C74.9331 39.2391 75.0264 39.1785 75.1293 39.1393C75.2322 39.1 75.3422 39.083 75.4522 39.0893C75.5552 39.0812 75.6586 39.0965 75.7547 39.1341C75.8508 39.1717 75.9372 39.2307 76.0071 39.3064C76.1409 39.4888 76.2089 39.711 76.2002 39.9368H74.6199Z" fill="white"/>
<path d="M80.8428 38.2697C80.609 38.267 80.3779 38.3199 80.1686 38.4238C79.9442 38.5401 79.7343 38.6823 79.5434 38.8476V38.3783H78.2371V42.581H79.5434V39.6181C79.6517 39.5401 79.7698 39.4765 79.8946 39.429C79.9991 39.3901 80.1097 39.37 80.2212 39.3694C80.3416 39.3632 80.4618 39.3848 80.5724 39.4325C80.6585 39.4757 80.7267 39.5475 80.7655 39.6356C80.8118 39.7542 80.838 39.8797 80.8428 40.0069C80.8568 40.175 80.8639 40.3431 80.8639 40.5112V42.581H82.1772V39.8597C82.2022 39.4407 82.0778 39.0264 81.826 38.69C81.7055 38.5493 81.5541 38.4383 81.3836 38.3654C81.2131 38.2925 81.0281 38.2597 80.8428 38.2697Z" fill="white"/>
<path d="M84.5934 37.1876H83.2869V38.3784H82.7742V39.2854H83.2729V41.2397C83.2538 41.4329 83.2752 41.6279 83.3356 41.8124C83.3961 41.9969 83.4943 42.1668 83.624 42.3114C83.9583 42.5589 84.3717 42.676 84.7864 42.6407C84.9824 42.6428 85.1783 42.6323 85.3729 42.6091C85.5255 42.5894 85.6769 42.5601 85.8259 42.5216V41.6005H85.7136C85.6384 41.6359 85.5595 41.663 85.4783 41.681C85.3892 41.7073 85.2971 41.7226 85.2043 41.7266C85.0711 41.734 84.9381 41.7074 84.818 41.6495C84.7339 41.6041 84.6682 41.5311 84.6319 41.4429C84.5932 41.3495 84.573 41.2497 84.5723 41.1487C84.5723 41.0401 84.5723 40.9105 84.5723 40.7634V39.2819H85.8295V38.3784H84.5723L84.5934 37.1876Z" fill="white"/>
<path d="M89.0531 41.3483C88.9452 41.4252 88.827 41.4866 88.7019 41.5304C88.5976 41.5707 88.4873 41.5931 88.3755 41.597C88.2547 41.6033 88.1343 41.5805 88.0243 41.5304C87.942 41.4877 87.8763 41.4186 87.8381 41.3343C87.7916 41.2229 87.7643 41.1045 87.7573 40.9841C87.7573 40.8486 87.7573 40.6724 87.7573 40.4552V38.3784H86.444V41.0997C86.4131 41.5237 86.5379 41.9444 86.7952 42.2834C86.9184 42.4162 87.0694 42.5201 87.2376 42.5879C87.4057 42.6557 87.5868 42.6857 87.7679 42.6757C88.0013 42.6816 88.2326 42.6312 88.4422 42.5286C88.6653 42.4076 88.8748 42.2632 89.0672 42.0978V42.5811H90.3736V38.3784H89.0672L89.0531 41.3483Z" fill="white"/>
<path d="M93.8291 40.0874C93.6913 40.0422 93.5504 40.007 93.4076 39.9823C93.2624 39.9566 93.1338 39.9298 93.0214 39.9017C92.8716 39.8765 92.7283 39.8217 92.6 39.7407C92.5674 39.7133 92.5417 39.6789 92.5247 39.64C92.5076 39.6011 92.4998 39.5589 92.5017 39.5165C92.5055 39.4593 92.5262 39.4045 92.5612 39.359C92.5962 39.3135 92.6438 39.2794 92.6982 39.2608C92.8488 39.1916 93.0135 39.158 93.1794 39.1628C93.3201 39.1626 93.4604 39.179 93.5972 39.2118C93.7178 39.2418 93.8354 39.2828 93.9484 39.3344C94.046 39.3791 94.141 39.4294 94.2329 39.485C94.3067 39.5279 94.3783 39.5747 94.4472 39.6251H94.5525V38.5744C94.3523 38.4821 94.1427 38.4116 93.9273 38.3642C93.6612 38.3037 93.3891 38.2743 93.1163 38.2767C92.8348 38.2728 92.5543 38.3106 92.2839 38.3888C92.0616 38.4518 91.8523 38.5538 91.6658 38.69C91.5085 38.8076 91.3792 38.9583 91.2867 39.1313C91.2013 39.2933 91.1566 39.4736 91.1567 39.6566C91.1435 39.9405 91.2318 40.2198 91.406 40.4446C91.6034 40.6642 91.861 40.8212 92.1469 40.8964C92.2794 40.9373 92.4142 40.9701 92.5507 40.9945L92.9266 41.075C93.0594 41.0983 93.1868 41.1458 93.3023 41.2151C93.3354 41.2412 93.3616 41.2749 93.3788 41.3133C93.3959 41.3518 93.4033 41.3938 93.4005 41.4358C93.3998 41.4979 93.3789 41.5581 93.3409 41.6074C93.3029 41.6566 93.25 41.6923 93.19 41.709C93.0343 41.7683 92.8684 41.7968 92.7018 41.793C92.5335 41.7939 92.3659 41.7727 92.2032 41.7299C92.0621 41.6932 91.9246 41.644 91.7923 41.5829C91.6753 41.5349 91.5634 41.475 91.4587 41.4043L91.2445 41.2466H91.1356V42.3499C91.3534 42.4526 91.5819 42.5313 91.8169 42.5845C92.1032 42.6532 92.3969 42.6873 92.6913 42.6861C92.9854 42.6914 93.2786 42.6549 93.5622 42.5775C93.789 42.5131 94.0028 42.4101 94.1943 42.2728C94.3593 42.1568 94.4942 42.0031 94.5876 41.8245C94.6782 41.6516 94.7251 41.4593 94.7245 41.2642C94.7381 40.996 94.6561 40.7316 94.4928 40.5182C94.3165 40.3152 94.0865 40.1659 93.8291 40.0874Z" fill="white"/>
<path d="M96.7543 38.3818H95.4479V42.5635H96.7543V38.3818Z" fill="white"/>
<path d="M96.7929 36.7708H95.4128V37.7864H96.7929V36.7708Z" fill="white"/>
<path d="M100.951 38.6234C100.473 38.35 99.923 38.2278 99.374 38.2732C99.0808 38.2732 98.7881 38.2991 98.4995 38.3502C98.2115 38.4016 98.0022 38.446 97.8711 38.4833V39.492H97.9834C98.179 39.4056 98.3808 39.3341 98.5873 39.2783C98.7631 39.227 98.9449 39.1987 99.1281 39.1943C99.3913 39.1794 99.6544 39.2249 99.8972 39.3274C99.9826 39.3732 100.053 39.4432 100.098 39.5286C100.144 39.614 100.163 39.7109 100.154 39.8072V39.8282C99.7744 39.8539 99.4232 39.8889 99.1002 39.9332C98.8073 39.9682 98.5217 40.0485 98.2538 40.1714C98.0355 40.2701 97.8493 40.4279 97.7164 40.6267C97.5825 40.8545 97.5179 41.116 97.5304 41.3797C97.5227 41.5517 97.5499 41.7234 97.6103 41.8847C97.6706 42.0459 97.7628 42.1934 97.8815 42.3183C98.0015 42.4404 98.1454 42.5363 98.3044 42.6002C98.4633 42.6641 98.6338 42.6945 98.8051 42.6896C98.9609 42.6937 99.1167 42.6784 99.2687 42.6441C99.3898 42.6125 99.5074 42.5691 99.6199 42.5145C99.7213 42.4662 99.8167 42.4062 99.9042 42.3359L100.147 42.1362V42.581H101.446V39.7371C101.464 39.525 101.428 39.3117 101.341 39.1171C101.255 38.9224 101.12 38.7526 100.951 38.6234ZM100.147 41.4743C100.052 41.567 99.9414 41.6418 99.82 41.6949C99.7096 41.7446 99.59 41.7708 99.4688 41.772C99.3058 41.7829 99.1431 41.7451 99.0017 41.6634C98.9442 41.6144 98.8997 41.552 98.8721 41.4818C98.8445 41.4115 98.8348 41.3356 98.8436 41.2606C98.8377 41.1456 98.8711 41.032 98.9385 40.9384C99.0078 40.8531 99.1006 40.7898 99.2054 40.7563C99.336 40.7095 99.4715 40.6778 99.6093 40.6618L100.147 40.6022V41.4743Z" fill="white"/>
<path d="M104.898 40.0874C104.76 40.0422 104.619 40.007 104.476 39.9823C104.331 39.9566 104.203 39.9298 104.09 39.9017C103.941 39.8765 103.797 39.8217 103.669 39.7407C103.636 39.7133 103.611 39.6789 103.594 39.64C103.577 39.6011 103.569 39.5589 103.571 39.5165C103.574 39.4593 103.595 39.4045 103.63 39.359C103.665 39.3135 103.713 39.2794 103.767 39.2608C103.918 39.1916 104.082 39.158 104.248 39.1628C104.389 39.1626 104.529 39.179 104.666 39.2118C104.787 39.2418 104.904 39.2828 105.017 39.3344C105.115 39.3791 105.21 39.4294 105.302 39.485C105.376 39.5279 105.447 39.5747 105.516 39.6251H105.621V38.5744C105.421 38.4821 105.212 38.4116 104.996 38.3642C104.73 38.3037 104.458 38.2743 104.185 38.2767C103.904 38.2728 103.623 38.3106 103.353 38.3888C103.131 38.4518 102.921 38.5538 102.735 38.69C102.577 38.8076 102.448 38.9583 102.355 39.1313C102.27 39.2933 102.226 39.4736 102.226 39.6566C102.212 39.9405 102.301 40.2198 102.475 40.4446C102.672 40.6642 102.93 40.8212 103.216 40.8964C103.348 40.9373 103.483 40.9701 103.62 40.9945L103.995 41.075C104.128 41.0983 104.256 41.1458 104.371 41.2151C104.404 41.2412 104.431 41.2749 104.448 41.3133C104.465 41.3518 104.472 41.3938 104.469 41.4358C104.469 41.4979 104.448 41.5581 104.41 41.6074C104.372 41.6566 104.319 41.6923 104.259 41.709C104.103 41.7683 103.937 41.7968 103.771 41.793C103.602 41.7939 103.435 41.7727 103.272 41.7299C103.131 41.6932 102.994 41.644 102.861 41.5829C102.744 41.5349 102.632 41.475 102.528 41.4043L102.313 41.2466H102.204V42.3499C102.422 42.4526 102.651 42.5313 102.886 42.5845C103.172 42.6532 103.466 42.6873 103.76 42.6861C104.054 42.6914 104.347 42.6549 104.631 42.5775C104.858 42.5131 105.072 42.4101 105.263 42.2728C105.428 42.1568 105.563 42.0031 105.657 41.8245C105.747 41.6516 105.794 41.4593 105.793 41.2642C105.807 40.996 105.725 40.7316 105.562 40.5182C105.385 40.3152 105.155 40.1659 104.898 40.0874Z" fill="white"/>
<path d="M107.886 37.1876H106.58V38.3784H106.081V39.2854H106.58V41.2397C106.561 41.4329 106.582 41.6279 106.643 41.8124C106.703 41.9969 106.801 42.1668 106.931 42.3114C107.265 42.5589 107.679 42.676 108.094 42.6407C108.29 42.6428 108.485 42.6323 108.68 42.6091C108.833 42.5894 108.984 42.5601 109.133 42.5216V41.6005H109.021C108.946 41.6359 108.866 41.663 108.785 41.681C108.696 41.7073 108.604 41.7226 108.511 41.7266C108.378 41.734 108.245 41.7074 108.125 41.6495C108.041 41.6041 107.975 41.5311 107.939 41.4429C107.9 41.3495 107.88 41.2497 107.879 41.1487C107.879 41.0401 107.879 40.9105 107.879 40.7634V39.2819H109.136V38.3784H107.879L107.886 37.1876Z" fill="white"/>
<path d="M111.689 38.2522C111.387 38.2341 111.084 38.2789 110.8 38.3838C110.516 38.4887 110.257 38.6514 110.039 38.8616C109.837 39.0819 109.681 39.3398 109.58 39.6206C109.479 39.9013 109.434 40.1992 109.449 40.4972C109.431 40.7954 109.478 41.094 109.587 41.3723C109.696 41.6505 109.865 41.9017 110.081 42.1083C110.595 42.5169 111.244 42.7193 111.9 42.6756C112.084 42.6777 112.269 42.6672 112.451 42.6441C112.599 42.6236 112.746 42.5943 112.89 42.5566C113.01 42.5284 113.127 42.4921 113.242 42.448L113.533 42.3324V41.2572H113.396C113.34 41.2992 113.266 41.3483 113.175 41.4043C113.079 41.4618 112.979 41.5132 112.877 41.5584C112.747 41.616 112.611 41.6606 112.473 41.6915C112.325 41.7247 112.174 41.7411 112.023 41.7405C111.859 41.7421 111.695 41.7257 111.535 41.6915C111.394 41.6624 111.261 41.6065 111.142 41.5269C111.025 41.4476 110.929 41.3405 110.864 41.2152C110.789 41.0634 110.747 40.8975 110.741 40.7283H113.607V40.259C113.642 39.7215 113.468 39.1912 113.122 38.7776C112.933 38.5954 112.708 38.4546 112.461 38.3642C112.215 38.2737 111.952 38.2356 111.689 38.2522ZM110.755 39.9368C110.757 39.7087 110.84 39.4887 110.991 39.3169C111.068 39.2391 111.162 39.1785 111.265 39.1393C111.368 39.1 111.478 39.083 111.588 39.0893C111.691 39.0812 111.794 39.0965 111.89 39.1341C111.986 39.1717 112.073 39.2307 112.142 39.3064C112.276 39.4888 112.344 39.711 112.336 39.9368H110.755Z" fill="white"/>
<path d="M116.904 38.3784C116.785 38.3799 116.666 38.4 116.553 38.4379C116.438 38.4743 116.327 38.5236 116.223 38.585C116.122 38.6445 116.026 38.7112 115.935 38.7846C115.83 38.8687 115.747 38.9376 115.686 38.9913V38.3784H114.38V42.5811H115.686V39.7793C115.83 39.7245 115.976 39.6777 116.125 39.6392C116.266 39.6008 116.411 39.5808 116.557 39.5797C116.672 39.5797 116.776 39.5797 116.869 39.5797C116.943 39.5842 117.016 39.5971 117.087 39.6182H117.196V38.3784H117.055H116.904Z" fill="white"/>
</svg>
