<svg width="18" height="12" viewBox="0 0 18 12" fill="none" xmlns="http://www.w3.org/2000/svg">
<path d="M12.8587 11.5621V8.44338V4.42536V3.61321C12.8587 1.80717 11.395 0.342987 9.58928 0.342987H8.84047H3.54H0.398273C0.327381 0.342987 0.27002 0.400068 0.27002 0.470201V3.61323V8.44338V11.5621C0.27002 11.6323 0.327381 11.6891 0.398273 11.6891H2.85327C2.92416 11.6891 2.98152 11.632 2.98152 11.5614V8.50751V2.85554C2.98152 2.78493 3.0389 2.72755 3.10979 2.72755H8.38891C9.3802 2.72755 10.1843 3.53109 10.1843 4.52261V8.22958V11.5613C10.1843 11.632 10.2416 11.6891 10.312 11.6891H12.731C12.8014 11.6891 12.8587 11.6323 12.8587 11.5621ZM7.90136 11.5614C7.90136 11.632 7.84454 11.6891 7.77363 11.6891H5.31916C5.24826 11.6891 5.19088 11.632 5.19088 11.5614V4.88996C5.19088 4.81935 5.24826 4.76199 5.31916 4.76199H7.77363C7.84454 4.76199 7.90136 4.81935 7.90136 4.88996V11.5614ZM17.7163 11.5614C17.7163 11.632 17.6589 11.6891 17.588 11.6891H15.1341C15.0632 11.6891 15.0053 11.632 15.0053 11.5614V0.47124C15.0053 0.400328 15.0632 0.342987 15.1341 0.342987H17.588C17.6589 0.342987 17.7163 0.400328 17.7163 0.47124V11.5614Z" fill="#212121"/>
</svg>
